<?xml version="1.0" encoding="UTF-8"?>
<svg id="Livello_1" data-name="Livello 1" xmlns="http://www.w3.org/2000/svg" viewBox="0 0 64.24 86.61">
  <defs>
    <style>
      .cls-1 {
        fill: #af8851;
      }

      .cls-1, .cls-2, .cls-3, .cls-4, .cls-5, .cls-6, .cls-7, .cls-8, .cls-9, .cls-10, .cls-11, .cls-12, .cls-13, .cls-14, .cls-15, .cls-16, .cls-17, .cls-18, .cls-19, .cls-20, .cls-21, .cls-22, .cls-23, .cls-24, .cls-25, .cls-26, .cls-27, .cls-28, .cls-29 {
        stroke-width: 0px;
      }

      .cls-2 {
        fill: #70340f;
      }

      .cls-3 {
        fill: #52402e;
      }

      .cls-4 {
        fill: none;
      }

      .cls-5 {
        fill: #473e32;
      }

      .cls-6 {
        fill: #d1a875;
      }

      .cls-7 {
        fill: #060707;
      }

      .cls-8 {
        fill: #caab7c;
      }

      .cls-9 {
        fill: #6b5220;
      }

      .cls-10 {
        fill: #373338;
      }

      .cls-11 {
        fill: #874d23;
      }

      .cls-12 {
        fill: #413c32;
      }

      .cls-13 {
        fill: #050506;
      }

      .cls-14 {
        fill: #010202;
      }

      .cls-15 {
        fill: #cfa773;
      }

      .cls-16 {
        fill: #010101;
      }

      .cls-17 {
        fill: #403830;
      }

      .cls-18 {
        fill: #d4aa77;
      }

      .cls-19 {
        fill: #654328;
      }

      .cls-20 {
        fill: #d0ac82;
      }

      .cls-21 {
        fill: #c4a67d;
      }

      .cls-22 {
        fill: #6d3310;
      }

      .cls-23 {
        fill: #443b2f;
      }

      .cls-24 {
        fill: #020303;
      }

      .cls-25 {
        fill: #874f23;
      }

      .cls-26 {
        fill: #45362d;
      }

      .cls-27 {
        fill: #3e372b;
      }

      .cls-28 {
        fill: #020203;
      }

      .cls-29 {
        fill: #48372b;
      }
    </style>
  </defs>
  <path class="cls-14" d="M44.72,62.53l.59-.4s3.02,2.27,4.04,3.56v3.4s.27,1.29.27,2.38c0,.71-1.89,3.35-1.89,3.35h-1.72l-1-4.73s-.45-7.04-.29-7.56h0Z"/>
  <path class="cls-1" d="M17.86,67.53c-.4-.21,7.4,7.38,12.44,11.2.26-8.36.42-10.28-6.16-18.46,2.69-1.25,4.89-.94,4.89-.94l8.04-1.13,5.67-6.59,1.34-11.86,3.08-10.14-7.82-12.26-7.14-2.14-7.63-.92-4.22.58-.3,5.18-2.19,5.53-2.44,1.99-2.03,5.98,2.03,10.58,3.22,8.12-.78,15.28h0Z"/>
  <path class="cls-23" d="M35.55,83.01c.18.37,1.02,1.08,1.16,1.74.15.66-.07.78.81.81,1.88-.3,5.1-5.53,5.1-5.53,0,0,.93.19.89,0-.2-.83-1.87-2.54-3.15-3.49.21-.64-.57-1.62-.96-1.77-.11,0-.05-.12-.05-.12-.01-.02-.67-.79-.91-.95,0,.02-1.77.02-1.77.02,0,0-.25.37-.31.44-.09.11-.33,1-.41,1.33-.16,1.67-.42,5.3-.42,5.3,0,0-.35.11-1.23.13-.25.04-.79.02-.95.13-.01.13.56.45.92.71.56.4,1.02.96,1.27,1.25h0Z"/>
  <path class="cls-2" d="M33.38,16.62c-.32-.24-.6-.45-.79-.62-.14-.13-.32-.2-.51-.2-1.35-.03-5.38-.22-5.79-.57-.45-.36-1.19-.76-4.32-.02-.06.01-.14.04-.2.07-2.31,1.23-2.81,6.25-2.9,7.49-.01.18-.09.35-.2.49l-3.05,3.37c-.18.2-1.18,1.48-1.37,1.38-.2-.1.25-1.7.3-1.97.18-1.08.36-1.9.42-2.6.18-.9-.53-2.04-1.75.04-2.66,4.14-2.24,4.23-2.24,4.23l1.81,12.28,1.33,7.33c.01.09.04.16.09.24l2.04,3.82c.07.13.11.29.1.44l-.36,5.76c-.02.28.11.55.33.71l2.97,2.18c.19.14.31.35.33.59l.5,6.36c.06.77-.89,1.19-1.41.61-1.06-1.17-2.34-2.61-2.79-3.27-.1-.14-.13-.31-.13-.49.01-.51-1.18-.89-1.74-.42-.05.04-.12.03-.19.02-.1-.01-.32.64-1.14.73h-.13c-.64-.02-.47.31-1.52-.65-.09-.07-.18-.14-.3-.18-.4-.12-.51.17-1.41-.01-.04,0-.09-.01-.12-.02-.6-.03-1.19-.09-1.88-.13-.29-.02-.55-.19-.68-.44-.13-.22-.31-.36-.91-.75-.17-.11-.3-.29-.35-.48-.02-.09-.04-.17-.06-.25-.07-.29-.29-.5-.57-.59-.49-.13-1.22-.35-1.43-.51-.33-.25-1.63.09-1.87-.22-.36-.36-.17-1.7-.19-2.26-.05-.43-.68-.37-.68-1.96-.02-.61-.36-.8,1.31-1.09.13-.02.26-.07.36-.15,1.38-1.04-.04-1.58-.58-1.69-.24.07-.37-.37-.44-.8-.05-.39.18-.75.56-.87,1.59-.5,3.98-1.32,4.52-1.7.6-.43-.52-5.77-.75-7.71-.22-1.94-.22-2.4-.52-5.7-.39-4.17-1.58-8.17-1.6-8.45-.19-2.02-.09-2.3-.09-3.15,0-.05.13-.42.15-.56.07-.46.45-1.51.3-1.06-.17.5.14-1.01.17-1.19v-.03c1.86-6.33,2.58-7.1,3.64-8.21.04-.05.06-.12.07-.18.04-.58,1.64-1.83,2.02-2.41,1.38-2.11,2.05-3.04,3.05-4.01.02-.02.05-.05.09-.07,1.52-.94.49-.27,1.74-1.48.12-.12.35-.26.51-.32.96-.36.81-.17,1.33-.42.02-.01.03-.02.05-.03,1-.78,1.85-1.03,1.85-1.03.03-.01.05-.02.09-.03.22-.09,1.25-.45,2.44-.79.53-.18.26-.13,3.51-.93l.09-.02c1.7-.26,2.57-.33,3.32-.81.06-.04.63-.12.72-.12.85-.02,5.24-.22,8.84.13,1.62.09,2.58.22,5.69.58.18.02.67.3.73.32,3.36,1.59,3.58,3.19,4.64,4.06,1.04.86.96-.42,2.53,2.16.06.11.11.21.12.34.37,2.85.12,1.93,1.21,4.42.93,2.14.3,11.2.06,14.01-.03.45-.44.79-.89.75l-4.49-.44c-.28-.03-.52-.2-.65-.45l-6.42-13.11c-.2-.41-.7-.58-1.1-.36-.63.32-1.74,1.01-3.72,2.4-.07.05-.2.07-.3.07-.02,0-.03.01-.04.03-.16.63-.78.95-1.27.6h0Z"/>
  <path class="cls-4" d="M23.41,53.78s3.05.15,5.44,0"/>
  <path class="cls-15" d="M31.96,53.85c1.71,1.27,2.16,1.42,2.01,2.16-.15.75-4.09,2.16-4.76,2.01s-3.42-1.41-4.61-2.82l-1.19-1.41s6.54-.17,8.55.06h0Z"/>
  <path class="cls-29" d="M43.27,62.99v17.09l4.57-4.81s-.06-.29-.12-.44h-1.72s-.63-3.45-.87-4.56c-.21-1.59-.43-7.74-.43-7.74,0,0-1.43-.37-1.43-.82s0,1.28,0,1.28h0Z"/>
  <path class="cls-9" d="M47.74,74.83c.14-.35,1.59-2.94,1.59-2.94,0,0,.59-.59.59.11s-2.08,3.27-2.08,3.27l-.11-.44Z"/>
  <path class="cls-15" d="M23.4,53.78s.76.97,1.2,1.42c.68.71,1.52,1.34,2.44,1.85.14.07,1.28.67,1.48.74.19.06.36.17.72.25.35.07,5.24-1.27,4.72-2.42-.18-.41.09-.12-.5-.67-.31-.29-1.48-1.12-1.48-1.12l-8.57-.04h0Z"/>
  <path class="cls-15" d="M24.15,60.27s2.42,2.97,4.06,6.3c1.32,3.37,1.78,5.36,1.78,5.36,0,0,.57,2.67.32,6.79.16.16,3.06,2.36,3.06,2.36,0,0,1.11-.28,2.17-.26l.3-4.21s.04-1.5.52-2.43c0,0,.65-.87,2.21-.21.37.16.77.67.75.75-.01.04.02.09.06.09h.96s-1-4.45-1.93-6.21c-2.11-3.64-9.35-6.94-14.27-8.35h0Z"/>
  <path class="cls-19" d="M43.27,62.99l-.79-.07-4.88-2.35-4.17-1.33s-1.98-.22-2.79-.22c-.9.2-.21.07-1.59.3-1.44-.14-3.48.22-4.89.94.85.27,12.72,3.73,14.94,11.51.63,1.4.79,1.87,1.27,3.05h-.96s.1-.11.57.6c.48.7.4,1.18.4,1.18,0,0,.53.29,1.87,1.77s1.04,1.43,1.04,1.43v-16.8Z"/>
  <path class="cls-5" d="M7.49,36.34s-.7-.91-1.04-.55c-.11.64-.19,1.72.09,3.04s.51,1.7.86,3.04c.34,1.33.34.28.66,3.08,0,0-.13,1.51-.11,2.34s.21,2.57-.75,4.65c-.97,2.1-2.19,6.09-2.08,6.46.19.36,3.8,1.75,3.8,1.75,0,0,2.47,1.22,4.41,1.81.92.29,1.26.48,1.78.06.51-.43.39-1.28-1.07-4.62s-2.5-5.72-2.74-6.92c.02-1.22-.44-1.71.13-3.23.14-.37.8-1.52.25-4.68-.13-.87-4.18-6.25-4.18-6.25h0Z"/>
  <path class="cls-25" d="M9.92,18.3v-1.96s1.73-4.37,3.8-5.4c1.07-.53,4.07-1.8,4.93-.83.89,1.01.65,2.49.65,2.49,0,0-6.24,5.59-7.78,6.06-1.54.48-1.6-.35-1.6-.35h0Z"/>
  <path class="cls-25" d="M23.07,11.66s7.56,2.72,8.89,3.1c1.32.4,1.82-.18,1.82-.18l1.32-2s-2.16-2.6-6.78-2.6c-1.14,0-3.5-.21-4.32.29s-.92,1.39-.92,1.39h0Z"/>
  <path class="cls-11" d="M32.59,8.8c.56.24,4.71,2.31,5.3,2.26.66-.06,1.8-.1,2.01-.35.18-.2-.42-1.35-1.89-2.47-.93-.71-3.15-1.53-3.33-1.58-1.88-.53-6.93-1.69-10.36.02-.35.18-7.19,2.84-.98,3.09,1.01.04,2.95-1.16,4.59-1.35,2.4-.3,4.46.29,4.67.39h0Z"/>
  <path class="cls-26" d="M18.59,31.07c1.19-1.09,1.39-2.23,2.55-2.62.6-.49,4.63-.79,6.1.4.45.75.01,1.13-.59,2.08s-.4.85-.79,1.53c-.22.48-1.11,1.68-1.28,1.66-.4.11-2.72.14-3.36,0s-4.02-.47-4.02-.47c0,0-.31.03-.42-1.13.1-.55,1.82-1.43,1.82-1.43h0Z"/>
  <path class="cls-13" d="M17.88,32.3c-.16-.16,1.35-.67,2.5-1.34,1.16-.66,1.46-1.37,2.4-1.37h3.94s.35.03.3.19c-.05.15-.22.28-.41.46-.18.18-1.01.49-1.12.59-.13.1-.65,1.01-1.19,1.34-.39.33-.79.95-1.92.97s-2.28-.51-3.28-.66c-1.01-.16-1.06-.02-1.22-.18h0Z"/>
  <path class="cls-8" d="M29.12,51s.97.03,2-.02c.37,0,.68-.11,1.41-.18.56-.05,1.37-.1,2.64-.06.24-.01.17.81-.6.82-.16.02-.15.01-.6.04-1.4.1-4.48.1-4.6-.09-.37-.12-.26-.51-.26-.51h0Z"/>
  <path class="cls-7" d="M32.02,42.84c.07-.14.71-.61,1.34-1.11.42-.33.72-.65,1-.92.24-.27.55-.41.52.1.04.29.12,2.14.07,2.15-.1.02-3.02-.01-2.93-.21h0Z"/>
  <path class="cls-6" d="M17.35,28.79s-.47,1.99.18,1.33c.65-.66,1.11-2.32,2.07-3.03.91-.33,4.31-1.08,5.85-2.45,1.53-1.37.85-1.92.39-2.29s-.72-1.24-.18-2.35c.62-.66,1.08-1.83-.75-3.03,0,0-1.69.63-1.84.92-.17.25,0,1.41-.44,3.04,0,0-.32,1.95-1.21,3.73-.15.3-2.65,1.12-3.25,2.6-.29.37-.81,1.53-.81,1.53h0Z"/>
  <path class="cls-17" d="M16.6,55.71c-.04.82-.52,2.57-.45,3.23.11.27.24.43.92.44.4.06,1.52,1.23,1.52,1.23,0,0,.02,3.06.37,3.7.39.39.95.3.95.3l-.26-11.16s.05-2.74-1.31-5.68c-1.46-3.09-2.77-7.51-3.2-9.03-.24-2.35-1.8-5.88.64-10.22.06-.33.36-.81.53-1.08s1.01-1.04,1.31-1.17.87-.61,1.32-1.18c.44-.55.82-1.07,1.17-1.58.14-.56.27-1.13.4-1.7.25-1.1.47-2.17.66-3.23-.01-.12-.14-1.1.58-1.81.42-.42.92-.51,1.12-.55.19.03,2.08.31,2.87-.11.15-.09.46-.26.52-.56.02-.1.01-.21-.04-.34-.32-.71-3.02-.53-3.96-.22-.95.31-2.08,1.06-2.82,3.93-.24.87-.66,4.12-.66,4.12l-4.48,4.95c-.1.14-.41.56-.65,1s-.56.9-.56.9c0,0-.48,1.98-.58,2.35-.25,3.04.12,4.62.55,5.83.2.44.5,1.62.5,1.62,0,0,.49,2.35.58,2.78.14.66.15,1.32.27,2.77s.68,3.56.68,3.56c0,0,2.42,2.36,2.56,2.63s.27.78,0,1.34c-.24.24.01.21-.47.33-.42.11-.36.39-.36.39,0,0-.16,1.17-.21,2.21h0Z"/>
  <path class="cls-16" d="M11.34,26.49s-.53.93-.55,1.06c-.06,1.03.2,2.71.06,3.83,0,3.88-.1,5.39.9,8.93.93,2.76,1.52,3.76,1.28,5.16-.1.43-.35.98-.35.98,0,0-.13.2-.24.78.22.12-.75.59-.78.88s-.26,1.79,0,1.95,2.49.24,3.37.7c0,.47.1,8.66.36,8.61s.36-.19.5.05c0,1.02.24,1.27.24,1.27.1.18,1.38-.59.92-1.28-.95-.16-.92-.44-.92-.44-.01-1.29.53-1.68.66-5.45.19-.39.27-.22.72-.5s.24-.81.21-1.36c0-.64-2.14-1.96-2.33-2.73-.44-1.21-.95-1.87-1.09-4.75-.15-2.89-.9-5.14-1.48-6.98-.58-1.84-.3-4.61.01-6.2s1.42-2.99,1.42-2.99c0,0,.21-.67.42-2.47.28-1.46.5-2.78.22-3.2-.15-.24-.85-.24-1.47.64-.82,1.14-2.24,3.48-2.11,3.49h0Z"/>
  <path class="cls-18" d="M17.86,37.49s2.76-1.58,5.96-1.78c.95,0,1.78-.26,2.44-.98.66-.73,2.04-1.96,2.09-3.36.03-1.39.18-1.82.51-2.15.24-.18,1.68-.88,1.75,1.47.07,2.34-.44,5.67,0,6.26s.73.49,1.13.28c.41-.21.66-.91.91-.91.21.39.66,2.08.47,2.56s-1.37,2.14-1.67,2.26c-.64.06-3.46,0-3.46,0l-.05,1.4,2.73.77v1.37l-2.29,1.37-3.53,1.7s-.32-.57.3-1.67c.49-.62,1.62-2.38,1.85-3.04.41-.43.65-1.97.65-1.97,0,0-.94.3-1.13-.03,0,0-.67-.56-.07-1.2.31-.26.95-.42.95-.42,0,0,.07-.9,0-1.16s-.77-.3-2.23.77c-1.44,1.07-1.94,1.51-3.1,2.03-1.62.97-3.49.36-3.67.39-.39.01-1.78-1.88-.55-3.96h0Z"/>
  <path class="cls-21" d="M34.39,43.6c1.52-.36,2.81-.36,2.81,0,.28.72-2.15,1.5-3.2,1.75-.36.1-.73.18-1.59.32-1.62.26-4.03.39-4.03.39l2.15-1.5s3.39-.89,3.86-.96h0Z"/>
  <path class="cls-20" d="M29.65,46.77s-1.17.41-.71.83c.71.26,1.37.26,2.77.14.87,0,1.31.11-.27.22,0,0-1.63.26-1.57.59.05.32-.04.34.66.49,1.03.12.58-.26,2.14-.68s1.75-.29,2.15-.88c.39-.57.26-1.27-.52-1.23.01.01-4,.37-4.65.51-.65.15,0,.01,0,0h0Z"/>
  <path class="cls-12" d="M36.41,26.08s-3.23-.12-2.73.2c-.88,1.57-2.16,2.55-2.13,6.17.66,3.96,1.25,4.03,1.25,4.03,0,0,.67,2.16.32,2.39-.7,1.13-1.43,2.07-1.67,2.26-.52.1-2.63.01-3.46,0l-.05,1.4,2.73.77v1.2l3.8-.95s3.22-.73,2.7.32c-.32.71-3,1.51-3.65,1.58-2.38.47-5.15.59-5.15.59,0,0-1,.48-2.01.96-1.02.49-2.1.9-1.74,1.08.21.13.49.11.64.14.89-.01.89-.11,1.22-.21s2.42-1.21,2.42-1.21l5.49-.55s1.02,0,.48,1.16c0,0-.22.39-.55.55-.81.19-.88.22-.88.22,0,0-.66.15-1.31.35-.55.26-2.97,2.01-2.97,2.01,0,0-.16.47.62.29,3.18-.13,5.38-.11,5.38-.11,0,0,.42.05-.13.67,1.87-.14,2.57-1.55,2.71-1.9.15-.34,1.73-4.08,1.73-4.08,0,0,1.4-2.74-3.91-5.69-.24,0-.32-6.74.19-6.78s7.85-.03,8.08-.01c.21.01.45,1.24.45,1.24,0,0,.31,1.7-.6,3.85-.5,1.47-1.97,6.31-1.84,12.68,0,0-.33.12-.82.95s-.74,1.6-2.42,4.06c-1.68,2.45-3.65,2.45-3.65,2.45l-4.31.83s4.76.12,11.52,3.81c.72.17.15.17,1.11.17.03-2.73.62-17.39.62-17.39l3.25-9.34s.58-.76.58,2.07c.49,0,.63.03.63.03v.87s.46,1.87.89,2.25v4.99s-3.4,2.89-2.27,5.85c1.55,1.79,2.67,1.1,2.67,1.1.75-.62,1.35-1.03,1.35-1.03,0,0,1.47-2.99,2.21-3.58.3-.48,1.42.27,1.42.27,0,0-.24-.75-.13-4.76,0,0,1.88-.03,2.09-.53-.14-.73.5-17.02-2.91-26.81-3.41-9.79-8.08-11.26-9-11.19-.74,1.21-1.05.94,3.84,6.66,2.99,5.8,4.79,8.57,2.15,13.18-3.37,5.78-6.43-4.47-6.43-4.47,0,0-3.65-7.49-4.83-7.85s-3.22,1.99-3.22,1.99c-.09-.03-1.5.85-2.04.91-.97.36,2.18,2.09,3.18,4.17.18,1.05.9,3.52.16,4.23-.76.71-1.1,1.51-1.1,1.51h0Z"/>
  <path class="cls-27" d="M43.51,55.72l-.09,2.32s1.78,0,3.56,1.23l.26-.3s2.3,1.26,4.68.57c.68-.02,2.34-1.02,2.34-1.02,0,0,.9-.09.79.8-.14.22,1.48-2.7,3.03-4.68.45-.58,3.68-3.05,4.67-4,.62-.61.46-.94.46-.94h.51s.06-2.1-.41-2.85c-.78-.76-3.03-.18-3.57-.41-.24-.1.15-.32-.98-.77-.09-.34.62-.61-.37-1.48-.86-.3-.61,0-1.03-.2-.41-.2.22-.43-.76-.29-.03.27-.12.22-1.37.58-.43.04-.72.05-.72.05,0,.18-.02.44-.01.61.04-.21.07-.44.18-.47.04.01.09.05.17.15.07.11.5.63.75,1.01s.52.82.55.9c.02.07-.04.06.19.27.25.19.29.17.43.19.11,0,.12-.06.19-.07s.2-.05.87,1.06c.5.92.42,1.01.85,1.06s1.92.1,2.23-.05c.49-.66.71-.74.71-.74,0,0,.29-.17.43.06.06.14.1.18.18.67.02.25.04.48.04.58-.05.05-.5.82-1.1,1.35-2.26,2.24-2.9,2.63-2.9,2.63,0,0-.28.32-.81.2s-3.64-.25-3.64-.25c0,0-.52.98.17,2.35.15.31.11.22.11.22,0,0,.03-.18.02.52-.01.71.1,1.42-.77,1.48-.39-.1-.95.5-.95.5,0,0-.59.77-2.45.37-.44-.06-.93-.04-1.54-.28-1.29-.49-4.06-1.28-4.88-2.96h0Z"/>
  <path class="cls-24" d="M43.46,55.34c-.09,1.87,4.76,3.58,6.46,3.54,2.43.55,2.31-.7,3.25-.85s.96-.33.9-2.02c-.45-.85-.35-2.63-.28-2.57.06.05,3.74.26,3.74.26,0,0,.36.41,2.28-1.51,2.24-2.13,2.43-2.69,2.43-2.69,0,0-.02-1.21-.33-1.35-.44-.15-1.02.79-1.02.79,0,0-2.09.31-2.56-.09-.91-1.7-1.23-2.13-1.46-1.94s-.79-.33-.73-.4c.06-.06-1.33-2.15-1.48-2.07-.37.16-.22,4.12-.22,4.12,0,0-.19.32-.58-.15-.7-.28-2.75,3.25-2.93,3.54-.66.4-.9,1.22-1.48,1.37s-3.02,0-2.6-2.72c0-1.48,1.27-3.21,2.45-3.98.26-.49,0-5.62-.06-5.67s-.56.51-.85-2.69c-.61-.07-.58-.2-.58-.2,0,0,.09-.85,0-1.44-.01-.07-.21.01-.16-.06-.1-.48-.22-.85-.42-.63-2.38,3.46-4.29,9.2-3.8,19.39h0Z"/>
  <path class="cls-28" d="M37.42,17.28l1.31,2.41s3.54,4.01,4.74,5.9c1.2,1.88,1.94,2.31,2,2.89s-.87,1.52-.87,1.52c0,0,.19,1.39-.13,2.2s-.7.07-.94-.68c-.09-.25-.93-.33-2.07-.33-.64.28-3.76.22-5.21.22-.62.01-.76.16-.76.16,0,0-.35,1.18-.73,1.36-.71.06-.87-.71-.88-1.41.19-1.28,1.2-2.17,2.38-3.08.74-.57,1.68-1.27,2.04-1.29.94-.06.75.34.75.53s-1.26,0-1.26.7c-.07.09-.16,1.09-.03,1.26s1.89-.03,2.4-.02c.04,0,.75-.04,1.36-.18.79-.17,1.53-.44,1.6-.43.34-.46.46-.45-.42-2.27-.88-1.83-3.08-4.09-4.47-5.41s-3.72-4.99-3.51-5.23c-.03.11-.13-.04.64-.43.39-.29,1.84-1.34,1.81-1.37.21.21.51.5.31.76-.2.26-.13.55-.62.6-.49.04-.29.51-.16.8.3.19.72.83.72.83h0Z"/>
  <path class="cls-10" d="M50.28,60.35s2.75-.14,3.8-.48c1.05-.34.96-.7.96-.7,0,0,.09-.56-.56-.66-.72-.11-1.52,1-2.86,1.04s-3.31-.22-4.4-.59l-.4.47s.81.68,3.45.92h0Z"/>
  <path class="cls-3" d="M19.48,64.56s-.07,1.29,0,1.99-.44-.49-.51-1c-.04-.32-.07-.88-.09-1.23-.01-.19-.01-.32-.01-.32,0,0-.05.46.61.56h0Z"/>
  <path class="cls-22" d="M48.63,29.97s-.22,6.26,0,6.82,1.17.33,1.44,1.11.33,7.86.89,7.7c1.33-.39,3.55-1.05,3.55-1.05,0,0-.85-15.2-2.33-15.58-2.43-.62-3.55,1-3.55,1Z"/>
</svg>