<svg xmlns="http://www.w3.org/2000/svg" viewBox="0 0 772.25 769.91"><path d="M272.44,458.44c1.41-4.3,69.43-19.6,98.69-14a86.84,86.84,0,0,1,13,3.15c23.09,7.19,45.79,10.71,90.29-18.82,23.37-15.54,31.93-14.56,55.46-9.14,29.24,6.73,59.12-10,71.73-24.43,32.92-4.82,52-31.75,53.24-54.89a6.06,6.06,0,0,1,2.23-4.31C678,318.7,684.46,287.53,683,272c13.26,11.89,18.63,9.08,25.72,21.13,1.65,2.8,3.35,5.69,5.07,8.82,4.86,8.54,22.51,9.59,30.69,22,0,0-1.11,36.67-.05,47.37.27,4,21.26,21,22.1,24.93,3.32,13.17-.74,25.14-5.86,34a32.89,32.89,0,0,1-26.11,16.27c-9.49.74-19.73,2.35-15.92,5.82,18.5,16.87,3.38,65.82-20.2,75h0a19.56,19.56,0,0,0-11.13,11.07c-6.49,16.51-51.34,52.87-56.92,29.61-7.25-30.2-31.58-30.44-32.5-23-2,15.74-9,23.88-29.21,12-23.77-14-21.93,10.33-33.82,17.83-5.9,3.71-38.49,7.49-44.13,9" fill="none" stroke="#000" stroke-miterlimit="10" stroke-width="9.09"/><path d="M640.84,339.13A19.7,19.7,0,0,1,648,325.07c19.4-16.07,26.35-45.57,17.27-73.41-2.78-8.53-30-54.8-30-54.8l-15.14-69.32a73.36,73.36,0,0,1-19.45-4.62,27.88,27.88,0,0,1-15.88-15.21L579.6,95.48,530.66,65.35,513.8,71.41a22.75,22.75,0,0,1-11.78,1l-55.4-10.2a23.32,23.32,0,0,0-16.92,3.32l-58.65,38.18-6.71.56a28.28,28.28,0,0,0-19.91,10.57l-34,42.84-6.49,4.13a39.9,39.9,0,0,0-14.63,16.55L268,223l2.14,14a18.54,18.54,0,0,1-5.94,16.7l-15.92,14.15L247.1,287.1a28.93,28.93,0,0,1-7.21,17.56l-15.61,17.59s11.81,53.51-1.05,79.45c-3.85,7.79,47.94,42.25,77,35.55,18.3-4.22,55.77-8.28,71.7-6.79a76.67,76.67,0,0,1,15.91,3.74c21,6.53,38.89,9.13,78.5-17.2,26.86-17.85,39.44-17.18,66.25-11.08,22.74,5.25,48.77-8.67,58.78-20.74a8.91,8.91,0,0,1,.78-.84,10.86,10.86,0,0,1,6.22-2.95C624.66,377.9,639.86,357,640.84,339.13ZM365.46,375.24a68.43,68.43,0,0,0-19.56,2.38h0c-22.42,6.28-44.27.9-45.42.66-5.17-1.15,1.21-13.58-2.54-25.21-2.37-7.37-25.15-21.32-8.09-25,.26-.27-4.36-25.87-1.24-34.36,6.51-17.81,44-26.3,55.86-37.59,14.71-14.06,2.54-24.9,14-40,14.89-19.64,24.16-24.71,24.16-24.71C415,238.48,435,317.88,365.46,375.24Zm92-20a166.07,166.07,0,0,0-21,13.41c-16.22,12.08-35.56,11.68-49.2,9.09l-3.22-.6c28.66-27.82,43-63.45,41.6-103.92-1.1-31.34-12-65.23-29.54-92.49a.85.85,0,0,1,.21-1.17,22.06,22.06,0,0,0,8.07-11.34c18.41-58.58,75.52-40.16,77.89-39.32a28.13,28.13,0,0,0,12.56,1.26c13.68-1.79,27.3,7.19,33.71,16.94l.64.92c7.33,10.5,30.77,9.26,29.65,12.79-9,28.33-22.84,57.61-43.77,73.5a38.65,38.65,0,0,0-12.65,17.24,39.86,39.86,0,0,0-1.67,21.55C504.9,295.53,500.81,327.93,457.43,355.27Zm100.79-22.18c-12.19,9.42-24.56,9.8-40.23,10.31a215,215,0,0,0-26,2c25.75-27.85,25.71-57.23,22.5-74.41a26.07,26.07,0,0,1,1-14,25.17,25.17,0,0,1,8.19-11.27c23.92-18.16,47.44-67.45,53.7-58.82,9.82,13.41,14.21,28.71,12.14,41.86-.8,4.92-1.76,11,.74,17.4,7.11,18.14-.13,31-7.46,38.72-.71.74-1.79,1.68-2.94,2.69-4.82,4.23-11.4,10-10.73,17.81C569.87,313.58,568.55,325.1,558.22,333.09Z"/><path d="M228.68,507.44C281.35,543.05,316,615.2,317.24,617.72c-.31-1.57-5.87-32.1,23-77.8s58.78-53.83,60.33-54.23c-2.79,0-82.84-.24-137.67-32.43-27.77-16.31-73.31-62.94-98.46-83.07-17-13.61-52.62-40.08-73.2-47.23-24.65-8.57-66.65-20-83.74,7.05s11.35,60,29.71,78.6c15.31,15.49,54.54,36.25,74.14,45.73C140.31,468.36,202,489.39,228.68,507.44Zm-195-161.35a12,12,0,1,1,3.74,16.49A12,12,0,0,1,33.72,346.09ZM243.56,478.46a12,12,0,1,1,3.73,16.5A12,12,0,0,1,243.56,478.46Z"/><path d="M317.27,617.79v0l0,0c-.31-1.57-5.87-32.1,23-77.8s58.78-53.83,60.33-54.23h.08s5.1,8.46,11.8,18.94c8.41,13.14,19.31,29.47,25.73,36.16,25.62,26.75,89.36,66.69,114.94,93.47,13,13.59,41.08,54,51.46,69.13a3,3,0,0,1-3,4.72c-18.12-2.86-66.69-10.81-84.54-16.68-35.19-11.55-98.68-51.89-133.86-63.49C367.33,622.71,317.27,617.79,317.27,617.79Z" fill="none" stroke="#000" stroke-miterlimit="10" stroke-width="8.5"/><path d="M412.41,504.63l-21.82,23.55a199.19,199.19,0,0,0-39.21,62.29l-11.49,29.12" fill="none" stroke="#000" stroke-miterlimit="10" stroke-width="8.5"/><path d="M604.6,706.72l-103.83-65.5a39.08,39.08,0,0,1-13.21-13.92c-8-14.3-21.87-42.44-17.35-59" fill="none" stroke="#000" stroke-miterlimit="10" stroke-width="8.5"/><rect width="769.91" height="769.91" fill="none"/></svg>