<?xml version="1.0" encoding="UTF-8"?>
<svg id="Livello_1" data-name="Livello 1" xmlns="http://www.w3.org/2000/svg" viewBox="0 0 595.28 841.89">
  <defs>
    <style>
      .cls-1 {
        fill: #d4aa77;
      }

      .cls-1, .cls-2, .cls-3, .cls-4, .cls-5, .cls-6, .cls-7, .cls-8, .cls-9, .cls-10, .cls-11, .cls-12, .cls-13, .cls-14, .cls-15, .cls-16, .cls-17, .cls-18, .cls-19, .cls-20, .cls-21, .cls-22, .cls-23, .cls-24, .cls-25, .cls-26, .cls-27, .cls-28, .cls-29 {
        stroke-width: 0px;
      }

      .cls-2 {
        fill: #3e372b;
      }

      .cls-3 {
        fill: #010101;
      }

      .cls-4 {
        fill: none;
      }

      .cls-5 {
        fill: #cfa773;
      }

      .cls-6 {
        fill: #050506;
      }

      .cls-7 {
        fill: #403830;
      }

      .cls-8 {
        fill: #473e32;
      }

      .cls-9 {
        fill: #874f23;
      }

      .cls-10 {
        fill: #010202;
      }

      .cls-11 {
        fill: #52402e;
      }

      .cls-12 {
        fill: #d0ac82;
      }

      .cls-13 {
        fill: #443b2f;
      }

      .cls-14 {
        fill: #48372b;
      }

      .cls-15 {
        fill: #373338;
      }

      .cls-16 {
        fill: #060707;
      }

      .cls-17 {
        fill: #020303;
      }

      .cls-18 {
        fill: #d1a875;
      }

      .cls-19 {
        fill: #c4a67d;
      }

      .cls-20 {
        fill: #020203;
      }

      .cls-21 {
        fill: #413c32;
      }

      .cls-22 {
        fill: #874d23;
      }

      .cls-23 {
        fill: #6b5220;
      }

      .cls-24 {
        fill: #70340f;
      }

      .cls-25 {
        fill: #654328;
      }

      .cls-26 {
        fill: #caab7c;
      }

      .cls-27 {
        fill: #af8851;
      }

      .cls-28 {
        fill: #6d3310;
      }

      .cls-29 {
        fill: #45362d;
      }
    </style>
  </defs>
  <path class="cls-10" d="M415.39,600.39l5.47-3.65s28.25,21.19,37.83,33.29v31.78s2.52,12.08,2.52,22.2c0,6.56-17.66,31.28-17.66,31.28h-16.14l-9.31-44.25s-4.16-65.73-2.72-70.64Z"/>
  <path class="cls-27" d="M164.45,647.06c-3.66-1.97,69.23,69.01,116.3,104.66,2.39-78.09,3.93-96.12-57.56-172.5,25.05-11.68,45.71-8.84,45.71-8.84l75.05-10.58,52.96-61.64,12.46-110.83,28.81-94.84-73.1-114.36-66.7-20.07-71.3-8.65-39.41,5.41-2.82,48.4-20.53,51.74-22.8,18.55-19.03,55.85,19.03,98.87,30.1,75.94-7.17,142.88Z"/>
  <path class="cls-13" d="M329.68,791.85c1.73,3.46,9.45,10.12,10.83,16.34,1.38,6.22-.69,7.26,7.6,7.6,17.63-2.77,47.7-51.7,47.7-51.7,0,0,8.73,1.79,8.3,0-1.88-7.76-17.45-23.72-29.37-32.6,2.01-5.98-5.27-15.13-9.03-16.53-1-.02-.51-1.09-.51-1.09-.13-.16-6.29-7.43-8.47-8.86-.01.25-16.5.15-16.5.15,0,0-2.33,3.53-2.85,4.13-.83.96-3.14,9.29-3.75,12.36-1.51,15.64-3.92,49.47-3.92,49.47,0,0-3.3,1.03-11.47,1.19-2.33.4-7.37.21-8.87,1.23-.14,1.18,5.25,4.2,8.62,6.62,5.03,3.61,9.27,8.96,11.68,11.68Z"/>
  <path class="cls-24" d="M309.38,171.28c-2.99-2.17-5.64-4.21-7.37-5.81-1.31-1.21-3.01-1.87-4.79-1.91-12.62-.32-50.3-2.14-54.12-5.26-4.17-3.41-11.09-7.12-40.44-.18-.64.15-1.27.37-1.85.67-21.64,11.48-26.31,58.4-27.14,69.99-.12,1.7-.81,3.31-1.95,4.58l-28.48,31.48c-1.69,1.87-10.96,13.76-12.82,12.86-1.86-.9,2.34-15.91,2.75-18.39,1.66-10.13,3.42-17.82,3.93-24.26,1.74-8.41-4.96-19.09-16.42.44-24.89,38.71-20.88,39.51-20.88,39.51l16.94,114.83,12.4,68.49c.14.78.4,1.53.78,2.23l19.11,35.74c.67,1.25.97,2.66.88,4.07l-3.43,53.82c-.17,2.6,1,5.1,3.1,6.63l27.84,20.37c1.79,1.31,2.92,3.33,3.09,5.54l4.71,59.38c.57,7.23-8.33,11.1-13.21,5.74-9.94-10.91-21.9-24.4-26.08-30.58-.91-1.34-1.19-2.94-1.16-4.56.07-4.84-10.99-8.34-16.32-3.93-.5.41-1.14.32-1.78.24-.93-.12-2.99,6.02-10.69,6.81-.4,0-.81.01-1.22.02-6.04-.22-4.41,2.89-14.17-6.07-.8-.73-1.73-1.33-2.77-1.65-3.71-1.14-4.85,1.63-13.16-.08-.38-.05-.76-.1-1.14-.15-5.64-.3-11.11-.81-17.62-1.17-2.71-.15-5.07-1.77-6.38-4.14-1.15-2.09-2.91-3.43-8.47-7.01-1.61-1.04-2.8-2.65-3.31-4.5-.23-.84-.43-1.63-.61-2.35-.66-2.65-2.68-4.73-5.31-5.46-4.57-1.25-11.38-3.29-13.4-4.8-3.13-2.35-15.21.79-17.47-2.09-3.4-3.4-1.58-15.91-1.8-21.07-.51-4.04-6.44-3.52-6.44-18.33-.23-5.72-3.42-7.54,12.17-10.17,1.22-.21,2.39-.69,3.38-1.44,12.86-9.71-.4-14.79-5.45-15.76-2.19.7-3.53-3.51-4.05-7.53-.46-3.61,1.74-7.04,5.21-8.13,14.9-4.69,37.25-12.3,42.23-15.88,5.58-4.01-4.86-53.94-6.99-72.05-2.13-18.11-2.07-22.36-4.92-53.34-3.59-38.98-14.81-76.44-15.05-78.97-1.81-18.93-.78-21.47-.75-29.37,0-.54,1.16-3.85,1.37-5.16.71-4.33,4.22-14.07,2.83-9.9-1.57,4.72,1.3-9.43,1.63-11.05.02-.1.01-.21.04-.31,17.43-59.21,24.09-66.36,33.97-76.75.43-.46.61-1.07.65-1.7.38-5.45,15.31-17.05,18.86-22.47,12.94-19.71,19.17-28.37,28.49-37.52.25-.24.53-.46.82-.65,14.19-8.85,4.58-2.53,16.29-13.79,1.14-1.09,3.29-2.45,4.76-3.01,9.02-3.4,7.6-1.62,12.36-3.9.16-.08.33-.18.48-.3,9.31-7.33,17.3-9.64,17.3-9.64.27-.12.54-.22.82-.33,2.1-.76,11.66-4.17,22.84-7.42,5.04-1.66,2.43-1.16,32.75-8.68l.76-.15c15.88-2.4,24-3.13,31.03-7.65.64-.41,5.92-1.08,6.68-1.1,7.92-.23,49.01-2.15,82.61,1.24,15.12.84,24.09,2.1,53.22,5.37,1.7.19,6.32,2.82,6.76,3.03,31.35,14.93,33.54,29.78,43.35,37.91,9.69,8.03,8.99-3.87,23.62,20.2.59.97.97,2.04,1.12,3.16,3.54,26.55,1.15,18.02,11.31,41.33,8.73,20.05,2.75,104.74.65,130.88-.34,4.25-4.1,7.38-8.34,6.96l-41.97-4.14c-2.63-.26-4.93-1.86-6.09-4.23l-59.96-122.51c-1.87-3.83-6.53-5.39-10.32-3.43-5.85,3.03-16.28,9.35-34.8,22.44-.68.48-1.92.68-2.76.71-.19,0-.31.12-.36.32-1.46,5.54-7.26,8.56-11.9,5.2Z"/>
  <path class="cls-4" d="M216.27,518.59s28.5,1.39,50.75,0"/>
  <path class="cls-5" d="M296.21,519.21c15.99,11.9,20.16,13.29,18.77,20.24-1.39,6.95-38.24,20.16-44.49,18.77-6.26-1.39-31.98-13.21-43.1-26.42l-11.12-13.21s61.18-1.54,79.95.62Z"/>
  <path class="cls-14" d="M401.94,604.75v159.65l42.68-45.04s-.56-2.72-1.07-4.09h-16.14s-5.88-32.17-8.07-42.63c-1.97-14.88-3.96-72.27-3.96-72.27,0,0-13.44-3.45-13.44-7.73s0,12.1,0,12.1Z"/>
  <path class="cls-23" d="M443.56,715.28c1.26-3.28,14.88-27.49,14.88-27.49,0,0,5.55-5.55,5.55,1.01s-19.36,30.57-19.36,30.57l-1.07-4.09Z"/>
  <path class="cls-5" d="M216.19,518.59s7.14,9.13,11.19,13.29c6.4,6.58,14.17,12.51,22.84,17.25,1.28.7,11.96,6.27,13.76,6.9,1.8.63,3.42,1.56,6.72,2.28,3.3.72,49-11.86,44.09-22.58-1.74-3.79.79-1.1-4.74-6.32-2.85-2.69-13.76-10.52-13.76-10.52l-80.11-.31Z"/>
  <path class="cls-5" d="M223.2,579.22s22.65,27.81,37.93,58.92c12.29,31.51,16.61,50.13,16.61,50.13,0,0,5.29,24.97,3.01,63.45,1.45,1.45,28.63,22.14,28.63,22.14,0,0,10.38-2.56,20.34-2.42l2.81-39.33s.42-13.95,4.94-22.65c0,0,6.14-8.08,20.69-2.01,3.52,1.47,7.24,6.3,7,7.05-.12.39.16.77.56.77h9.03s-9.28-41.58-17.99-58.04c-19.91-34.01-87.56-64.95-133.56-78.02Z"/>
  <path class="cls-25" d="M401.94,604.75l-7.38-.71-45.57-22.04-39.02-12.37s-18.5-2.09-26.15-2.09c-8.4,1.9-2.05.69-14.92,2.84-13.52-1.33-32.48,2.11-45.71,8.84,7.93,2.52,118.9,34.9,139.62,107.58,5.9,13.06,7.4,17.47,11.93,28.47h-9.03s.86-.95,5.32,5.56c4.46,6.51,3.71,10.97,3.71,10.97,0,0,4.98,2.74,17.54,16.45,12.56,13.71,9.66,13.37,9.66,13.37v-156.87Z"/>
  <path class="cls-8" d="M67.52,355.57s-6.54-8.47-9.65-5.07c-1.01,6.05-1.85,16.13.84,28.4,2.69,12.27,4.84,15.93,8.03,28.36,3.19,12.44,3.23,2.56,6.25,28.77,0,0-1.18,14.12-1.01,21.85.17,7.73,2.03,23.95-7.04,43.55-9.06,19.6-20.53,56.94-19.36,60.37,1.76,3.43,35.54,16.38,35.54,16.38,0,0,23.09,11.36,41.19,16.93,8.64,2.66,11.82,4.55,16.63.57,4.82-3.98,3.58-12-10.04-43.22-13.62-31.22-23.41-53.53-25.6-64.67.23-11.35-4.05-16.01,1.15-30.22,1.29-3.51,7.51-14.21,2.31-43.69-1.4-7.96-39.26-58.31-39.26-58.31Z"/>
  <path class="cls-9" d="M90.25,187.03v-18.31s16.24-40.85,35.51-50.49c9.99-4.99,38.03-16.85,46.05-7.77,8.32,9.43,6.1,23.3,6.1,23.3,0,0-58.26,52.15-72.68,56.59-14.43,4.44-14.98-3.33-14.98-3.33Z"/>
  <path class="cls-9" d="M213.11,124.91s70.71,25.35,83.05,29.02c12.34,3.67,17.01-1.67,17.01-1.67l12.34-18.68s-20.16-24.35-63.37-24.35c-10.67,0-32.69-2-40.36,2.67-7.67,4.67-8.67,13.01-8.67,13.01Z"/>
  <path class="cls-22" d="M302.14,98.18c5.16,2.19,43.97,21.58,49.55,21.07,6.2-.57,16.78-.94,18.8-3.29,1.66-1.93-3.93-12.6-17.71-23.14-8.68-6.64-29.43-14.31-31.15-14.79-17.65-4.99-64.78-15.78-96.83.25-3.31,1.66-67.19,26.51-9.19,28.85,9.4.38,27.59-10.75,42.92-12.59,22.39-2.69,41.69,2.81,43.61,3.63Z"/>
  <path class="cls-29" d="M171.16,306.28c11.11-10.21,12.96-20.81,23.84-24.54,5.55-4.65,43.26-7.39,56.96,3.73,4.25,7.04.09,10.6-5.46,19.38-5.55,8.78-3.7,7.86-7.39,14.33-2.09,4.55-10.35,15.66-12.01,15.49-3.68,1.03-25.42,1.33-31.43,0-6.01-1.33-37.62-4.39-37.62-4.39,0,0-2.94.29-3.87-10.59.96-5.13,16.98-13.4,16.98-13.4Z"/>
  <path class="cls-6" d="M164.57,317.8c-1.52-1.51,12.57-6.29,23.39-12.55,10.82-6.25,13.55-12.75,22.37-12.75h36.79s3.27.31,2.79,1.75c-.48,1.44-2.07,2.58-3.75,4.26-1.68,1.68-9.35,4.62-10.51,5.53-1.16.92-6.08,9.38-11.13,12.5-3.61,3.13-7.42,8.9-17.9,9.14-10.48.24-21.3-4.81-30.68-6.25-9.38-1.44-9.85-.13-11.37-1.64Z"/>
  <path class="cls-26" d="M269.58,492.64s9.1.3,18.71-.21c3.5,0,6.42-.97,13.23-1.68,5.24-.55,12.78-.94,24.66-.62,2.25-.11,1.6,7.56-5.62,7.73-1.52.18-1.37.14-5.63.42-13.1.88-41.91.88-43.03-.75-3.4-1.24-2.32-4.89-2.32-4.89Z"/>
  <path class="cls-16" d="M296.66,416.26c.72-1.33,6.65-5.7,12.55-10.37,3.89-3.08,6.71-6.15,9.28-8.63,2.23-2.45,5.07-3.81,4.85.87.35,2.7,1.11,20,.67,20.12-.77.22-28.15-.01-27.34-1.99Z"/>
  <path class="cls-18" d="M159.6,284.97s-4.42,18.61,1.67,12.41c6.08-6.2,10.35-21.71,19.27-28.3,8.53-3.1,40.32-10.08,54.66-22.87,14.34-12.79,7.89-17.89,3.63-21.38-4.26-3.49-6.73-11.57-1.69-22.04,5.76-6.2,10.08-17.06-6.98-28.3,0,0-15.8,5.89-17.16,8.62-1.61,2.31.03,13.25-4.1,28.45,0,0-3.03,18.21-11.31,34.93-1.39,2.81-24.77,10.55-30.41,24.28-2.7,3.43-7.56,14.2-7.56,14.2Z"/>
  <path class="cls-7" d="M152.55,536.63c-.38,7.71-4.85,24.04-4.17,30.18.98,2.46,2.25,3.97,8.59,4.1,3.67.64,14.17,11.55,14.17,11.55,0,0,.16,28.62,3.51,34.63,3.59,3.6,8.89,2.76,8.89,2.76l-2.45-104.25s.54-25.58-12.25-53.08c-13.61-28.85-25.86-70.22-29.94-84.38-2.18-22.05-16.75-55.05,6.02-95.55.62-3.1,3.36-7.64,5.04-10.07,1.68-2.43,9.35-9.74,12.17-10.91,2.83-1.17,8.07-5.7,12.32-11.03,4.05-5.08,7.67-10.03,10.9-14.76,1.27-5.24,2.51-10.55,3.71-15.94,2.3-10.26,4.37-20.33,6.23-30.19-.15-1.09-1.29-10.3,5.41-16.87,3.95-3.87,8.59-4.84,10.48-5.12,1.81.29,19.38,2.95,26.78-1.04,1.39-.75,4.29-2.35,4.89-5.17.2-.92.12-1.98-.39-3.21-2.96-6.59-28.16-4.97-37.01-2.09-8.85,2.89-19.38,9.95-26.42,36.67-2.17,8.13-6.17,38.49-6.17,38.49l-41.91,46.32c-.95,1.29-3.77,5.18-6.09,9.31-2.32,4.13-5.22,8.38-5.22,8.38,0,0-4.54,18.5-5.36,21.98-2.35,28.42,1.14,43.2,5.14,54.49,1.93,4.13,4.66,15.07,4.66,15.07,0,0,4.58,21.95,5.45,26.03,1.32,6.21,1.45,12.34,2.53,25.88,1.08,13.54,6.45,33.32,6.45,33.32,0,0,22.56,22.09,23.89,24.58,1.33,2.49,2.46,7.29-.02,12.46-2.17,2.17.07,1.96-4.39,3.12-3.85,1-3.35,3.63-3.35,3.63,0,0-1.58,10.85-2.07,20.7Z"/>
  <path class="cls-3" d="M103.49,263.48s-5.03,8.68-5.1,9.86c-.59,9.6,1.93,25.31.61,35.77,0,36.32-.95,50.43,8.38,83.45,8.68,25.76,14.16,35.12,12.01,48.16-.9,4.05-3.33,9.18-3.33,9.18,0,0-1.17,1.87-2.17,7.29,2.13,1.14-6.96,5.51-7.31,8.17-.35,2.66-2.44,16.66,0,18.19,2.44,1.53,23.34,2.24,31.52,6.48,0,4.43.95,80.86,3.41,80.51,2.46-.36,3.4-1.85,4.67.51,0,9.49,2.23,11.92,2.23,11.92.88,1.74,12.92-5.49,8.56-12.04-8.92-1.48-8.59-4.1-8.59-4.1-.13-12.11,5.02-15.67,6.23-50.88,1.82-3.64,2.48-2.08,6.68-4.68,4.21-2.59,2.25-7.63,1.96-12.66,0-5.96-19.96-18.31-21.75-25.46-4.07-11.3-8.86-17.46-10.23-44.44-1.36-26.99-8.37-47.98-13.81-65.22-5.44-17.23-2.81-43.1.12-57.9,2.93-14.8,13.34-27.89,13.34-27.89,0,0,2.03-6.34,3.89-23.15,2.58-13.59,4.68-26.04,2.15-29.95-1.44-2.23-7.87-2.18-13.67,5.99-7.81,10.99-21.04,32.81-19.82,32.91Z"/>
  <path class="cls-1" d="M164.45,366.31s25.79-14.8,55.7-16.62c8.93,0,16.59-2.44,22.79-9.22,6.2-6.79,19.15-18.32,19.46-31.36.31-13.05,1.74-16.98,4.82-20.06,2.2-1.71,15.73-8.21,16.42,13.68.68,21.89-4.1,53.01,0,58.48,4.1,5.47,6.84,4.58,10.6,2.63,3.76-1.95,6.16-8.45,8.55-8.45,2.01,3.59,6.18,19.42,4.38,23.91-1.8,4.49-12.77,19.98-15.59,21.14-6.03.64-32.34,0-32.34,0l-.55,13.08,25.53,7.25v12.81l-21.42,12.81-33,15.92s-2.99-5.29,2.84-15.58c4.65-5.83,15.09-22.24,17.33-28.41,3.75-4,6.14-18.42,6.14-18.42,0,0-8.82,2.8-10.64-.28,0,0-6.3-5.18-.7-11.2,2.94-2.38,8.95-3.92,8.95-3.92,0,0,.7-8.4,0-10.78-.7-2.37-7.2-2.79-20.75,7.17-13.54,9.96-18.12,14.06-29.02,18.97-15.06,9.07-32.55,3.35-34.28,3.58-3.77,0-16.74-17.72-5.21-37.13Z"/>
  <path class="cls-19" d="M318.94,423.4c14.18-3.36,26.31-3.36,26.31,0,2.61,6.72-20.15,13.99-29.85,16.42-3.39.85-6.81,1.67-14.93,2.99-15.08,2.44-37.68,3.59-37.68,3.59l20.14-14.03s31.54-8.29,36.01-8.96Z"/>
  <path class="cls-12" d="M274.63,453.15s-10.92,3.8-6.65,7.84c6.65,2.37,12.82,2.41,25.88,1.32,8.1,0,12.18.97-2.47,2.14,0,0-15.19,2.42-14.73,5.46.47,3.04-.42,3.19,6.25,4.58,9.58,1.11,5.41-2.36,19.99-6.38s16.35-2.67,20.12-8.19c3.61-5.27,2.36-11.85-4.86-11.52,0,0-37.43,3.37-43.53,4.76s0,0,0,0Z"/>
  <path class="cls-21" d="M337.8,259.74s-30.19-1.1-25.46,1.91c-8.21,14.71-20.17,23.82-19.9,57.66,6.23,37.02,11.68,37.67,11.68,37.67,0,0,6.26,20.2,3.05,22.32-6.55,10.62-13.37,19.26-15.59,21.14-4.9.87-24.59.15-32.34,0l-.55,13.08,25.53,7.25v11.25l35.55-8.87s30.15-6.75,25.25,2.95c-3.02,6.62-27.95,14.13-34.13,14.78-22.24,4.35-48.1,5.51-48.1,5.51,0,0-9.31,4.5-18.76,9.05-9.53,4.59-19.56,8.35-16.34,10.1,2,1.25,4.62,1.03,6,1.26,8.27-.08,8.27-1.01,11.39-2.01,3.12-1,22.62-11.27,22.62-11.27l51.31-5.14s9.48,0,4.46,10.83c0,0-2.15,3.58-5.09,5.07-7.61,1.83-8.24,2.1-8.24,2.1,0,0-6.22,1.43-12.2,3.31-5.11,2.41-27.84,18.83-27.84,18.83,0,0-1.52,4.41,5.82,2.66,29.73-1.25,50.26-1.04,50.26-1.04,0,0,3.9.54-1.2,6.3,17.47-1.31,23.97-14.54,25.34-17.76,1.37-3.21,16.25-38.08,16.25-38.08,0,0,13.15-25.57-36.55-53.25-2.17,0-2.98-63,1.76-63.35,4.75-.35,73.42-.28,75.46-.15,2.04.13,4.16,11.61,4.16,11.61,0,0,2.88,15.94-5.6,36.05-4.69,13.72-18.39,58.98-17.25,118.52,0,0-3.09,1.08-7.68,8.85-4.59,7.78-6.88,14.99-22.61,37.93-15.73,22.94-34.12,22.94-34.12,22.94l-40.31,7.81s44.49,1.11,107.72,35.64c6.68,1.57,1.43,1.64,10.4,1.57.29-25.53,5.8-162.54,5.8-162.54l30.44-87.27s5.37-7.12,5.37,19.28c4.64,0,5.94.34,5.94.34v8.09s4.31,17.52,8.29,21.03v46.62s-31.83,27.02-21.22,54.71c14.48,16.66,24.96,10.28,24.96,10.28,7.01-5.8,12.61-9.61,12.61-9.61,0,0,13.74-27.9,20.68-33.46,2.78-4.45,13.26,2.47,13.26,2.47,0,0-2.19-6.97-1.2-44.53,0,0,17.64-.31,19.53-5.03-1.26-6.8,4.69-159.14-27.2-250.64-31.88-91.49-75.52-105.24-84.07-104.65-6.89,11.34-9.78,8.82,35.9,62.18,27.92,54.18,44.84,80.13,20.09,123.15-31.49,53.95-60.1-41.84-60.1-41.84,0,0-34.13-70-45.15-73.4-11.02-3.39-30.1,18.65-30.1,18.65-.8-.28-14.01,7.86-19.08,8.48-9.1,3.39,20.35,19.5,29.68,39,1.7,9.75,8.39,32.93,1.5,39.54-6.89,6.61-10.08,14.13-10.08,14.13Z"/>
  <path class="cls-2" d="M404.1,536.69l-.78,21.67s16.63,0,33.26,11.46l2.36-2.81s21.53,11.78,43.74,5.28c6.39-.17,21.94-9.51,21.94-9.51,0,0,8.41-.85,7.36,7.5-1.27,2.14,13.78-25.2,28.29-43.73,4.24-5.42,34.44-28.51,43.61-37.44,5.83-5.68,4.27-8.76,4.27-8.76h4.82s.58-19.65-3.83-26.64c-7.35-7.09-28.26-1.73-33.41-3.81-2.19-.88,1.41-3-9.19-7.2-.76-3.16,5.82-5.67-3.45-13.78-7.97-2.82-5.74.02-9.6-1.9-3.85-1.92,2.1-3.97-7.1-2.71-.31,2.54-1.1,2.14-12.82,5.36-3.97.42-6.71.45-6.71.45,0,1.72-.18,4.08-.13,5.69.38-1.96.72-4.12,1.7-4.36.38.11.82.45,1.65,1.38.73,1.01,4.69,5.89,6.96,9.35,2.27,3.46,4.92,7.66,5.06,8.4.15.74-.42.65,1.84,2.48,2.27,1.83,2.73,1.63,3.97,1.75.95.05,1.13-.65,1.83-.74s1.9-.49,8.09,9.91c4.7,8.57,3.86,9.38,7.87,9.88s17.87.9,20.77-.53c4.56-6.19,6.56-6.94,6.56-6.94,0,0,2.73-1.59,4,.57.61,1.3.88,1.68,1.69,6.28.18,2.34.38,4.53.4,5.36-.5.52-4.68,7.69-10.29,12.6-21.11,20.86-27.06,24.59-27.06,24.59,0,0-2.6,3-7.58,1.9-4.99-1.1-34.05-2.28-34.05-2.28,0,0-4.94,9.2,1.64,21.98,1.37,2.89,1,2.05,1,2.05,0,0,.28-1.67.16,4.91-.12,6.59.88,13.34-7.21,13.76-3.62-.87-8.87,4.66-8.87,4.66,0,0-5.55,7.24-22.9,3.48-4.15-.59-8.74-.38-14.43-2.57-11.95-3.91-37.69-11.25-45.46-27Z"/>
  <path class="cls-17" d="M403.6,533.21c-.84,17.51,44.53,33.49,60.4,33.05,22.7,5.11,21.56-6.54,30.37-7.91,8.82-1.36,9.05-3.12,8.44-18.91-4.25-7.94-3.29-24.57-2.65-24.03.65.53,35.02,2.4,35.02,2.4,0,0,3.43,3.78,21.29-14.08,20.94-19.91,22.68-25.13,22.68-25.13,0,0-.19-11.29-3.11-12.65-4.09-1.36-9.54,7.4-9.54,7.4,0,0-19.47,2.92-23.94-.78-8.45-15.87-11.48-19.85-13.63-18.1-2.14,1.75-7.4-3.11-6.81-3.7.58-.58-12.41-20.12-13.82-19.27-3.49,1.47-2.12,38.54-2.12,38.54,0,0-1.82,3.04-5.36-1.44-6.54-2.61-25.72,30.42-27.35,33.15-6.17,3.68-8.4,11.43-13.77,12.83-5.37,1.4-28.23,0-24.27-25.43,0-13.77,11.91-29.95,22.88-37.18,2.4-4.58,0-52.55-.65-52.99-.65-.44-5.25,4.77-7.87-25.1-5.73-.68-5.44-1.94-5.44-1.94,0,0,.81-7.87-.05-13.49-.11-.73-2.02.13-1.51-.58-.85-4.52-2.09-7.9-3.85-5.89-22.09,32.37-39.9,86.07-35.35,181.22Z"/>
  <path class="cls-20" d="M347.19,177.47l12.17,22.5s33.11,37.49,44.29,55.13c11.17,17.64,18.1,21.61,18.69,26.97.59,5.35-8.1,14.2-8.1,14.2,0,0,1.76,12.99-1.18,20.58-2.94,7.59-6.47.69-8.82-6.42-.75-2.26-8.72-3.08-19.27-3.15-6.04,2.58-35.14,2.06-48.72,2.15-5.76.14-7.15,1.53-7.15,1.53,0,0-3.34,10.99-6.77,12.73-6.62.59-8.09-6.56-8.21-13.25,1.75-11.99,11.17-20.29,22.21-28.76,6.9-5.29,15.72-11.9,19.12-12.13,8.82-.59,7.03,3.2,7.03,4.96s-11.76,0-11.76,6.47c-.73.77-1.55,10.18-.33,11.84,1.22,1.66,17.73-.26,22.44-.19.37,0,6.99-.44,12.7-1.69,7.41-1.62,14.34-4.12,15-4,3.19-4.32,4.3-4.2-3.93-21.25-8.23-17.06-28.82-38.23-41.76-50.58-12.94-12.35-34.78-46.55-32.76-48.87-.29,1.02-1.18-.45,6.02-4.02,3.63-2.73,17.22-12.52,16.89-12.78,1.98,1.96,4.77,4.67,2.89,7.11-1.87,2.44-1.25,5.15-5.83,5.57-4.58.42-2.71,4.79-1.46,7.49,2.71,1.87,6.59,7.86,6.59,7.86Z"/>
  <path class="cls-15" d="M467.43,579.96s25.7-1.28,35.5-4.5c9.8-3.21,9.01-6.47,9.01-6.47,0,0,.81-5.22-5.19-6.15-6.72-1.03-14.2,9.35-26.72,9.66-12.52.31-30.85-2.14-41.08-5.5l-3.67,4.36s7.51,6.43,32.16,8.59Z"/>
  <path class="cls-11" d="M179.51,619.29s-.66,12.13,0,18.59c.66,6.46-4.06-4.62-4.76-9.29-.45-3.03-.68-8.2-.79-11.47-.06-1.78-.08-2.99-.08-2.99,0,0-.58,4.32,5.62,5.17Z"/>
  <path class="cls-28" d="M451.97,296.09s-2.07,58.54,0,63.72c2.07,5.18,10.88,3.11,13.47,10.36,2.59,7.25,3.1,73.53,8.29,72.01,12.43-3.63,33.16-9.84,33.16-9.84,0,0-7.9-142.08-21.76-145.58-22.66-5.72-33.16,9.33-33.16,9.33Z"/>
</svg>