<svg xmlns="http://www.w3.org/2000/svg" viewBox="0 0 985.69 193.16"><path d="M34.64,193.16l-2-5.51,1.71-.63a18.75,18.75,0,0,0,7-4.3q2.67-2.7.53-8.48l-24-65q-2.13-5.78-5.93-6.16a18.05,18.05,0,0,0-8.14,1.21l-1.7.63L0,99.4,29.94,88.33l54.94,65.08-.83-85.07L113.2,57.57l2,5.52-1.71.63a17.4,17.4,0,0,0-7,4.46q-2.53,2.8-.26,9L129.84,141q2.28,6.17,6,6.65a17.38,17.38,0,0,0,8.22-1.18l1.7-.63,2,5.52-34.93,12.91-2-5.52.4-.15a14.25,14.25,0,0,0,6.16-3.91q2-2.37.24-7.85L91.76,76.69l.93,95-7.09,2.62-61.38-72.4L49.6,170.62q2.28,6.18,5.38,6.89c2.07.49,4.59.17,7.57-.93l.39-.14L65,182Z" fill="#372c43"/><path d="M179.33,144.89q-9,2.49-16.44-1.13t-10.43-14.7q-3-10.8,3.24-18t21.58-12l11.09-3.49-2.23-8.1A42.07,42.07,0,0,0,183,79.05a10.32,10.32,0,0,0-5.13-4.9c-2.19-1-5.13-.91-8.82.1q-5.13,1.43-7.31,4a9.25,9.25,0,0,0-2.15,6.18,30.59,30.59,0,0,0,1.23,7.87c-3.78,1-6.82,1.18-9.11.4S147.81,90.07,147,87a9.78,9.78,0,0,1,1.23-8.47A21.15,21.15,0,0,1,155.9,72a55.81,55.81,0,0,1,11.8-4.63q12.41-3.42,20,.15T198.83,83.9l9.63,35c1,3.78,2.37,6.17,4,7.18s4,1.08,7,.23l.41-.11,1.56,5.67-18.22,5-5.36-11-1.08.3a83.27,83.27,0,0,1-3.69,8.2,21.23,21.23,0,0,1-5,6.32A22.61,22.61,0,0,1,179.33,144.89Zm.79-9.22q8.24-2.26,11.7-8.67t1.09-15l-3-10.93-8.53,2.79q-11.33,3.69-14.58,9t-1,13.29Q169.19,138.69,180.12,135.67Z" fill="#372c43"/><path d="M228.93,128.85l-1.07-5.78,1.79-.33A15.27,15.27,0,0,0,237,119.6q2.64-2.26,1.44-8.74l-8-42.94c-.75-4-2.23-6.42-4.46-7.15a15.89,15.89,0,0,0-7.87-.25l-.42.08-1.07-5.78,21.61-4,3.86,10.82.69-.13a26.74,26.74,0,0,1,4.45-9,17.48,17.48,0,0,1,6.21-4.93,31.79,31.79,0,0,1,7.8-2.44,25.71,25.71,0,0,1,12.5.6c3.93,1.21,7.19,4,9.78,8.22l1.1-.2a25,25,0,0,1,4.66-9.06,19.28,19.28,0,0,1,6.62-5,35.41,35.41,0,0,1,8-2.48q10.6-2,17.71,3.34T331.35,60l6,32.48q1.2,6.48,4.48,7.64a15.22,15.22,0,0,0,8,.31l.41-.08,1.07,5.78-23.95,4.45-8.81-47.49q-1.65-9-5.81-13.31t-12.14-2.87Q295,48,292.1,51.42a15.77,15.77,0,0,0-3.43,8.4,35.13,35.13,0,0,0,.45,10.45l5.59,30.15q1.2,6.47,4.48,7.64a15.33,15.33,0,0,0,8,.3l.41-.07,1.07,5.78-23.95,4.44L275.87,71q-1.67-8.94-5.81-13.3t-12.14-2.87q-5.93,1.09-8.86,4.84a17.5,17.5,0,0,0-3.5,9.12,39.24,39.24,0,0,0,.53,11.3l5.39,29c.75,4,2.34,6.38,4.79,7a18.94,18.94,0,0,0,8.21.11l.41-.08L266,122Z" fill="#372c43"/><path d="M356.67,105.46l-.45-5.86,1.81-.14a15.3,15.3,0,0,0,7.62-2.34c1.91-1.32,2.69-4.16,2.35-8.54L364.64,45q-.48-6.14-3.68-7.58a15.85,15.85,0,0,0-7.8-1.08l-.42,0-.46-5.86,21.92-1.69L376.89,40l.69,0A26.83,26.83,0,0,1,383,31.47a17.63,17.63,0,0,1,6.69-4.24,31.87,31.87,0,0,1,8-1.6,25.7,25.7,0,0,1,12.37,1.92q5.65,2.44,8.85,9.21l1.12-.08a25,25,0,0,1,5.59-8.51,19.24,19.24,0,0,1,7.11-4.27A34.51,34.51,0,0,1,441,22.28q10.76-.83,17.25,5.2t7.62,20.4l2.55,32.94c.33,4.38,1.55,7.07,3.64,8.08A15.25,15.25,0,0,0,479.89,90l.42,0,.45,5.86-24.29,1.88-3.72-48.16q-.71-9.08-4.37-13.84T436.62,31.6q-5.73.45-8.92,3.57a15.68,15.68,0,0,0-4.3,8,35,35,0,0,0-.67,10.44l2.36,30.57q.51,6.56,3.65,8.07a15.34,15.34,0,0,0,7.88,1.15l.42,0,.45,5.87-24.29,1.87-3.72-48.15q-.71-9.07-4.37-13.85T393.35,35q-6,.46-9.32,3.88a17.5,17.5,0,0,0-4.46,8.7,39.34,39.34,0,0,0-.67,11.28l2.28,29.45c.32,4.1,1.65,6.59,4,7.49a18.79,18.79,0,0,0,8.15,1l.42,0,.45,5.86Z" fill="#372c43"/><path d="M511.21,98.25q-9.39-.15-15.45-5.71t-5.89-17q.18-11.2,8.18-16.39t24.1-5.49l11.63-.23.13-8.4a42.16,42.16,0,0,0-.69-8.9,10.34,10.34,0,0,0-3.54-6.15c-1.85-1.52-4.68-2.32-8.51-2.38-3.55-.06-6.26.55-8.15,1.83a9.22,9.22,0,0,0-3.79,5.33,30.66,30.66,0,0,0-1,7.89c-3.92-.06-6.87-.79-8.86-2.17s-2.95-3.67-2.9-6.84A9.78,9.78,0,0,1,500,25.82a21.17,21.17,0,0,1,9.24-4.13,56.3,56.3,0,0,1,12.62-1.12q12.87.21,19.16,5.77t6.06,18.86l-.59,36.26q-.09,5.88,1.83,8c1.29,1.42,3.51,2.15,6.69,2.21h.42l-.1,5.88-18.9-.3-2-12.08-1.12,0A84.15,84.15,0,0,1,527.41,92a21,21,0,0,1-6.59,4.65A22.56,22.56,0,0,1,511.21,98.25Zm3.36-8.63q8.53.13,13.66-5t5.27-14.13l.18-11.33-9,.27q-11.91.38-16.53,4.56t-4.75,12.46Q503.23,89.44,514.57,89.62Z" fill="#372c43"/><path d="M601,99.45l.6-5.85,1.81.18a18.74,18.74,0,0,0,8.17-.79c2.38-.83,3.79-3.29,4.2-7.38l7-68.39q.68-6.54-2.5-8.62A17.33,17.33,0,0,0,612.34,6l-1.81-.18.6-5.85,70.19,7.14-1.78,24.45-7.24-.74-.09-6.06a15.68,15.68,0,0,0-2.46-8.34q-2.37-3.69-8.63-4.33l-23.4-2.38L634,46.79l33.56,3.42L666.82,57l-33.57-3.41L629,95.26,655.89,98q6.55.66,9.89-2.45a15.45,15.45,0,0,0,4.51-7.63L671.87,82l7.24.74L675.66,107Z" fill="#372c43"/><path d="M683,108.43l.9-5.81,1.8.28a22.43,22.43,0,0,0,5.84.19,7.18,7.18,0,0,0,4.53-2.2q1.85-1.9,2.52-6.2l11.5-74.15c.43-2.77.21-4.9-.64-6.4a7.45,7.45,0,0,0-3.74-3.27,24.22,24.22,0,0,0-5.51-1.5l-1.8-.27.91-5.81,26.14,4.05L711.56,96.71q-.66,4.29.52,6.67a7.25,7.25,0,0,0,3.71,3.48,22.44,22.44,0,0,0,5.57,1.57l1.8.28-.9,5.81Z" fill="#372c43"/><path d="M746.17,55.88q-.6-4.71-2.43-6.58c-1.22-1.26-3.29-2.18-6.21-2.79l1.19-5.76L773,47.85,771.8,53.6,770,53.24q-8.22-1.71-9.59,4.87a11.31,11.31,0,0,0-.21,2.39,23.68,23.68,0,0,0,.26,2.91l4,27.84q.87,5.48,1.42,11.8c.36,4.23.62,7.59.76,10.1a69,69,0,0,1,4.61-7.77q3.33-5,6.14-9.59l15.4-24.69a15.74,15.74,0,0,0,1.63-3,16,16,0,0,0,.82-2.61q.75-3.57-1.19-5.61c-1.29-1.36-3.45-2.36-6.46-3l-1-.2,1.19-5.76L817.14,57,816,62.74l-1.65-.34q-4-.82-6.39.82t-6.24,7.72L768.2,123.49l-12.47-2.59Z" fill="#372c43"/><path d="M804.19,131.54l1.48-5.69,1.76.46a24,24,0,0,0,5.65.82,7.49,7.49,0,0,0,4.73-1.51q2.07-1.56,3.09-5.49l11.2-42.95q1.06-4.07,0-6.43a7.42,7.42,0,0,0-3.39-3.63,23.27,23.27,0,0,0-5.33-2L823,65l1.48-5.69,24.25,6.32-14.9,57.17c-.73,2.8-.79,5-.16,6.69a7.19,7.19,0,0,0,3.34,3.83,22.13,22.13,0,0,0,5.38,2.13l1.76.46-1.48,5.69Zm41.15-81.29a8.43,8.43,0,0,1-5-3.32q-1.74-2.49-.54-7.09t4-6a8.69,8.69,0,0,1,6-.4,8.78,8.78,0,0,1,4.94,3.25q1.83,2.43.59,7.17t-4,5.9A8.56,8.56,0,0,1,845.34,50.25Z" fill="#372c43"/><path d="M847.86,142.87l1.74-5.62.4.13a17.37,17.37,0,0,0,8.27.72q3.74-.67,5.68-7l12.9-41.74q1.81-5.88-1-8.5a18.26,18.26,0,0,0-7.2-4l-.4-.13L870,71.18l20.59,6.36-1.55,14,.67.21a66,66,0,0,1,6-6.2,15.63,15.63,0,0,1,7-3.63q3.94-.9,9.83.92,7.36,2.26,10.12,5.91A8.76,8.76,0,0,1,924,97.1a9.35,9.35,0,0,1-5,5.93q-3.71,1.78-10.39-.28,1.7-5.49.86-8.46t-4.72-4.17a8.34,8.34,0,0,0-7.19,1,22.17,22.17,0,0,0-6.33,6.25,56.87,56.87,0,0,0-5.06,8.77,69.23,69.23,0,0,0-3.38,8.55l-6.49,21q-1.81,5.9,1,8.44a18.84,18.84,0,0,0,7.22,3.91l3.74,1.16-1.73,5.62Z" fill="#372c43"/><path d="M931.61,171.75q-8.79-3.3-12.64-10.57t.17-18q3.93-10.5,13.21-12.7t24.54,2.92l11,3.68,3-7.86a41.59,41.59,0,0,0,2.33-8.62,10.34,10.34,0,0,0-1.27-7c-1.22-2.06-3.63-3.75-7.21-5.1-3.32-1.24-6.09-1.58-8.29-1a9.26,9.26,0,0,0-5.37,3.75,30.78,30.78,0,0,0-3.62,7.08q-5.51-2.05-7.62-5c-1.4-2-1.55-4.44-.43-7.41a9.78,9.78,0,0,1,6-6.14A21.3,21.3,0,0,1,955.44,99a55.91,55.91,0,0,1,12.26,3.17q12.06,4.53,16.11,11.87t-.62,19.8l-12.72,34c-1.37,3.67-1.7,6.39-1,8.16s2.58,3.21,5.55,4.32l.4.15-2.07,5.51-17.69-6.63,2.12-12.06-1.05-.4a86.84,86.84,0,0,1-7.8,4.48,21.19,21.19,0,0,1-7.77,2.17A22.53,22.53,0,0,1,931.61,171.75Zm6.06-7q8,3,14.56-.16t9.7-11.53l4-10.62-8.54-2.75Q946,136,940.27,138.44t-8.65,10.14Q927,160.76,937.67,164.75Z" fill="#372c43"/></svg>