<?xml version="1.0" encoding="utf-8"?>
<!-- Generator: Adobe Illustrator 25.4.1, SVG Export Plug-In . SVG Version: 6.00 Build 0)  -->
<svg version="1.1" id="Layer_1" xmlns="http://www.w3.org/2000/svg" xmlns:xlink="http://www.w3.org/1999/xlink" x="0px" y="0px"
	 viewBox="0 0 46.7 29" style="enable-background:new 0 0 46.7 29;" xml:space="preserve">
<style type="text/css">
	.st0{opacity:0.4;}
	.st1{fill:#372C43;}
	.st2{fill:#107652;}
	.st3{fill:#C02D18;}
	.st4{fill:#3F689D;}
	.st5{fill:#EE8DA8;}
</style>
<g class="st0">
	<path class="st1" d="M0,16.9v-0.5h0.2c0.2,0,0.5,0,0.7-0.1c0.2-0.1,0.3-0.3,0.3-0.7V9.6C1.1,9.3,1,9.1,0.9,9
		C0.6,8.9,0.4,8.8,0.2,8.8H0V8.3h2.7l2.5,6.9l2.5-6.9h2.7v0.5h-0.1c-0.2,0-0.5,0-0.7,0.1C9.3,9.1,9.2,9.3,9.2,9.7v5.8
		c0,0.4,0.1,0.6,0.3,0.7c0.2,0.1,0.5,0.2,0.7,0.1h0.1v0.5H7.2v-0.5l0,0c0.2,0,0.4,0,0.6-0.1C7.9,16.1,8,15.9,8,15.6V9.2l-2.7,7.7
		H4.7L1.9,9.2v6.3c0,0.4,0.1,0.6,0.2,0.7c0.2,0.1,0.4,0.2,0.6,0.1l0,0v0.5H0z"/>
	<path class="st1" d="M13.3,17c-0.5,0-1-0.1-1.3-0.5c-0.4-0.4-0.6-0.9-0.5-1.4c0-0.6,0.2-1.1,0.7-1.4c0.6-0.4,1.3-0.5,2.1-0.5h1
		v-0.7c0-0.3,0-0.5-0.1-0.8c0-0.2-0.1-0.4-0.3-0.5C14.6,11,14.4,11,14.1,11c-0.2,0-0.5,0-0.7,0.2c-0.2,0.1-0.3,0.3-0.3,0.5
		C13,11.8,13,12.1,13,12.3c-0.3,0-0.5,0-0.8-0.2C12.1,12,12,11.7,12,11.5c0-0.3,0.1-0.5,0.3-0.7c0.2-0.2,0.5-0.3,0.8-0.4
		c0.4-0.1,0.7-0.1,1.1-0.1c0.6,0,1.2,0.1,1.6,0.5c0.4,0.4,0.6,1,0.6,1.6v3.1c0,0.2,0,0.5,0.2,0.7c0.2,0.1,0.4,0.2,0.6,0.2l0,0v0.5
		h-1.6l-0.2-1h-0.1c-0.2,0.2-0.3,0.4-0.5,0.6c-0.2,0.2-0.3,0.3-0.6,0.4C13.9,17,13.6,17,13.3,17z M13.6,16.3c0.4,0,0.9-0.1,1.2-0.4
		c0.3-0.3,0.5-0.8,0.4-1.2v-1h-0.8c-0.5,0-1,0.1-1.4,0.4c-0.3,0.3-0.4,0.7-0.4,1.1C12.6,15.9,13,16.3,13.6,16.3L13.6,16.3z"/>
	<path class="st1" d="M18,16.9v-0.5h0.2c0.2,0,0.5,0,0.7-0.1c0.2-0.1,0.3-0.3,0.3-0.7v-3.8c0-0.4-0.1-0.6-0.3-0.7
		C18.6,11,18.4,11,18.2,11l0,0v-0.5H20l0.1,1h0.1c0.1-0.3,0.3-0.5,0.5-0.7c0.2-0.1,0.4-0.3,0.6-0.3c0.2-0.1,0.5-0.1,0.7-0.1
		c0.4,0,0.7,0.1,1,0.2c0.3,0.2,0.6,0.5,0.7,0.8h0.1c0.1-0.3,0.3-0.5,0.5-0.7c0.2-0.1,0.4-0.3,0.6-0.3c0.2-0.1,0.5-0.1,0.7-0.1
		c0.5,0,1.1,0.2,1.4,0.6c0.4,0.5,0.6,1.1,0.5,1.8v2.8c0,0.4,0.1,0.6,0.3,0.7c0.2,0.1,0.4,0.2,0.7,0.1l0,0v0.5h-2v-4.2
		c0-0.4-0.1-0.8-0.3-1.2c-0.2-0.3-0.6-0.5-1-0.4c-0.3,0-0.6,0.1-0.8,0.2c-0.2,0.2-0.3,0.4-0.4,0.6C24,12.3,24,12.6,24,12.9v2.6
		c0,0.4,0.1,0.6,0.3,0.7c0.2,0.1,0.4,0.2,0.7,0.1l0,0v0.5h-2v-4.1c0-0.4-0.1-0.8-0.3-1.2c-0.2-0.3-0.6-0.5-1-0.4
		c-0.3,0-0.6,0.1-0.8,0.3c-0.2,0.2-0.4,0.4-0.4,0.7c-0.1,0.3-0.1,0.7-0.1,1v2.5c0,0.4,0.1,0.6,0.3,0.7c0.2,0.1,0.5,0.1,0.7,0.1l0,0
		v0.5L18,16.9z"/>
	<path class="st1" d="M29.4,16.9v-0.5h0.2c0.2,0,0.5,0,0.7-0.1c0.2-0.1,0.3-0.3,0.3-0.7v-3.8c0-0.4-0.1-0.6-0.3-0.7
		C30,11,29.8,11,29.6,11l0,0v-0.5h1.9l0.1,1h0.1c0.1-0.3,0.3-0.5,0.5-0.7c0.2-0.1,0.4-0.3,0.6-0.3c0.2-0.1,0.5-0.1,0.7-0.1
		c0.4,0,0.7,0.1,1,0.2c0.3,0.2,0.6,0.5,0.7,0.8h0.1c0.1-0.3,0.3-0.5,0.5-0.7c0.2-0.1,0.4-0.3,0.6-0.3c0.2-0.1,0.5-0.1,0.7-0.1
		c0.5,0,1.1,0.2,1.4,0.6c0.4,0.5,0.6,1.1,0.5,1.8v2.8c0,0.4,0.1,0.6,0.3,0.7c0.2,0.1,0.4,0.2,0.7,0.1l0,0v0.5H38v-4.2
		c0-0.4-0.1-0.8-0.3-1.2c-0.2-0.3-0.6-0.5-1-0.4c-0.3,0-0.6,0.1-0.8,0.2c-0.2,0.2-0.4,0.4-0.4,0.6c-0.1,0.3-0.1,0.6-0.1,0.9v2.6
		c0,0.4,0.1,0.6,0.3,0.7c0.2,0.1,0.4,0.2,0.7,0.1l0,0v0.5h-2v-4.1c0-0.4-0.1-0.8-0.3-1.2c-0.2-0.3-0.6-0.5-1-0.4
		c-0.3,0-0.6,0.1-0.8,0.3c-0.2,0.2-0.4,0.4-0.4,0.7c-0.1,0.3-0.1,0.7-0.1,1v2.5c0,0.4,0.1,0.6,0.3,0.7c0.2,0.1,0.5,0.1,0.7,0.1l0,0
		v0.5L29.4,16.9z"/>
	<path class="st1" d="M42.9,17c-0.5,0-1-0.1-1.3-0.5c-0.4-0.4-0.6-0.9-0.5-1.4c0-0.6,0.2-1.1,0.7-1.4c0.6-0.4,1.3-0.5,2.1-0.5h1
		v-0.7c0-0.3,0-0.5-0.1-0.8c0-0.2-0.1-0.4-0.3-0.5c-0.4-0.2-1-0.2-1.4,0c-0.2,0.1-0.3,0.3-0.3,0.5c-0.1,0.2-0.1,0.5-0.1,0.7
		c-0.3,0-0.5,0-0.8-0.2c-0.2-0.1-0.3-0.4-0.3-0.6c0-0.3,0.1-0.5,0.3-0.7c0.2-0.2,0.5-0.3,0.8-0.4c0.4-0.1,0.7-0.1,1.1-0.1
		c0.6,0,1.2,0.1,1.7,0.5c0.4,0.4,0.6,1,0.5,1.6v3.1c0,0.2,0,0.5,0.2,0.7c0.2,0.1,0.4,0.2,0.6,0.2l0,0v0.5h-1.6l-0.2-1h-0.1
		c-0.2,0.2-0.3,0.4-0.5,0.6c-0.2,0.2-0.3,0.3-0.5,0.4C43.5,17,43.2,17,42.9,17z M43.2,16.3c0.4,0,0.9-0.1,1.2-0.4
		c0.3-0.3,0.4-0.8,0.4-1.2v-1H44c-0.5,0-1,0.1-1.4,0.4c-0.3,0.3-0.4,0.7-0.4,1.1C42.2,15.9,42.6,16.3,43.2,16.3L43.2,16.3z"/>
	<path class="st1" d="M0,28.9v-0.5h0.2c0.2,0,0.5,0,0.7-0.1c0.2-0.1,0.3-0.3,0.3-0.7v-5.9c0-0.4-0.1-0.6-0.3-0.7
		c-0.2-0.1-0.5-0.2-0.7-0.1H0v-0.5h6.1l0.1,2.1H5.5l-0.1-0.5c0-0.3-0.1-0.5-0.3-0.7c-0.2-0.2-0.5-0.3-0.8-0.3h-2v3.2h2.9v0.6H2.3
		v3.6h2.3c0.3,0,0.6-0.1,0.8-0.3c0.2-0.2,0.3-0.4,0.3-0.7l0.1-0.5h0.6l-0.1,2.1H0z"/>
	<path class="st1" d="M7.4,28.9v-0.5h0.2c0.2,0,0.3,0,0.5-0.1c0.1,0,0.3-0.1,0.4-0.2c0.1-0.2,0.1-0.4,0.1-0.5v-6.4
		c0-0.2,0-0.4-0.1-0.5c-0.1-0.1-0.2-0.2-0.4-0.2c-0.2,0-0.3,0-0.5,0H7.4v-0.5h2.3v7.8c0,0.2,0,0.4,0.1,0.5c0.1,0.1,0.2,0.2,0.4,0.2
		c0.2,0,0.3,0.1,0.5,0.1h0.2v0.5L7.4,28.9z"/>
	<path class="st1" d="M12.2,23.6c-0.1-0.2-0.2-0.4-0.3-0.5c-0.2-0.1-0.4-0.1-0.6-0.1v-0.5h3V23h-0.1c-0.5,0-0.7,0.2-0.7,0.6
		c0,0.1,0,0.1,0,0.2c0,0.1,0,0.2,0.1,0.2l0.8,2.3c0.1,0.3,0.2,0.6,0.3,1l0.2,0.8c0.1-0.2,0.2-0.5,0.2-0.7l0.4-0.9l0.9-2.3
		c0-0.1,0.1-0.2,0.1-0.3c0-0.1,0-0.2,0-0.2c0-0.2-0.1-0.3-0.2-0.5c-0.2-0.1-0.3-0.2-0.5-0.2h-0.1v-0.5h2.6V23H18
		c-0.2,0-0.4,0.1-0.5,0.2c-0.2,0.2-0.3,0.5-0.4,0.8l-1.9,5h-1.1L12.2,23.6z"/>
	<path class="st1" d="M18.8,28.9v-0.5h0.2c0.2,0,0.3,0,0.5,0c0.1,0,0.3-0.1,0.4-0.2c0.1-0.2,0.1-0.3,0.1-0.5v-3.8
		c0-0.2,0-0.4-0.1-0.5c-0.1-0.1-0.2-0.2-0.4-0.2c-0.2,0-0.3-0.1-0.5-0.1l0,0v-0.5H21v5.1c0,0.2,0,0.4,0.1,0.5
		c0.1,0.1,0.2,0.2,0.4,0.2c0.2,0,0.3,0.1,0.5,0.1h0.1v0.5L18.8,28.9z M20.4,21.3c-0.4-0.1-0.7-0.5-0.7-0.9c0-0.1,0.1-0.3,0.2-0.4
		c0.3-0.2,0.7-0.2,1,0c0.3,0.3,0.3,0.8,0,1.1C20.8,21.2,20.6,21.3,20.4,21.3z"/>
	<path class="st1" d="M23,28.9v-0.5l0,0c0.2,0,0.5,0,0.7-0.1c0.2-0.1,0.3-0.3,0.3-0.7v-3.8c0-0.4-0.1-0.6-0.3-0.7
		C23.5,23,23.2,23,23,23l0,0v-0.5h1.9l0.2,1.2h0.1c0.1-0.2,0.2-0.4,0.3-0.7c0.1-0.2,0.3-0.4,0.5-0.5c0.3-0.1,0.5-0.2,0.8-0.2
		c0.3,0,0.7,0.1,1,0.2c0.2,0.1,0.3,0.4,0.3,0.6c0,0.2-0.1,0.5-0.2,0.6c-0.2,0.2-0.6,0.3-0.9,0.2c0-0.2,0-0.5-0.1-0.7
		c-0.1-0.2-0.3-0.3-0.5-0.2c-0.2,0-0.4,0.1-0.6,0.3c-0.2,0.2-0.3,0.4-0.4,0.7c-0.1,0.3-0.2,0.6-0.2,0.9c0,0.3-0.1,0.5-0.1,0.8v1.9
		c0,0.4,0.1,0.6,0.3,0.7c0.2,0.1,0.5,0.1,0.7,0.1h0.3v0.5L23,28.9z"/>
	<path class="st1" d="M31,29c-0.5,0-1-0.1-1.3-0.5c-0.4-0.4-0.6-0.9-0.5-1.5c0-0.6,0.2-1.1,0.7-1.4c0.6-0.3,1.3-0.5,2-0.5h1v-0.7
		c0-0.3,0-0.5-0.1-0.8c0-0.2-0.1-0.4-0.3-0.5C32.2,23,32,22.9,31.7,23c-0.2,0-0.5,0-0.7,0.2c-0.2,0.1-0.3,0.3-0.3,0.5
		c-0.1,0.2-0.1,0.5-0.1,0.7c-0.3,0-0.5,0-0.8-0.2c-0.2-0.1-0.3-0.4-0.3-0.6c0-0.3,0.1-0.5,0.3-0.7c0.2-0.2,0.5-0.3,0.8-0.4
		c0.4-0.1,0.7-0.1,1.1-0.1c0.6,0,1.2,0.1,1.6,0.5c0.4,0.4,0.6,1,0.6,1.6v3.1c0,0.2,0,0.5,0.2,0.7c0.2,0.1,0.4,0.2,0.6,0.2l0,0v0.5
		h-1.6l-0.2-1h-0.1c-0.2,0.2-0.3,0.4-0.5,0.6c-0.2,0.2-0.3,0.3-0.6,0.4C31.5,29,31.3,29,31,29z M31.3,28.3c0.4,0,0.9-0.1,1.2-0.5
		c0.3-0.3,0.5-0.8,0.4-1.2v-1h-0.8c-0.5,0-1,0.1-1.4,0.4c-0.3,0.3-0.4,0.7-0.4,1.1C30.3,27.9,30.6,28.3,31.3,28.3L31.3,28.3z"/>
</g>
<rect x="12" class="st2" width="10" height="5"/>
<rect x="0" class="st3" width="10" height="5"/>
<rect x="24" class="st4" width="10" height="5"/>
<rect x="36" class="st5" width="10" height="5"/>
</svg>
