<svg xmlns="http://www.w3.org/2000/svg" viewBox="0 0 46.71 29.01"><g opacity="0.4"><path d="M0,16.89v-.5H.16a1.67,1.67,0,0,0,.69-.14c.19-.09.29-.31.29-.66V9.65c0-.36-.1-.58-.29-.68a1.67,1.67,0,0,0-.69-.14H0v-.5H2.74l2.48,6.86L7.68,8.33h2.66v.5h-.15a1.51,1.51,0,0,0-.7.15c-.19.1-.29.34-.29.71v5.84c0,.37.1.61.29.71a1.51,1.51,0,0,0,.7.15h.15v.5H7.15v-.5h0a1.2,1.2,0,0,0,.61-.13.72.72,0,0,0,.25-.63V9.23L5.3,16.89H4.66L1.87,9.25v6.28c0,.37.08.61.23.71a1.14,1.14,0,0,0,.64.15h0v.5Z" fill="#372c43"/><path d="M13.32,17A1.88,1.88,0,0,1,12,16.54a1.8,1.8,0,0,1-.53-1.45,1.58,1.58,0,0,1,.68-1.41,4,4,0,0,1,2.06-.51l1,0v-.72a3.45,3.45,0,0,0-.07-.76.92.92,0,0,0-.31-.53,1.22,1.22,0,0,0-.73-.19,1.22,1.22,0,0,0-.7.17.8.8,0,0,0-.32.46,2.76,2.76,0,0,0-.08.68,1.43,1.43,0,0,1-.76-.17.67.67,0,0,1-.26-.59.83.83,0,0,1,.3-.67,1.67,1.67,0,0,1,.78-.36,4.58,4.58,0,0,1,1.08-.12,2.48,2.48,0,0,1,1.65.47,2,2,0,0,1,.55,1.61v3.11a1,1,0,0,0,.17.68.75.75,0,0,0,.57.18h0v.5H15.48l-.19-1h-.1c-.17.23-.33.42-.49.6a1.85,1.85,0,0,1-.56.4A1.91,1.91,0,0,1,13.32,17Zm.28-.74a1.54,1.54,0,0,0,1.16-.45,1.68,1.68,0,0,0,.43-1.22v-1l-.77,0a2.25,2.25,0,0,0-1.41.41,1.39,1.39,0,0,0-.39,1.07C12.62,15.9,13,16.27,13.6,16.27Z" fill="#372c43"/><path d="M18,16.89v-.5h.16a1.29,1.29,0,0,0,.66-.15c.18-.1.26-.34.26-.71V11.78c0-.35-.09-.57-.26-.67a1.34,1.34,0,0,0-.66-.15h0v-.5H20l.15,1h.06a2.3,2.3,0,0,1,.52-.69,1.44,1.44,0,0,1,.6-.31,2.5,2.5,0,0,1,.69-.09,2.14,2.14,0,0,1,1.05.25,1.47,1.47,0,0,1,.69.84h.1a2.32,2.32,0,0,1,.53-.69,1.65,1.65,0,0,1,.64-.31,2.82,2.82,0,0,1,.71-.09,1.86,1.86,0,0,1,1.44.56,2.55,2.55,0,0,1,.52,1.79v2.84c0,.37.08.61.26.71a1.29,1.29,0,0,0,.66.15h0v.5H26.59V12.75a2.19,2.19,0,0,0-.28-1.21,1.08,1.08,0,0,0-1-.43,1.17,1.17,0,0,0-.79.25,1.41,1.41,0,0,0-.42.65,3.14,3.14,0,0,0-.12.89v2.63c0,.37.08.61.26.71a1.29,1.29,0,0,0,.66.15h0v.5H22.87V12.75a2.19,2.19,0,0,0-.28-1.21,1.07,1.07,0,0,0-1-.43,1.19,1.19,0,0,0-.82.27,1.56,1.56,0,0,0-.44.71,3.32,3.32,0,0,0-.13,1v2.54c0,.35.1.57.29.66a1.67,1.67,0,0,0,.69.14h0v.5Z" fill="#372c43"/><path d="M29.41,16.89v-.5h.16a1.29,1.29,0,0,0,.66-.15c.18-.1.26-.34.26-.71V11.78c0-.35-.09-.57-.26-.67a1.34,1.34,0,0,0-.66-.15h0v-.5h1.89l.15,1h.06a2.3,2.3,0,0,1,.52-.69,1.44,1.44,0,0,1,.6-.31,2.56,2.56,0,0,1,.69-.09,2.14,2.14,0,0,1,1.05.25,1.47,1.47,0,0,1,.69.84h.1a2.32,2.32,0,0,1,.53-.69,1.65,1.65,0,0,1,.64-.31,2.82,2.82,0,0,1,.71-.09,1.86,1.86,0,0,1,1.44.56,2.55,2.55,0,0,1,.52,1.79v2.84c0,.37.09.61.26.71a1.29,1.29,0,0,0,.66.15h0v.5H38V12.75a2.19,2.19,0,0,0-.28-1.21,1.07,1.07,0,0,0-1-.43,1.13,1.13,0,0,0-.78.25,1.27,1.27,0,0,0-.42.65,2.82,2.82,0,0,0-.13.89v2.63c0,.37.08.61.26.71a1.29,1.29,0,0,0,.66.15h0v.5H34.27V12.75A2.19,2.19,0,0,0,34,11.54a1.08,1.08,0,0,0-1-.43,1.19,1.19,0,0,0-.82.27,1.56,1.56,0,0,0-.44.71,3.32,3.32,0,0,0-.13,1v2.54c0,.35.1.57.29.66a1.67,1.67,0,0,0,.69.14h0v.5Z" fill="#372c43"/><path d="M42.94,17a1.92,1.92,0,0,1-1.34-.47,1.83,1.83,0,0,1-.52-1.45,1.57,1.57,0,0,1,.67-1.41,4,4,0,0,1,2.06-.51l1,0v-.72a3.41,3.41,0,0,0-.08-.76.87.87,0,0,0-.31-.53,1.49,1.49,0,0,0-1.42,0,.75.75,0,0,0-.32.46,2.35,2.35,0,0,0-.08.68,1.4,1.4,0,0,1-.76-.17.67.67,0,0,1-.26-.59.86.86,0,0,1,.29-.67,1.75,1.75,0,0,1,.79-.36,4.58,4.58,0,0,1,1.08-.12,2.5,2.5,0,0,1,1.65.47,2,2,0,0,1,.55,1.61v3.11a1,1,0,0,0,.16.68.77.77,0,0,0,.58.18h0v.5H45.1l-.2-1h-.09c-.17.23-.34.42-.5.6a1.81,1.81,0,0,1-.55.4A2,2,0,0,1,42.94,17Zm.27-.74a1.55,1.55,0,0,0,1.17-.45,1.73,1.73,0,0,0,.43-1.22v-1l-.77,0a2.25,2.25,0,0,0-1.41.41,1.39,1.39,0,0,0-.39,1.07C42.24,15.9,42.56,16.27,43.21,16.27Z" fill="#372c43"/><path d="M0,28.89v-.5H.16a1.67,1.67,0,0,0,.69-.14c.19-.09.29-.31.29-.66v-5.9c0-.37-.1-.61-.29-.71a1.47,1.47,0,0,0-.69-.15H0v-.5H6.05l.06,2.1H5.48l-.06-.52a1.32,1.32,0,0,0-.28-.69.9.9,0,0,0-.77-.29h-2v3.19H5.24v.59H2.35v3.58H4.67A1,1,0,0,0,5.49,28a1.37,1.37,0,0,0,.32-.69l.08-.52h.63l-.09,2.1Z" fill="#372c43"/><path d="M7.44,28.89v-.5H7.6a1.83,1.83,0,0,0,.49-.06.61.61,0,0,0,.36-.25.93.93,0,0,0,.13-.55V21.09a.86.86,0,0,0-.14-.53.63.63,0,0,0-.36-.23,1.86,1.86,0,0,0-.48,0H7.44v-.51H9.71v7.76a.93.93,0,0,0,.13.55.61.61,0,0,0,.36.25,1.93,1.93,0,0,0,.49.06h.16v.5Z" fill="#372c43"/><path d="M12.2,23.6a1,1,0,0,0-.32-.51,1,1,0,0,0-.57-.13v-.5h3V23h-.15c-.48,0-.72.2-.72.58a1.65,1.65,0,0,0,0,.21,1.68,1.68,0,0,0,.08.24l.81,2.26c.11.3.22.62.33,1l.24.83a5.78,5.78,0,0,1,.25-.73l.35-.91.86-2.34a1.09,1.09,0,0,0,.08-.28,1.12,1.12,0,0,0,0-.24.54.54,0,0,0-.2-.45A1,1,0,0,0,15.7,23h-.09v-.5h2.57V23H18a.71.71,0,0,0-.53.19,2.7,2.7,0,0,0-.39.75l-1.89,5h-1.1Z" fill="#372c43"/><path d="M18.75,28.89v-.5h.16a2.46,2.46,0,0,0,.49-.05.72.72,0,0,0,.36-.23.85.85,0,0,0,.13-.52V23.78a.84.84,0,0,0-.13-.53A.66.66,0,0,0,19.4,23a1.88,1.88,0,0,0-.49-.06h0v-.5H21v5.07a1,1,0,0,0,.13.55.61.61,0,0,0,.37.25,1.88,1.88,0,0,0,.49.06h.15v.5Zm1.66-7.63a.81.81,0,0,1-.49-1.32.78.78,0,0,1,1,0,.89.89,0,0,1,0,1.15A.71.71,0,0,1,20.41,21.26Z" fill="#372c43"/><path d="M23,28.89v-.5h0a1.47,1.47,0,0,0,.69-.15c.19-.1.29-.34.29-.71V23.78c0-.35-.1-.57-.29-.67A1.52,1.52,0,0,0,23,23h0v-.5h1.85l.22,1.19h.07a5.08,5.08,0,0,1,.33-.66,1.27,1.27,0,0,1,.48-.47,1.62,1.62,0,0,1,.83-.18,1.71,1.71,0,0,1,1,.23.75.75,0,0,1,.31.65.79.79,0,0,1-.25.61,1.26,1.26,0,0,1-.86.24,1.27,1.27,0,0,0-.15-.71.52.52,0,0,0-.49-.23.71.71,0,0,0-.56.27,1.94,1.94,0,0,0-.36.67,4.58,4.58,0,0,0-.19.85,5.77,5.77,0,0,0-.06.78v1.89c0,.35.09.57.29.66a1.67,1.67,0,0,0,.69.14h.34v.5Z" fill="#372c43"/><path d="M31,29a1.88,1.88,0,0,1-1.33-.47,1.84,1.84,0,0,1-.53-1.45,1.58,1.58,0,0,1,.68-1.41,4,4,0,0,1,2-.51l1,0v-.72a3.45,3.45,0,0,0-.07-.76.92.92,0,0,0-.31-.53,1.24,1.24,0,0,0-.74-.19,1.21,1.21,0,0,0-.69.17.8.8,0,0,0-.32.46,2.76,2.76,0,0,0-.08.68,1.43,1.43,0,0,1-.76-.17.67.67,0,0,1-.26-.59.83.83,0,0,1,.3-.67,1.71,1.71,0,0,1,.78-.36,4.58,4.58,0,0,1,1.08-.12,2.48,2.48,0,0,1,1.65.47A2,2,0,0,1,34,24.42v3.11a1,1,0,0,0,.17.68.75.75,0,0,0,.57.18h0v.5H33.12l-.19-1h-.1c-.17.23-.33.42-.49.6a1.85,1.85,0,0,1-.56.4A1.94,1.94,0,0,1,31,29Zm.27-.74a1.55,1.55,0,0,0,1.17-.45,1.68,1.68,0,0,0,.43-1.22v-1l-.77,0a2.25,2.25,0,0,0-1.41.41,1.39,1.39,0,0,0-.39,1.07C30.26,27.9,30.59,28.27,31.23,28.27Z" fill="#372c43"/></g><rect x="12.01" width="10" height="5" fill="#4fb692"/><rect x="0.01" width="10" height="5" fill="#3f689d"/><rect x="24.01" width="10" height="5" fill="#ea5436"/><rect x="36.01" width="10" height="5" fill="#ee8da8"/></svg>