<svg xmlns="http://www.w3.org/2000/svg" viewBox="0 0 64.24 86.61">
  <path
    d="M63.66,31.61c1.74,1.89-.91,3.31-1.69,3.8s-.65,1.13,0,2-.13,1.87-1,2.32.13.27.33.58a1.45,1.45,0,0,1-.65,2.35c-.8.22-.63,2.51-.6,2.77A3,3,0,0,1,56.63,49C56,48.86,50,47.94,48.5,47.81s-2.92,1.39-3.38,2.41-4.54,10.27-5.06,11.39a4.47,4.47,0,0,0-.64,2.22c0,.85-.07,4.26.68,5.64,1.4,2.58,3.36,6,3.36,6-2.37,7.27-18.71,3.2-18.63,2.19h0c-.39-8.08-12.58-7.29-17.71-7.76a35.55,35.55,0,0,0,7.77-8c1.15-1.7,1.66-2.9,2-3.44a21.66,21.66,0,0,0,1.92-5.09l.06-.25A27.41,27.41,0,0,1,6.52,49.7a6.66,6.66,0,0,0,2.74-1,25.5,25.5,0,0,1-5-5c.17.06,10.91,3.55,11.25-17.29.34-21,10.45-24.11,14.22-25.34,11-3.58,16.16,3,16.16,3a17.85,17.85,0,0,1,3.62.15,10,10,0,0,1,3.68,1.26,6.42,6.42,0,0,1,2.14,2.07c2.38,3.78,1.06,5.5,3.5,5.58-.33,1.07-1,1-1.8,1.06,3.24,5.29,1.86,10.23,2.34,11.36A22.67,22.67,0,0,0,63.66,31.61Z"
    fill="#eae3d8" />
  <path
    d="M49.49,4.2l-.11,0-.2.1,0,0L49,4.46,47.81,5l-.16.09-.49.24-.33.17q-.26.12-.51.27l-.22.11-.73.38-.23.13-.71.38L44.11,7l-.36.2-.31.17c-1.95,1.09-4.09,2.37-6.12,3.76l-.35.23-.3.21-.42.31L36,12c-.66.48-1.3,1-1.91,1.47l-.24.19-.8.68-.25.23a2.73,2.73,0,0,0-.25.23l-.09.08-.26.24c-.09.1-.19.19-.28.28l-.22.22-.15.16-.43.46-.16.19-.14.16-.17.21-.2.25,0,.06a2.35,2.35,0,0,0-.19.25l-.16.23-.09.13-.15.24-.15.24c-1.32,2.25-2.14,6.43-2.54,9a15.06,15.06,0,0,0-.3,2.16v0c.09-9.09.35-11.24,4.89-16.08,3-3.16,7-6.34,14.12-9.24A17.85,17.85,0,0,1,49.49,4.2Z"
    fill="#4eb591" />
  <path
    d="M53.17,5.46C49.46,6.9,37.64,11.82,31.8,18.09a19,19,0,0,0-4.64,9.1c.4-2.57,1.22-6.75,2.54-9l.15-.24.15-.24.09-.13.16-.23a2.35,2.35,0,0,1,.19-.25l0-.06.2-.25.17-.21.14-.16.16-.19.43-.46.15-.16.22-.22c.09-.09.19-.18.28-.28l.26-.24.09-.08a2.73,2.73,0,0,1,.25-.23l.25-.23.8-.68.24-.19c.61-.5,1.25-1,1.91-1.47l.22-.15.42-.31.3-.21.35-.23c2-1.39,4.17-2.67,6.12-3.76l.31-.17.36-.2.32-.17.71-.38.23-.13.73-.38.22-.11q.26-.15.51-.27l.33-.17.49-.24L47.81,5,49,4.46l.18-.09,0,0,.2-.1.11,0A10,10,0,0,1,53.17,5.46Z"
    fill="#ea5436" />
  <path
    d="M55.31,7.53l-2.16.7c-17.48,6-25.53,14.62-26.29,21.14v0c0-.14.12-1,.3-2.16a19,19,0,0,1,4.64-9.1C37.64,11.82,49.46,6.9,53.17,5.46A6.42,6.42,0,0,1,55.31,7.53Z"
    fill="#ed8ca7" />
  <path
    d="M48,78.43c-.16.31-.34.63-.55,1-1.36,2.09-4,4.39-8.88,5.2a25.26,25.26,0,0,1-3.94.3,36.11,36.11,0,0,1-6.35-.61,27,27,0,0,1-4-1,10.59,10.59,0,0,1-1.8-.8,5.51,5.51,0,0,1-3-4.63c0-.74-.49-2.14-10-2.58-1,0-2-.09-2.85-.17L2,74.64l-.93-.09A16.46,16.46,0,0,1,2.72,73l1,.09,3.08.28c.82.08,1.76.12,2.77.17a36,36,0,0,1,8.54,1.1c2,.64,3.1,1.63,3.17,3.21A3.72,3.72,0,0,0,23.34,81a10,10,0,0,0,1.51.67,26.24,26.24,0,0,0,3.74,1,33.84,33.84,0,0,0,6,.58,22.66,22.66,0,0,0,3.64-.28c4.57-.75,6.8-2.91,7.89-4.77.14-.25.27-.5.38-.73C47,77.71,47.48,78.06,48,78.43Z"
    fill="#ed8ca7" />
  <path
    d="M46.51,77.38c-.11.23-.24.48-.38.73-1.09,1.86-3.32,4-7.89,4.77a22.66,22.66,0,0,1-3.64.28,33.84,33.84,0,0,1-6-.58,26.24,26.24,0,0,1-3.74-1A10,10,0,0,1,23.34,81a3.72,3.72,0,0,1-2.07-3.13c-.07-1.58-1.17-2.57-3.17-3.21a36,36,0,0,0-8.54-1.1c-1-.05-1.95-.09-2.77-.17l-3.08-.28-1-.09c.67-.57,1.38-1.1,2-1.55h0l.67.06L7,71.62c.78.07,1.71.12,2.69.16,6.91.32,13.13,1,13.41,5.9,0,1.46,1.68,2.06,2.41,2.31a24.69,24.69,0,0,0,3.47.9,31.56,31.56,0,0,0,5.66.55A21.31,21.31,0,0,0,38,81.18c4.14-.68,6-2.61,6.87-4.36.07-.14.13-.28.19-.42C45.45,76.68,46,77,46.51,77.38Z"
    fill="#ea5436" />
  <path
    d="M45,76.4c-.06.14-.12.28-.19.42C44,78.57,42.09,80.5,38,81.18a21.31,21.31,0,0,1-3.36.26,31.56,31.56,0,0,1-5.66-.55,24.69,24.69,0,0,1-3.47-.9c-.73-.25-2.41-.85-2.41-2.31-.28-4.88-6.5-5.58-13.41-5.9-1,0-1.91-.09-2.69-.16l-1.53-.14-.67-.06h0c1.31-.92,2.37-1.52,2.37-1.52,5.13.47,17.32-.32,17.71,7.76h0c-.08,1,16.26,5.08,18.63-2.19C43.46,75.47,44.09,75.83,45,76.4Z"
    fill="#4eb591" />
  <circle cx="40.53" cy="34.72" r="1.33" fill="#ed8ca7" />
</svg>