<svg xmlns="http://www.w3.org/2000/svg" viewBox="0 0 361.21 487.02"><path d="M358,177.74c9.78,10.64-5.12,18.59-9.48,21.38s-3.69,6.36,0,11.13-.71,10.51-5.45,13,.75,1.52,1.88,3.27c4.17,6.48.82,12-3.69,13.2s-3.54,14.15-3.35,15.61c2.49,20.21-15.7,20.8-19.47,20.11s-37.29-5.91-45.69-6.62-16.45,7.81-19,13.53-25.55,57.77-28.5,64-3.7,9.11-3.55,12.48c.22,4.8-.43,24,3.79,31.75,7.87,14.49,18.88,33.72,18.88,33.72-13.33,40.87-105.2,18-104.76,12.3h0c-2.16-45.41-70.72-41-99.56-43.59C62.94,375.14,76,359.63,83.74,348.15c6.47-9.52,9.33-16.26,11.24-19.33,4.09-6.56,7.85-17.92,10.78-28.64.13-.46.25-.92.37-1.38-38.45-.76-68.75-18.9-69.47-19.34A37.85,37.85,0,0,0,52.09,274a146.47,146.47,0,0,1-28.27-28.23c1,.32,61.38,20,63.27-97.24C89,30.31,145.84,13,167,6c61.75-20.15,90.88,16.74,90.88,16.74a100,100,0,0,1,20.33.88A55.71,55.71,0,0,1,299,30.71a36,36,0,0,1,12,11.64c13.39,21.23,6,30.91,19.7,31.35-1.88,6-5.87,5.37-10.16,6,18.25,29.78,10.5,57.54,13.17,63.91C340.58,159.93,355.56,175.14,358,177.74Z" fill="#372c43"/><path d="M278.25,23.64l-.59.28-1.12.53-.21.11-1,.5c-1.86.9-4,2-6.46,3.18l-.94.47-2.73,1.38c-.61.31-1.23.62-1.85.95-.94.47-1.91,1-2.9,1.49l-1.19.62q-2,1-4.11,2.17L253.8,36c-1.3.69-2.62,1.41-4,2.14l-1.81,1-2,1.09-1.78,1c-10.95,6.12-23,13.32-34.42,21.1l-1.93,1.34c-.57.38-1.14.78-1.7,1.18l-2.39,1.7-1.19.85c-3.73,2.7-7.35,5.46-10.78,8.26l-1.35,1.1q-2.3,1.9-4.46,3.81l-1.43,1.28-1.41,1.29-.48.46c-.5.46-1,.91-1.46,1.38l-1.6,1.57c-.42.41-.82.83-1.22,1.24s-.59.6-.87.9c-.83.86-1.62,1.72-2.38,2.58l-.92,1-.77.9q-.51.6-1,1.2c-.38.46-.74.92-1.1,1.39l-.25.33c-.36.46-.71.94-1,1.4s-.64.88-.93,1.32c-.17.23-.33.46-.48.7-.3.45-.59.9-.87,1.34s-.56.91-.83,1.36c-7.42,12.66-12,36.19-14.28,50.61A79.13,79.13,0,0,0,151,165c0,.09,0,.13,0,.13.49-51.15,2-63.24,27.47-90.46C195.12,57,218.15,39.09,257.92,22.76A100,100,0,0,1,278.25,23.64Z" fill="#3f689d"/><path d="M299,30.71c-20.87,8.1-87.34,35.74-120.18,71a107.16,107.16,0,0,0-26.09,51.18c2.26-14.42,6.86-37.95,14.28-50.61.27-.45.54-.9.83-1.36s.57-.89.87-1.34c.15-.24.31-.47.48-.7q.44-.66.93-1.32c.33-.46.68-.94,1-1.4l.25-.33c.36-.47.73-.93,1.1-1.39s.65-.8,1-1.2l.77-.9.92-1c.76-.86,1.55-1.72,2.38-2.58q.42-.45.87-.9c.4-.41.8-.83,1.22-1.24l1.6-1.57c.48-.47,1-.92,1.46-1.38l.48-.46,1.41-1.29L186,80.57q2.16-1.91,4.46-3.81l1.35-1.1c3.43-2.8,7-5.56,10.78-8.26l1.19-.85,2.39-1.7c.56-.4,1.13-.8,1.7-1.18l1.93-1.34c11.42-7.78,23.47-15,34.42-21.1l1.78-1,2-1.09,1.81-1c1.35-.73,2.67-1.45,4-2.14l1.33-.71q2.12-1.14,4.11-2.17l1.19-.62c1-.51,2-1,2.9-1.49l1.85-.95,2.73-1.38.94-.47c2.43-1.22,4.6-2.28,6.46-3.18l1-.5.21-.11,1.12-.53.59-.28A55.71,55.71,0,0,1,299,30.71Z" fill="#4fb692"/><path d="M311,42.35q-6.09,1.89-12.12,3.94C200.56,79.92,155.31,128.46,151,165.17c0,0,0,0,0-.13.1-.81.64-5.52,1.68-12.17a107.16,107.16,0,0,1,26.09-51.18c32.84-35.24,99.31-62.88,120.18-71A36,36,0,0,1,311,42.35Z" fill="#ea5436"/><path d="M277.58,447.41a67.91,67.91,0,0,1-3.77,6.1c-9.11,13.08-25.61,26.78-55.43,31.68A146.9,146.9,0,0,1,194.56,487a209.25,209.25,0,0,1-37.59-3.6,165.35,165.35,0,0,1-24.07-6.24,72,72,0,0,1-11.82-5.27c-12.55-7.18-20.44-19.2-21.39-32.42C97,438,86.87,434.31,52.77,432.72c-5.89-.27-11.41-.53-16.48-1L1.72,428.57,0,428.42a35.25,35.25,0,0,1,6.09-9.21l5.22.48,25.92,2.37c4.85.44,10.27.7,16,1,53.6,2.49,56.07,10.31,56.35,14.49.27,10.59,6.3,20.17,16.55,26a63.51,63.51,0,0,0,10.17,4.51,155.2,155.2,0,0,0,22.55,5.82,198.67,198.67,0,0,0,35.69,3.43,137.66,137.66,0,0,0,22.15-1.69c27.68-4.55,42.26-17.44,49.91-29.23a55.64,55.64,0,0,0,3.1-5.41C272.45,443.06,275.13,445.23,277.58,447.41Z" fill="#ee8da8"/><path d="M269.72,441a55.64,55.64,0,0,1-3.1,5.41c-7.65,11.79-22.23,24.68-49.91,29.23a137.66,137.66,0,0,1-22.15,1.69,198.67,198.67,0,0,1-35.69-3.43,155.2,155.2,0,0,1-22.55-5.82,63.51,63.51,0,0,1-10.17-4.51c-10.25-5.87-16.28-15.45-16.55-26-.28-4.18-2.75-12-56.35-14.49-5.75-.26-11.17-.52-16-1l-25.92-2.37-5.22-.48a83.77,83.77,0,0,1,9.2-8.9l5.59.5,17.28,1.59c4.62.41,9.94.67,15.57.93,20.55,1,36.81,2.57,48,6.17s17.44,9.18,17.86,18.06c.21,4.6,2.14,12.2,11.61,17.62a52.7,52.7,0,0,0,8.5,3.75,146.81,146.81,0,0,0,21,5.42,188.46,188.46,0,0,0,33.77,3.26,128,128,0,0,0,20.5-1.56c25.69-4.23,38.22-16.41,44.33-26.83.82-1.41,1.53-2.8,2.14-4.12C264.2,436.93,267,438.92,269.72,441Z" fill="#ea5436"/><path d="M261.51,435.1c-.61,1.32-1.32,2.71-2.14,4.12-6.11,10.42-18.64,22.6-44.33,26.83a128,128,0,0,1-20.5,1.56,188.46,188.46,0,0,1-33.77-3.26,146.81,146.81,0,0,1-21-5.42,52.7,52.7,0,0,1-8.5-3.75c-9.47-5.42-11.4-13-11.61-17.62-.42-8.88-6.62-14.45-17.86-18.06s-27.48-5.21-48-6.17c-5.63-.26-10.95-.52-15.57-.93l-17.28-1.59-5.59-.5c3.79-3.22,7.77-6.19,11.4-8.72h0l3.76.34,8.64.78c4.39.4,9.6.64,15.11.91,38.83,1.8,73.82,5.71,75.38,33.17,0,8.21,9.45,11.55,13.56,13a137.19,137.19,0,0,0,19.51,5,177.41,177.41,0,0,0,31.86,3.1,117.22,117.22,0,0,0,18.85-1.44c23.32-3.83,33.91-14.66,38.64-24.53.39-.78.74-1.57,1.05-2.35C255.58,431.17,258.48,433,261.51,435.1Z" fill="#4fb692"/><path d="M253.06,429.59c-.31.78-.66,1.57-1.05,2.35-4.73,9.87-15.32,20.7-38.64,24.53a117.22,117.22,0,0,1-18.85,1.44,177.41,177.41,0,0,1-31.86-3.1,137.19,137.19,0,0,1-19.51-5c-4.11-1.45-13.56-4.79-13.56-13C128,409.34,93,405.43,54.21,403.63c-5.51-.27-10.72-.51-15.11-.91l-8.64-.78-3.76-.34h0c7.39-5.16,13.34-8.53,13.34-8.53,28.84,2.62,97.4-1.82,99.56,43.59h0c-.44,5.71,91.43,28.57,104.76-12.3C244.35,424.36,247.93,426.37,253.06,429.59Z" fill="#3f689d"/><ellipse cx="194.26" cy="224.09" rx="20.38" ry="25.29" fill="none" stroke="#ee8da8" stroke-miterlimit="10" stroke-width="3.34"/></svg>