<svg xmlns="http://www.w3.org/2000/svg" viewBox="0 0 533.07 235.76"><polygon points="533.07 113.07 533.07 235.76 0 235.76 0 0 296.14 0 296.14 113.07 533.07 113.07" fill="#1d1d1b"/><path d="M52.55,19.16C48,14.7,41.72,12.43,34,12.43H8.56v99.95H26.84V73H34c7.69,0,13.92-2.26,18.52-6.72s7-10.49,7-17.9V37.05C59.5,29.65,57.16,23.63,52.55,19.16ZM26.84,29.25h6.47a8.27,8.27,0,0,1,5.91,1.94,7.32,7.32,0,0,1,2,5.59V48.69a7.29,7.29,0,0,1-2,5.58c-1.36,1.31-3.3,1.95-5.91,1.95H26.84Z" fill="#fff"/><rect x="64.63" y="12.43" width="18.28" height="99.95" fill="#fff"/><path d="M123.6,48.37V35.53a7.59,7.59,0,0,0-2-5.61,7.86,7.86,0,0,0-10.61,0,7.55,7.55,0,0,0-2,5.61V89.29a7.57,7.57,0,0,0,2,5.61,7.89,7.89,0,0,0,10.61,0,7.62,7.62,0,0,0,2-5.61V74h18V89.29c0,7.22-2.39,13.17-7.1,17.69s-10.88,6.79-18.37,6.79-13.67-2.29-18.37-6.79-7.1-10.47-7.1-17.69V35.53c0-7.22,2.39-13.18,7.1-17.7s10.88-6.78,18.37-6.78,13.67,2.28,18.37,6.78,7.1,10.48,7.1,17.7V48.37Z" fill="#fff"/><polygon points="202.29 12.44 202.29 112.39 183.55 112.39 165.87 58.15 165.87 112.39 147.88 112.39 147.88 12.44 167.37 12.44 184.3 68.94 184.3 12.44 202.29 12.44" fill="#fff"/><rect x="211.32" y="12.43" width="18.28" height="99.95" fill="#fff"/><path d="M270.29,48.37V35.53a7.55,7.55,0,0,0-2-5.61,7.86,7.86,0,0,0-10.61,0,7.55,7.55,0,0,0-2,5.61V89.29a7.57,7.57,0,0,0,2,5.61,7.89,7.89,0,0,0,10.61,0,7.58,7.58,0,0,0,2-5.61V74h18V89.29c0,7.22-2.39,13.17-7.11,17.69s-10.87,6.79-18.36,6.79-13.68-2.29-18.37-6.79-7.1-10.47-7.1-17.69V35.53c0-7.22,2.39-13.18,7.1-17.7s10.88-6.78,18.37-6.78,13.67,2.28,18.36,6.78,7.11,10.48,7.11,17.7V48.37Z" fill="#fff"/><path d="M54.54,226.38H55v-1.2Z" fill="#fff"/><path d="M54.54,226.38H55v-1.2Z" fill="#fff"/><polygon points="116.57 226.38 96.9 226.38 84.94 195.32 73.66 226.38 55.02 226.38 55.02 225.19 75.22 174.75 55.83 126.44 75.51 126.44 86.45 154.74 96.73 126.44 115.85 126.44 96.18 175.44 116.57 226.38" fill="#fff"/><polygon points="26.84 143.25 26.84 167.31 49.24 167.31 49.24 184.13 26.84 184.13 26.84 209.57 55.02 209.57 55.02 225.19 54.54 226.38 8.56 226.38 8.56 126.44 55.02 126.44 55.02 143.25 26.84 143.25" fill="#fff"/><path d="M163.4,133.16c-4.6-4.46-10.83-6.73-18.52-6.73H119.41v99.95h18.28V187h7.19c7.69,0,13.92-2.26,18.52-6.72s6.95-10.49,6.95-17.9V151.05C170.35,143.65,168,137.63,163.4,133.16Zm-19.24,37.06h-6.47v-27h6.47a8.27,8.27,0,0,1,5.91,1.94,7.3,7.3,0,0,1,2,5.58v11.92a7.29,7.29,0,0,1-2,5.58C148.71,169.58,146.77,170.22,144.16,170.22Z" fill="#fff"/><polygon points="193.47 143.25 193.47 167.31 215.88 167.31 215.88 184.13 193.47 184.13 193.47 209.57 221.66 209.57 221.66 226.38 175.2 226.38 175.2 126.44 221.66 126.44 221.66 143.25 193.47 143.25" fill="#fff"/><path d="M267.16,182.2a21.45,21.45,0,0,0,7.36-8,26.13,26.13,0,0,0,2.92-12.48V151.05c0-7.4-2.34-13.42-6.95-17.89s-10.83-6.73-18.52-6.73H226.5v99.95h18.28v-40h5.35l11.13,40h19Zm-15.91-12.68h-6.47V143.25h6.47a8.24,8.24,0,0,1,5.91,1.94,7.31,7.31,0,0,1,2,5.58V162a7.31,7.31,0,0,1-2,5.58C255.8,168.89,253.87,169.52,251.25,169.52Z" fill="#fff"/><rect x="284.31" y="126.43" width="18.28" height="99.95" fill="#fff"/><polygon points="329.62 143.25 329.62 167.31 352.02 167.31 352.02 184.13 329.62 184.13 329.62 209.57 357.8 209.57 357.8 226.38 311.34 226.38 311.34 126.44 357.8 126.44 357.8 143.25 329.62 143.25" fill="#fff"/><polygon points="499.72 143.25 499.72 167.31 522.12 167.31 522.12 184.13 499.72 184.13 499.72 209.57 527.9 209.57 527.9 226.38 481.44 226.38 481.44 126.44 527.9 126.44 527.9 143.25 499.72 143.25" fill="#fff"/><path d="M468.34,131.83c4.71,4.53,7.1,10.48,7.1,17.7v12.84h-18V149.53a7.59,7.59,0,0,0-2-5.62,7.89,7.89,0,0,0-10.61,0,7.59,7.59,0,0,0-2,5.62v53.76a7.57,7.57,0,0,0,2,5.61,7.89,7.89,0,0,0,10.61,0,7.58,7.58,0,0,0,2-5.61V188h18v15.34c0,7.22-2.39,13.17-7.1,17.69s-10.88,6.79-18.37,6.79S436.3,225.48,431.6,221s-7.1-10.47-7.1-17.69V149.53c0-7.22,2.39-13.18,7.1-17.7s10.88-6.78,18.37-6.78S463.64,127.33,468.34,131.83Z" fill="#fff"/><polygon points="399.06 126.44 417.05 126.44 417.05 226.38 398.31 226.38 380.63 172.15 380.63 226.38 362.64 226.38 362.64 126.44 382.13 126.44 399.06 182.94 399.06 126.44" fill="#fff"/></svg>