<svg xmlns="http://www.w3.org/2000/svg" viewBox="0 0 156.33 69.99"><path d="M45.35,23.47V24.9a9,9,0,0,1-2.86,6.68,9.5,9.5,0,0,1-6.92,2.76,9.47,9.47,0,0,1-6.91-2.76A8.93,8.93,0,0,1,25.79,25V9.35a8.89,8.89,0,0,1,2.87-6.58A9.6,9.6,0,0,1,35.52,0c7.11,0,9.59,5.63,9.59,9.73H39.39c0-2.29-1.39-4.29-3.82-4.29a3.75,3.75,0,0,0-3.91,3.77V25.09a3.68,3.68,0,0,0,3.91,3.82,4,4,0,0,0,4.15-4V23.47Z" fill="#fff"/><path d="M59.33.48h9.06l5.44,18.79v14.6H68.2V23.94H59.52v9.93H53.89V19.27Zm8.34,17.88L64.33,6.06h-.95L60,18.36Z" fill="#fff"/><path d="M88.9,8.87c0,2,2.1,3.58,4.72,5,3.77,1.82,8.78,4.82,8.68,11.16a8.9,8.9,0,0,1-2.86,6.59,9.5,9.5,0,0,1-6.92,2.76,9.61,9.61,0,0,1-7-2.72,9.13,9.13,0,0,1-2.76-6.72V23.47h5.63V24.9a3.9,3.9,0,0,0,4,4,3.69,3.69,0,0,0,4-3.58c0-2.48-2-4.29-4.68-5.63C88,17.84,83,15.36,83.13,9.3a8.91,8.91,0,0,1,2.72-6.63A9.34,9.34,0,0,1,92.52,0a8.43,8.43,0,0,1,6.83,3,10.38,10.38,0,0,1,2.43,6.82H96.05c0-2.53-1.38-4.34-3.53-4.34A3.58,3.58,0,0,0,88.9,8.87Z" fill="#fff"/><path d="M116.56.48h9.07l5.43,18.79v14.6h-5.62V23.94h-8.68v9.93h-5.63V19.27Zm8.35,17.88-3.34-12.3h-.95l-3.34,12.3Z" fill="#fff"/><path d="M14.71,51.8l-1.54,4.06h-2L9.61,51.8l-.06,0q.18,2.55.18,7V62.2H7.49v-14h2.64l2.1,5.52,2-5.52h2.6v14H14.59V58.76c0-1.3,0-2.52,0-3.68l.1-2.5,0-.76Z" fill="#fff"/><path d="M20.63,55.18a3.12,3.12,0,0,1,1-2.14,3.64,3.64,0,0,1,2.84-1,3.34,3.34,0,0,1,3.62,3.5v6.7H25.87l0-.78a3.12,3.12,0,0,1-.26.26,3.82,3.82,0,0,1-.82.44,3.46,3.46,0,0,1-1.38.26A3.38,3.38,0,0,1,21,61.5a3,3,0,0,1-1-2.26,2.58,2.58,0,0,1,1-2.16,4.88,4.88,0,0,1,2.66-.94L25.67,56v-.42a1.36,1.36,0,0,0-1.42-1.5A1.28,1.28,0,0,0,23,55.18ZM25.09,60a1.23,1.23,0,0,0,.58-.92V57.84L23.81,58a1.3,1.3,0,0,0-1.34,1.18,1.23,1.23,0,0,0,1.32,1.24A2.15,2.15,0,0,0,25.09,60Z" fill="#fff"/><path d="M37.33,62.2H35.15V54.86a.71.71,0,0,0-.68-.78,1.1,1.1,0,0,0-1,1.18V62.2H31.27v-10h2l0,.86a2.82,2.82,0,0,1,1-.72,1.87,1.87,0,0,1,2.32.28l.12.18a2.4,2.4,0,0,1,1.86-.74,2.59,2.59,0,0,1,2.52,2.82V62.2H39V54.86a.76.76,0,0,0-.7-.78c-.62,0-.92.48-.92,1.18Z" fill="#fff"/><path d="M49.33,62.2H47.15V54.86a.71.71,0,0,0-.68-.78,1.1,1.1,0,0,0-1,1.18V62.2H43.27v-10h2l0,.86a2.82,2.82,0,0,1,1-.72,1.87,1.87,0,0,1,2.32.28l.12.18a2.4,2.4,0,0,1,1.86-.74,2.59,2.59,0,0,1,2.52,2.82V62.2H51V54.86a.76.76,0,0,0-.7-.78c-.62,0-.92.48-.92,1.18Z" fill="#fff"/><path d="M56.63,55.18a3.12,3.12,0,0,1,1-2.14,3.64,3.64,0,0,1,2.84-1,3.34,3.34,0,0,1,3.62,3.5v6.7H61.87l0-.78a3.12,3.12,0,0,1-.26.26,3.82,3.82,0,0,1-.82.44,3.46,3.46,0,0,1-1.38.26A3.38,3.38,0,0,1,57,61.5a3,3,0,0,1-1-2.26,2.58,2.58,0,0,1,1-2.16,4.88,4.88,0,0,1,2.66-.94L61.67,56v-.42a1.36,1.36,0,0,0-1.42-1.5A1.28,1.28,0,0,0,59,55.18ZM61.09,60a1.23,1.23,0,0,0,.58-.92V57.84L59.81,58a1.3,1.3,0,0,0-1.34,1.18,1.23,1.23,0,0,0,1.32,1.24A2.15,2.15,0,0,0,61.09,60Z" fill="#fff"/><path d="M80.57,48.2h7.14v2.34H83v3.2h4.34v2.32H83v3.8h4.9V62.2H80.57Z" fill="#fff"/><path d="M92.41,50.28V48.2h5.4V60.12h3V62.2H92V60.12h3.4V50.28Z" fill="#fff"/><path d="M106.63,52.2V56l1.42,4.28h.2L109.69,56V52.2h2.44v3.92l-2.2,6.08h-3.54l-2.22-6.08V52.2Z" fill="#fff"/><path d="M116.43,54.28V52.2h5.74v7.92h3V62.2h-8.84V60.12h3.46V54.28Zm3.24-3.52V48.2h2.6v2.56Z" fill="#fff"/><path d="M136.65,53.1a4,4,0,0,1,.8,2.48h-2.36a1.37,1.37,0,0,0-1.16-1.5,1.7,1.7,0,0,0-1.66,1.68v4.36h4V62.2h-8.5V60.12h2V52.2h2.3l.06.82a2.6,2.6,0,0,1,.24-.28,3.66,3.66,0,0,1,.74-.44,2.69,2.69,0,0,1,1.18-.28A2.65,2.65,0,0,1,136.65,53.1Z" fill="#fff"/><path d="M140.63,55.18a3.12,3.12,0,0,1,1-2.14,3.64,3.64,0,0,1,2.84-1,3.34,3.34,0,0,1,3.62,3.5v6.7h-2.18l0-.78a3.12,3.12,0,0,1-.26.26,3.82,3.82,0,0,1-.82.44,3.46,3.46,0,0,1-1.38.26A3.38,3.38,0,0,1,141,61.5a3,3,0,0,1-1-2.26,2.58,2.58,0,0,1,1-2.16,4.88,4.88,0,0,1,2.66-.94l1.92-.16v-.42a1.36,1.36,0,0,0-1.42-1.5A1.28,1.28,0,0,0,143,55.18ZM145.09,60a1.23,1.23,0,0,0,.58-.92V57.84l-1.86.18a1.3,1.3,0,0,0-1.34,1.18,1.23,1.23,0,0,0,1.32,1.24A2.15,2.15,0,0,0,145.09,60Z" fill="#fff"/><rect y="67.99" width="156.33" height="2" fill="#fff"/></svg>