<svg xmlns="http://www.w3.org/2000/svg" viewBox="0 0 130.02 69.02"><path d="M130,69H0V0H130ZM2,67H128V2H2Z" fill="#fff"/><g opacity="0.5"><path d="M25.2,24.85v.81a5.05,5.05,0,0,1-1.62,3.78A5.39,5.39,0,0,1,19.67,31a5.39,5.39,0,0,1-3.92-1.56,5,5,0,0,1-1.62-3.75V16.86a5,5,0,0,1,1.62-3.72,5.42,5.42,0,0,1,3.89-1.57,5.24,5.24,0,0,1,5.42,5.51H21.83a2.22,2.22,0,0,0-2.16-2.43,2.12,2.12,0,0,0-2.22,2.13v9a2.09,2.09,0,0,0,2.22,2.16A2.24,2.24,0,0,0,22,25.66v-.81Z" fill="#fff"/><path d="M39.53,25.71a5.07,5.07,0,0,1-1.62,3.76,5.91,5.91,0,0,1-8,0,5,5,0,0,1-1.62-3.75V16.86a4.93,4.93,0,0,1,1.62-3.72,5.47,5.47,0,0,1,4-1.57,5.37,5.37,0,0,1,4,1.57,4.93,4.93,0,0,1,1.62,3.72Zm-3.22-9a2.4,2.4,0,0,0-4.75,0v9.15a2.39,2.39,0,0,0,4.75,0Z" fill="#fff"/><path d="M51.12,30.74l-2.59-6.43H46.8v6.43H43.56V11.84h5.7a4.44,4.44,0,0,1,4.56,4.56v3.38a4.66,4.66,0,0,1-2.11,3.86l3,7.1Zm-.59-14.47A1.32,1.32,0,0,0,49.2,15H46.8v6.15h2.4a1.32,1.32,0,0,0,1.33-1.27Z" fill="#fff"/><path d="M56.27,15V11.84H67.42V15H63.48V30.74h-3.3V15Z" fill="#fff"/><path d="M70.24,11.84h9.63V15H73.45v4.32h5.86v3.13H73.45v5.13h6.61v3.16H70.24Z" fill="#fff"/><path d="M18,51.61v6.13H14.81V38.84h5.64a4.33,4.33,0,0,1,3.21,1.32A4.43,4.43,0,0,1,25,43.4V47a4.51,4.51,0,0,1-4.56,4.59Zm3.72-8.34A1.29,1.29,0,0,0,20.39,42H18v6.48h2.37a1.3,1.3,0,0,0,1.35-1.24Z" fill="#fff"/><path d="M30.82,38.84H36L39,49.48v8.26H35.84V52.12H30.93v5.62H27.74V49.48ZM35.54,49l-1.89-7h-.54l-1.89,7Z" fill="#fff"/><path d="M51,57.74l-5.53-12.5-.08,0q.29,3,.29,5.85v6.62h-3V38.84h2.86l5.56,12.5.08,0a60.44,60.44,0,0,1-.3-6V38.84h3v18.9Z" fill="#fff"/><path d="M57.51,57.74V38.84h5.37a5.26,5.26,0,0,1,5.26,5.26v8.37a5.26,5.26,0,0,1-5.26,5.27ZM64.79,44a2,2,0,0,0-2-2h-2V54.58h2a2,2,0,0,0,2-2Z" fill="#fff"/><path d="M83.4,52.72a5.07,5.07,0,0,1-1.62,3.75,5.88,5.88,0,0,1-8,0,5.06,5.06,0,0,1-1.61-3.75V43.86a5,5,0,0,1,1.61-3.72,5.47,5.47,0,0,1,4-1.57,5.37,5.37,0,0,1,4,1.57,4.93,4.93,0,0,1,1.62,3.72Zm-3.21-9a2.4,2.4,0,0,0-4.76,0v9.15a2.4,2.4,0,0,0,4.76,0Z" fill="#fff"/><path d="M86.54,38.84h3.24V54.58H97v3.16H86.54Z" fill="#fff"/><path d="M99.23,38.84H109V42h-6.53v4.32h5.88v3.13h-5.88v8.29H99.23Z" fill="#fff"/><path d="M112.21,38.84v18.9h3.3V38.84Z" fill="#fff"/></g><path d="M99.84,18.79a.17.17,0,0,1,.13-.05h1.16a.14.14,0,0,1,.12.05.11.11,0,0,1,0,.11L99.93,29.78a.15.15,0,0,1,0,.11.17.17,0,0,1-.13.05H98.59c-.1,0-.14-.05-.14-.16l.06-.53s0,0,0,0,0,0,0,0a2.55,2.55,0,0,1-.88.63,2.49,2.49,0,0,1-1,.22,2.7,2.7,0,0,1-1.8-.57,2.76,2.76,0,0,1-.88-1.61,4.92,4.92,0,0,1-.11-1.08,5.69,5.69,0,0,1,.07-1,7,7,0,0,1,.49-1.94,3.86,3.86,0,0,1,1.27-1.65,3.34,3.34,0,0,1,2-.59,2.11,2.11,0,0,1,1,.22,1.89,1.89,0,0,1,.73.61s0,0,.06,0a.08.08,0,0,0,0-.05l.45-3.57A.16.16,0,0,1,99.84,18.79Zm-1,7.07A5.49,5.49,0,0,0,99,25a3.08,3.08,0,0,0-.19-1.14A1.26,1.26,0,0,0,97.55,23a1.77,1.77,0,0,0-1.49.77,4.43,4.43,0,0,0-.75,2.11,7.78,7.78,0,0,0,0,.78,3.43,3.43,0,0,0,.19,1.2,1.28,1.28,0,0,0,.52.66,1.55,1.55,0,0,0,.86.22,1.74,1.74,0,0,0,1.47-.86A4.57,4.57,0,0,0,98.89,25.86Z" fill="#fff"/><path d="M108.78,26.33a.16.16,0,0,1-.17.16h-5c-.05,0-.07,0-.07.06q0,.39,0,.51a1.66,1.66,0,0,0,0,.32,1.45,1.45,0,0,0,.55,1,2.07,2.07,0,0,0,1.28.36,2.28,2.28,0,0,0,1.88-1c.07-.11.14-.13.21-.05l.82.61a.13.13,0,0,1,0,.2A3.57,3.57,0,0,1,107,29.68a4.29,4.29,0,0,1-1.86.41,3.06,3.06,0,0,1-1.84-.51,2.63,2.63,0,0,1-1-1.46,4.43,4.43,0,0,1-.16-1.28c0-.2,0-.54.06-1s.11-.75.17-1a4.87,4.87,0,0,1,.23-.76,3.68,3.68,0,0,1,1.33-1.74,3.56,3.56,0,0,1,2.11-.64,2.8,2.8,0,0,1,2.22.78,3.44,3.44,0,0,1,.68,2.29A12.89,12.89,0,0,1,108.78,26.33Zm-4.07-3a2.18,2.18,0,0,0-.71.92,4.14,4.14,0,0,0-.24.9s0,.06,0,.06h3.55a.05.05,0,0,0,.06-.06q0-.39,0-.51a1.72,1.72,0,0,0-.42-1.2,1.53,1.53,0,0,0-1.18-.45A1.88,1.88,0,0,0,104.71,23.34Z" fill="#fff"/><path d="M110.16,29.77l1-7.81a.13.13,0,0,1,0-.11.12.12,0,0,1,.11-.05h1.18c.1,0,.15.05.15.16l-1,7.81c0,.1-.08.16-.18.16h-1.18C110.18,29.93,110.14,29.87,110.16,29.77Zm1.26-9.49a.85.85,0,0,1-.24-.63,1.14,1.14,0,0,1,.33-.84,1.07,1.07,0,0,1,.81-.34.91.91,0,0,1,.64.23.85.85,0,0,1,.24.63,1.14,1.14,0,0,1-.34.84,1.08,1.08,0,0,1-.8.35A.86.86,0,0,1,111.42,20.28Z" fill="#fff"/></svg>