<svg xmlns="http://www.w3.org/2000/svg" viewBox="0 0 130.02 69.02"><path d="M130 69H0V0h130zM2 67h126V2H2z" fill="#fff"/><g fill="#fff"><path d="M25.2 24.85v.81a5.05 5.05 0 01-1.62 3.78A5.39 5.39 0 0119.67 31a5.39 5.39 0 01-3.92-1.56 5 5 0 01-1.62-3.75v-8.83a5 5 0 011.62-3.72 5.42 5.42 0 013.89-1.57 5.24 5.24 0 015.42 5.51h-3.23a2.22 2.22 0 00-2.16-2.43 2.12 2.12 0 00-2.22 2.13v9a2.09 2.09 0 002.22 2.16A2.24 2.24 0 0022 25.66v-.81zM39.53 25.71a5.07 5.07 0 01-1.62 3.76 5.91 5.91 0 01-8 0 5 5 0 01-1.62-3.75v-8.86a4.93 4.93 0 011.62-3.72 5.47 5.47 0 014-1.57 5.37 5.37 0 014 1.57 4.93 4.93 0 011.62 3.72zm-3.22-9a2.4 2.4 0 00-4.75 0v9.15a2.39 2.39 0 004.75 0zM51.12 30.74l-2.59-6.43H46.8v6.43h-3.24v-18.9h5.7a4.44 4.44 0 014.56 4.56v3.38a4.66 4.66 0 01-2.11 3.86l3 7.1zm-.59-14.47A1.32 1.32 0 0049.2 15h-2.4v6.15h2.4a1.32 1.32 0 001.33-1.27zM56.27 15v-3.16h11.15V15h-3.94v15.74h-3.3V15zM70.24 11.84h9.63V15h-6.42v4.32h5.86v3.13h-5.86v5.13h6.61v3.16h-9.82zM18 51.61v6.13h-3.19v-18.9h5.64a4.33 4.33 0 013.21 1.32A4.43 4.43 0 0125 43.4V47a4.51 4.51 0 01-4.56 4.59zm3.72-8.34A1.29 1.29 0 0020.39 42H18v6.48h2.37a1.3 1.3 0 001.35-1.24zM30.82 38.84H36l3 10.64v8.26h-3.16v-5.62h-4.91v5.62h-3.19v-8.26zM35.54 49l-1.89-7h-.54l-1.89 7zM51 57.74l-5.53-12.5h-.08q.29 3 .29 5.85v6.62h-3V38.84h2.86l5.56 12.5h.08a60.44 60.44 0 01-.3-6v-6.5h3v18.9zM57.51 57.74v-18.9h5.37a5.26 5.26 0 015.26 5.26v8.37a5.26 5.26 0 01-5.26 5.27zM64.79 44a2 2 0 00-2-2h-2v12.58h2a2 2 0 002-2zM83.4 52.72a5.07 5.07 0 01-1.62 3.75 5.88 5.88 0 01-8 0 5.06 5.06 0 01-1.61-3.75v-8.86a5 5 0 011.61-3.72 5.47 5.47 0 014-1.57 5.37 5.37 0 014 1.57 4.93 4.93 0 011.62 3.72zm-3.21-9a2.4 2.4 0 00-4.76 0v9.15a2.4 2.4 0 004.76 0zM86.54 38.84h3.24v15.74H97v3.16H86.54zM99.23 38.84H109V42h-6.53v4.32h5.88v3.13h-5.88v8.29h-3.24zM112.21 38.84v18.9h3.3v-18.9z"/></g><path d="M99.84 18.79a.17.17 0 01.13-.05h1.16a.14.14 0 01.12.05.11.11 0 010 .11l-1.32 10.88a.15.15 0 010 .11.17.17 0 01-.13.05h-1.21c-.1 0-.14-.05-.14-.16l.06-.53a2.55 2.55 0 01-.88.63 2.49 2.49 0 01-1 .22 2.7 2.7 0 01-1.8-.57 2.76 2.76 0 01-.88-1.61 4.92 4.92 0 01-.11-1.08 5.69 5.69 0 01.07-1 7 7 0 01.49-1.94 3.86 3.86 0 011.27-1.65 3.34 3.34 0 012-.59 2.11 2.11 0 011 .22 1.89 1.89 0 01.73.61h.06a.08.08 0 000-.05l.45-3.57a.16.16 0 01-.07-.08zm-1 7.07A5.49 5.49 0 0099 25a3.08 3.08 0 00-.19-1.14 1.26 1.26 0 00-1.26-.86 1.77 1.77 0 00-1.49.77 4.43 4.43 0 00-.75 2.11 7.78 7.78 0 000 .78 3.43 3.43 0 00.19 1.2 1.28 1.28 0 00.52.66 1.55 1.55 0 00.86.22 1.74 1.74 0 001.47-.86 4.57 4.57 0 00.54-2.02zM108.78 26.33a.16.16 0 01-.17.16h-5c-.05 0-.07 0-.07.06v.51a1.66 1.66 0 000 .32 1.45 1.45 0 00.55 1 2.07 2.07 0 001.28.36 2.28 2.28 0 001.88-1c.07-.11.14-.13.21-.05l.82.61a.13.13 0 010 .2 3.57 3.57 0 01-1.28 1.18 4.29 4.29 0 01-1.86.41 3.06 3.06 0 01-1.84-.51 2.63 2.63 0 01-1-1.46 4.43 4.43 0 01-.16-1.28c0-.2 0-.54.06-1s.11-.75.17-1a4.87 4.87 0 01.23-.76 3.68 3.68 0 011.33-1.74 3.56 3.56 0 012.11-.64 2.8 2.8 0 012.22.78 3.44 3.44 0 01.68 2.29 12.89 12.89 0 01-.16 1.56zm-4.07-3a2.18 2.18 0 00-.71.92 4.14 4.14 0 00-.24.9v.06h3.55a.05.05 0 00.06-.06v-.51a1.72 1.72 0 00-.42-1.2 1.53 1.53 0 00-1.18-.45 1.88 1.88 0 00-1.06.35zM110.16 29.77l1-7.81a.13.13 0 010-.11.12.12 0 01.11-.05h1.18c.1 0 .15.05.15.16l-1 7.81c0 .1-.08.16-.18.16h-1.18c-.06 0-.1-.06-.08-.16zm1.26-9.49a.85.85 0 01-.24-.63 1.14 1.14 0 01.33-.84 1.07 1.07 0 01.81-.34.91.91 0 01.64.23.85.85 0 01.24.63 1.14 1.14 0 01-.34.84 1.08 1.08 0 01-.8.35.86.86 0 01-.64-.24z" fill="#fff"/></svg>