<svg xmlns="http://www.w3.org/2000/svg" viewBox="0 0 114.69 23.25"><path d="M.43,1.38C.14,1.24,0,1.06,0,.86S.12.54.36.5A23.36,23.36,0,0,1,3.88.32h.41A5.94,5.94,0,0,1,8.45,1.68,4.82,4.82,0,0,1,10,5.45a5,5,0,0,1-1.5,3.86,5.6,5.6,0,0,1-4,1.47H2.86l-1.69,0a2.68,2.68,0,0,1-1-.1A.41.41,0,0,1,0,10.23c0-.11.14-.26.44-.45A1.25,1.25,0,0,0,1,9.09a16,16,0,0,0,.1-2.63v-1l0-1.13V4.18c0-.13,0-.26,0-.38V3.24A4,4,0,0,0,1,1.84,1.07,1.07,0,0,0,.43,1.38Zm7,4.48v-.5a5.75,5.75,0,0,0-.23-1.55A3.14,3.14,0,0,0,5.49,1.64a3.18,3.18,0,0,0-1.28-.25h-.1c-.58,0-.9.13-1,.39,0,.05,0,.8,0,2.24V7.23L3.1,8V8.7a1.51,1.51,0,0,0,.17.83c.1.13.37.2.81.2h.45A2.43,2.43,0,0,0,5.74,9.4a2.93,2.93,0,0,0,.92-.77,4.33,4.33,0,0,0,.57-1.2A5,5,0,0,0,7.47,5.86Z" fill="#cac4bd"/><path d="M19.36,1.62a1.11,1.11,0,0,1-.14.66.59.59,0,0,1-.44.15l-.14-.07-.16-.1-.18-.11a9,9,0,0,0-1-.4,3.92,3.92,0,0,0-1.41-.26,1,1,0,0,0-.95.46,4.17,4.17,0,0,0-.29,1.91.87.87,0,0,0,.26.66,1,1,0,0,0,.71.25,2.07,2.07,0,0,0,1-.32,1.94,1.94,0,0,1,.77-.32c.16,0,.29.1.41.31a1.37,1.37,0,0,1,.18.72,2.32,2.32,0,0,1-.25,1.39l-.2.11a1.14,1.14,0,0,1-.72-.2A1.81,1.81,0,0,0,16,6a1.44,1.44,0,0,0-1.16.37,2.62,2.62,0,0,0-.14,1.23,2.54,2.54,0,0,0,.43,1.6,1.24,1.24,0,0,0,1,.28,5.23,5.23,0,0,0,2-.52,7.09,7.09,0,0,1,1.37-.52q.33,0,.33.6v.27a1.74,1.74,0,0,1-.15.59,1.23,1.23,0,0,1-.47.58,2,2,0,0,1-1.05.21l-5.49,0c-.84,0-1.26-.11-1.26-.32v-.24c0-.17.16-.34.47-.51a1,1,0,0,0,.54-.55,33.32,33.32,0,0,0,.07-3.44,28.86,28.86,0,0,0-.11-3.57,1.48,1.48,0,0,0-.54-.77.94.94,0,0,1-.42-.69c0-.17.18-.26.54-.29s1.56,0,3.59,0h2.29a2,2,0,0,1,1.07.21A1.25,1.25,0,0,1,19.36,1.62Z" fill="#cac4bd"/><path d="M25.37.74a2.2,2.2,0,0,1-.46.62,2.23,2.23,0,0,0-.55.88,29.54,29.54,0,0,0-.08,3.43,32.84,32.84,0,0,0,.09,3.4.62.62,0,0,0,.37.43,2.74,2.74,0,0,0,1,.12,2.78,2.78,0,0,0,1.19-.25A3.9,3.9,0,0,0,28,8.48a1.61,1.61,0,0,1,1-.64c.22,0,.33.14.33.41v.19a5,5,0,0,1-.18,1.25,2.09,2.09,0,0,1-.29.78,1.81,1.81,0,0,1-1.13.22H23.67c-1.33,0-2.06,0-2.21,0a.39.39,0,0,1-.36-.41c0-.12.13-.31.4-.57a2.09,2.09,0,0,0,.55-1c0-.17.06-1.29.05-3.35A25.67,25.67,0,0,0,22,1.9a1.25,1.25,0,0,0-.58-.61.83.83,0,0,1-.49-.68c0-.21.49-.31,1.47-.32h2a2.55,2.55,0,0,1,.78.08A.37.37,0,0,1,25.37.74Z" fill="#cac4bd"/><path d="M31.38,10.58c-.65,0-1-.1-1-.31s.17-.42.51-.65a1.44,1.44,0,0,0,.61-.79,25.11,25.11,0,0,0,.11-3.43c0-2,0-3.08-.07-3.23a1.35,1.35,0,0,0-.52-.8c-.46-.31-.69-.56-.69-.74V.52c0-.18.64-.27,1.91-.27l.51,0h.87a5.13,5.13,0,0,1,1,.06q.18.06.18.39c0,.13-.18.34-.56.64a1.25,1.25,0,0,0-.4.71,27.61,27.61,0,0,0-.1,3.52A30.07,30.07,0,0,0,33.9,9a1.54,1.54,0,0,0,.55.73c.31.25.46.47.46.64s-.2.3-.6.3H32.05l-.33,0Z" fill="#cac4bd"/><path d="M45.11,2.17c0,.51-.14.76-.44.76a2.54,2.54,0,0,1-.94-.58,6.66,6.66,0,0,0-1.24-.81,2.68,2.68,0,0,0-1.13-.23h0a2.25,2.25,0,0,0-1.17.33c-1.05.6-1.58,1.9-1.57,3.89a5,5,0,0,0,.28,1.67,3,3,0,0,0,3,2.38h0a3.79,3.79,0,0,0,2.14-.77,3.33,3.33,0,0,1,.81-.49c.25,0,.37.11.38.34v.19a1.83,1.83,0,0,1-.35.7,2.23,2.23,0,0,1-1,.79,5.65,5.65,0,0,1-2.42.48h-.26a5.05,5.05,0,0,1-2-.4,4.64,4.64,0,0,1-2.59-2.66,5.32,5.32,0,0,1-.39-1.94V5.29a5.3,5.3,0,0,1,.37-1.91A4.72,4.72,0,0,1,39.25.57,4.87,4.87,0,0,1,41.18.15h.25A7.24,7.24,0,0,1,44.6.59C44.94.78,45.11,1.31,45.11,2.17Z" fill="#cac4bd"/><path d="M51.2.22h.22c.37,0,.79.39,1.26,1.18a12.52,12.52,0,0,1,.73,1.7c.33.87.61,1.58.84,2.15s.49,1.25.77,2a13.84,13.84,0,0,0,.6,1.56,2,2,0,0,0,.66.74c.32.23.48.44.48.61s-.11.29-.32.34a15.65,15.65,0,0,1-2.63.14c-.64,0-1-.14-1-.41A2.16,2.16,0,0,1,53,9.75a2,2,0,0,0,.15-.6A2.58,2.58,0,0,0,52.7,7.6c-.12-.17-.5-.26-1.14-.25a9.05,9.05,0,0,0-2,.11,1.36,1.36,0,0,0-.47.57,1.84,1.84,0,0,0-.23.85,2,2,0,0,0,.21.84,1.69,1.69,0,0,1,.22.7c0,.21-.23.32-.68.32a10,10,0,0,1-2.17-.15.44.44,0,0,1-.35-.48,4.18,4.18,0,0,1,.69-.66,2.42,2.42,0,0,0,.61-.86A45.39,45.39,0,0,0,49.45,3,10.47,10.47,0,0,1,50.2.74,1.07,1.07,0,0,1,51.2.22ZM49.72,6.11v.07c0,.06.24.09.71.09h.87c.69,0,1,0,1-.12a9.18,9.18,0,0,0-.64-2C51.25,3.07,51,2.52,51,2.52s-.23.55-.66,1.66A10,10,0,0,0,49.72,6.11Z" fill="#cac4bd"/><path d="M59.71,1.38A2.11,2.11,0,0,0,58.39,2a12.34,12.34,0,0,1-1.17.92c-.27,0-.4-.16-.4-.49V2.15A7.27,7.27,0,0,1,57,.69c0-.22.15-.36.31-.4S58.94.22,61.82.21l2.84,0h.5c.54,0,.87.08,1,.25a2.58,2.58,0,0,1,.16,1.15v.48c0,.53-.12.79-.37.79s-.48-.17-.79-.51a3.81,3.81,0,0,0-.85-.74,1.89,1.89,0,0,0-1-.23c-.34,0-.53.22-.59.65,0,.15,0,1.27,0,3.35s0,3.23.09,3.45a1.44,1.44,0,0,0,.63.72c.36.26.54.48.54.65a.32.32,0,0,1-.28.34,12.65,12.65,0,0,1-1.76.07H60.61a6.06,6.06,0,0,1-1,0,.28.28,0,0,1-.28-.3c0-.16.17-.4.52-.7a1.87,1.87,0,0,0,.6-.8,28.84,28.84,0,0,0,.08-3.4c0-2,0-3.16-.07-3.36a.93.93,0,0,0-.21-.47A.67.67,0,0,0,59.71,1.38Z" fill="#cac4bd"/><path d="M75.34,1.49a1,1,0,0,1-.15.65.57.57,0,0,1-.44.16l-.13-.07-.16-.1L74.28,2a7.06,7.06,0,0,0-1-.41,4.45,4.45,0,0,0-1.41-.26,1.06,1.06,0,0,0-.95.47,3.91,3.91,0,0,0-.29,1.91.86.86,0,0,0,.26.66,1,1,0,0,0,.71.24,2,2,0,0,0,1-.31A2,2,0,0,1,73.36,4a.51.51,0,0,1,.41.3,1.47,1.47,0,0,1,.17.72,2.47,2.47,0,0,1-.24,1.4l-.21.11a1.17,1.17,0,0,1-.71-.2,1.83,1.83,0,0,0-.86-.44,1.47,1.47,0,0,0-1.16.36,2.94,2.94,0,0,0-.14,1.23,2.5,2.5,0,0,0,.44,1.6c.15.2.48.29,1,.29a5.38,5.38,0,0,0,2-.52,7.5,7.5,0,0,1,1.38-.53c.21,0,.32.2.32.61V9.2a1.69,1.69,0,0,1-.15.58,1.24,1.24,0,0,1-.46.59,2,2,0,0,1-1.05.21H68.58c-.84,0-1.26-.1-1.26-.32V10c0-.17.15-.34.46-.51A1,1,0,0,0,68.33,9c0-.2.07-1.34.07-3.44A27.54,27.54,0,0,0,68.28,2a1.42,1.42,0,0,0-.53-.77,1,1,0,0,1-.42-.7c0-.16.18-.26.54-.28s1.56,0,3.58,0h2.29a1.94,1.94,0,0,1,1.08.22A1.3,1.3,0,0,1,75.34,1.49Z" fill="#cac4bd"/><path d="M80.62,0a6.82,6.82,0,0,1,2.72.35c.35.17.53.62.53,1.34S83.75,2.8,83.5,2.8s-.53-.21-1-.63a6.77,6.77,0,0,0-1.05-.83,2.07,2.07,0,0,0-.93-.19,1.44,1.44,0,0,0-1,.37,1.15,1.15,0,0,0-.4.88,1.51,1.51,0,0,0,.76,1.22,12.25,12.25,0,0,0,1.75.87,6.7,6.7,0,0,1,2,1.18,2.61,2.61,0,0,1,.83,1.87,2.9,2.9,0,0,1-2.17,2.94,4.26,4.26,0,0,1-1.32.23h-.27a9.92,9.92,0,0,1-1.85-.19,4.16,4.16,0,0,1-1.28-.36c-.33-.22-.49-.75-.49-1.56V8.34c0-.53.14-.79.43-.79s.52.25,1,.76a4.67,4.67,0,0,0,1.11,1,2.23,2.23,0,0,0,1.15.25,1.76,1.76,0,0,0,1.18-.4,1.11,1.11,0,0,0,.48-.86A1.66,1.66,0,0,0,82,7.17a5.69,5.69,0,0,0-1.69-1,11.52,11.52,0,0,1-1.76-.93,2.81,2.81,0,0,1-1.33-2.33,3,3,0,0,1,0-.59A2.72,2.72,0,0,1,78.89.35,3.38,3.38,0,0,1,80.35,0Z" fill="#cac4bd"/><path d="M89.33,0a6.82,6.82,0,0,1,2.72.35c.35.17.53.62.53,1.34s-.12,1.09-.37,1.09-.53-.21-1-.63a6.32,6.32,0,0,0-1-.83,2,2,0,0,0-.93-.19,1.35,1.35,0,0,0-1,.37,1.16,1.16,0,0,0-.41.88,1.54,1.54,0,0,0,.76,1.22,13.86,13.86,0,0,0,1.76.87,6.76,6.76,0,0,1,2,1.18,2.61,2.61,0,0,1,.83,1.87A2.89,2.89,0,0,1,91,10.46a4,4,0,0,1-1.32.22H89.4a9.74,9.74,0,0,1-1.84-.19,4.15,4.15,0,0,1-1.29-.36c-.32-.23-.49-.75-.49-1.57V8.32c0-.53.14-.79.43-.8s.52.26,1,.77a4.91,4.91,0,0,0,1.11,1,2.24,2.24,0,0,0,1.16.25,1.73,1.73,0,0,0,1.17-.4,1.11,1.11,0,0,0,.48-.86,1.57,1.57,0,0,0-.43-1.14,5.69,5.69,0,0,0-1.69-1,11.29,11.29,0,0,1-1.75-.93,2.82,2.82,0,0,1-1.34-2.33,3,3,0,0,1,.06-.59A2.67,2.67,0,0,1,87.61.33,3.34,3.34,0,0,1,89.06,0Z" fill="#cac4bd"/><path d="M102.44,1.42a1,1,0,0,1-.14.66.57.57,0,0,1-.44.15l-.13-.07-.16-.1-.19-.1a6.35,6.35,0,0,0-1-.41A4.23,4.23,0,0,0,99,1.29a1,1,0,0,0-.95.46,4,4,0,0,0-.3,1.91.87.87,0,0,0,.26.66,1,1,0,0,0,.72.25,2.07,2.07,0,0,0,1-.32,2,2,0,0,1,.78-.32c.15,0,.29.1.41.31a1.47,1.47,0,0,1,.17.72,2.32,2.32,0,0,1-.25,1.39l-.2.11a1,1,0,0,1-.71-.2A1.83,1.83,0,0,0,99,5.82a1.51,1.51,0,0,0-1.16.37,2.94,2.94,0,0,0-.14,1.23A2.54,2.54,0,0,0,98.17,9a1.26,1.26,0,0,0,1,.29,5.43,5.43,0,0,0,2-.53,7.36,7.36,0,0,1,1.37-.52q.33,0,.33.6v.27a1.74,1.74,0,0,1-.15.59,1.23,1.23,0,0,1-.47.58,2,2,0,0,1-1,.21l-5.49,0c-.84,0-1.26-.11-1.26-.32V10c0-.17.15-.34.46-.51a1,1,0,0,0,.54-.55,31.57,31.57,0,0,0,.08-3.44,30,30,0,0,0-.12-3.57,1.52,1.52,0,0,0-.53-.77,1,1,0,0,1-.43-.69c0-.17.19-.26.55-.29s1.56,0,3.58,0h2.29a2,2,0,0,1,1.08.21A1.27,1.27,0,0,1,102.44,1.42Z" fill="#cac4bd"/><path d="M113.58,9.29a2.5,2.5,0,0,1-.09.92c-.07.09-.23.14-.49.14a2.08,2.08,0,0,1-.64-.28,3.11,3.11,0,0,1-.93-.79c-.12-.14-.87-1.2-2.25-3.19s-2.2-3-2.45-3-.15.68-.15,2a20.16,20.16,0,0,0,.31,3.66,1.67,1.67,0,0,0,.29.74.88.88,0,0,1,.21.47l-.06.18c-.15.17-.63.25-1.45.25h-.33a2.39,2.39,0,0,1-1.16-.14.49.49,0,0,1-.18-.42c0-.11.14-.24.42-.41a1.12,1.12,0,0,0,.5-.5,9.68,9.68,0,0,0,0-1.33l0-.36,0-1.08c0-.71,0-1.53,0-2.44a8.17,8.17,0,0,0-.1-1.71,1.42,1.42,0,0,0-.56-.68c-.31-.22-.46-.43-.46-.61a.47.47,0,0,1,.22-.42,1.68,1.68,0,0,1,.83-.15h.35a2.93,2.93,0,0,1,2.18,1,33.08,33.08,0,0,1,2.56,3.32,9.07,9.07,0,0,0,1.84,2.28c.19,0,.29-1,.28-2.95a4.82,4.82,0,0,0-.5-2.76c-.19-.22-.28-.37-.28-.46s.23-.33.69-.34a9.94,9.94,0,0,1,1.9.12c.34.07.52.23.52.48s-.15.37-.45.67a1.9,1.9,0,0,0-.5.64,16.66,16.66,0,0,0,0,1.74l-.09,3.47v.66C113.58,8.37,113.58,8.77,113.58,9.29Z" fill="#cac4bd"/><path d="M19.53,15.1c1,0,1.71.28,2,.82a1.47,1.47,0,0,1,.16.67,1.21,1.21,0,0,1-.18.66,1.89,1.89,0,0,1-.32.4,2.83,2.83,0,0,1-.28.2c-.09,0-.14.09-.14.11a1.57,1.57,0,0,0,.35.2,1.79,1.79,0,0,1,.56.42,1.39,1.39,0,0,1,.37.91v.11a1.43,1.43,0,0,1-.63,1.23,2.13,2.13,0,0,1-.64.29,3.14,3.14,0,0,1-1,.13H18c-.51,0-.76,0-.76-.14s.08-.19.24-.28a.65.65,0,0,0,.3-.44,8.29,8.29,0,0,0,.08-1.47V17c0-.08,0-.26,0-.55a1.42,1.42,0,0,0-.08-.6.61.61,0,0,0-.32-.29c-.16-.08-.24-.14-.24-.2a.17.17,0,0,1,.12-.18,3.48,3.48,0,0,1,.75,0l1,0Zm.1,3.17h-.38c-.22,0-.35,0-.38.09a2.49,2.49,0,0,0,0,.56v1.26a.82.82,0,0,0,.1.5,1,1,0,0,0,.55.09h.26a1.42,1.42,0,0,0,.94-.31,1,1,0,0,0,.36-.81v-.22a1.05,1.05,0,0,0-.39-.86A1.67,1.67,0,0,0,19.63,18.27Zm-.53-2.69a.22.22,0,0,0-.24.15c0,.06,0,.34,0,.83v.85a.78.78,0,0,0,0,.34.47.47,0,0,0,.3.06h.23l.26,0h.08a.9.9,0,0,0,.7-.31,1.09,1.09,0,0,0,.29-.76V16.6a.93.93,0,0,0-.31-.73,1.09,1.09,0,0,0-.76-.29H19.1Z" fill="#cac4bd"/><path d="M27.43,19v.22a2.41,2.41,0,0,1-.14.76,1.93,1.93,0,0,1-1.17,1.21,2,2,0,0,1-.74.15h-.15a1.89,1.89,0,0,1-1.4-.57,1.82,1.82,0,0,1-.41-.67,2.38,2.38,0,0,1-.16-.89V19.1a2.64,2.64,0,0,1,.15-.86,1.83,1.83,0,0,1,1.14-1.18,2,2,0,0,1,.73-.15h.22a1.77,1.77,0,0,1,.77.18,1.86,1.86,0,0,1,1,1.06A2.28,2.28,0,0,1,27.43,19Zm-3.19,0v.16a2.35,2.35,0,0,0,.29,1.24,1.1,1.1,0,0,0,.34.37.8.8,0,0,0,.43.13h.09a.86.86,0,0,0,.69-.39,1.74,1.74,0,0,0,.29-1.1v-.31a2.27,2.27,0,0,0-.29-1.2.86.86,0,0,0-.74-.5H25.2a.81.81,0,0,0-.68.44A2.08,2.08,0,0,0,24.24,19Z" fill="#cac4bd"/><path d="M30.45,20.63l.66-.1q.12,0,.12.18c0,.11-.11.24-.34.36a1.4,1.4,0,0,1-.71.19h-.09a1,1,0,0,1-.53-.15.91.91,0,0,1-.35-.38A3.77,3.77,0,0,1,29,19.25a6.24,6.24,0,0,0-.08-1.37.68.68,0,0,0-.2-.37,1.19,1.19,0,0,1-.22-.2.26.26,0,0,1,.11-.2,3.08,3.08,0,0,0,.34-.23s.13-.26.33-.72c.11-.22.22-.34.35-.34a.26.26,0,0,1,.26.14,2,2,0,0,1,.08.38.81.81,0,0,0,.17.45,1.19,1.19,0,0,0,.49.19c.25.06.38.15.38.26s-.14.19-.42.25-.45.12-.51.21A3,3,0,0,0,30,19,5.58,5.58,0,0,0,30,20.28C30.13,20.51,30.26,20.63,30.45,20.63Z" fill="#cac4bd"/><path d="M34.12,20.63l.67-.1c.07,0,.11.06.11.18s-.11.24-.34.36a1.38,1.38,0,0,1-.71.19h-.09a1,1,0,0,1-.53-.15,1,1,0,0,1-.35-.38,4,4,0,0,1-.18-1.48,7,7,0,0,0-.08-1.37.75.75,0,0,0-.2-.37,1.59,1.59,0,0,1-.23-.2.24.24,0,0,1,.12-.2l.33-.23s.13-.26.34-.72c.1-.22.22-.34.35-.34a.27.27,0,0,1,.26.14,2.55,2.55,0,0,1,.07.38.81.81,0,0,0,.17.45,1.25,1.25,0,0,0,.49.19c.25.06.38.15.38.26s-.14.19-.42.25-.45.12-.5.21A2.81,2.81,0,0,0,33.62,19a4.88,4.88,0,0,0,.1,1.31C33.8,20.51,33.93,20.63,34.12,20.63Z" fill="#cac4bd"/><path d="M36.84,19.52a1.07,1.07,0,0,0,.38.84,1.4,1.4,0,0,0,1,.34,1.43,1.43,0,0,0,.43-.07l.42-.17a1.11,1.11,0,0,1,.28-.09c.12,0,.17.06.17.18s-.21.36-.65.55a2.11,2.11,0,0,1-.9.19h-.1A1.83,1.83,0,0,1,36,20.09a2.72,2.72,0,0,1-.16-.91V19a1.9,1.9,0,0,1,.19-.83,2.34,2.34,0,0,1,.47-.68,1.94,1.94,0,0,1,1.37-.55,1.56,1.56,0,0,1,1.59.93,1.39,1.39,0,0,1,.12.54v.09a.39.39,0,0,1-.25.4,4.68,4.68,0,0,1-1.18.17l-1,.09A.36.36,0,0,0,36.84,19.52Zm1.83-1.17v-.13a.84.84,0,0,0-.24-.59.73.73,0,0,0-.57-.26H37.7a.76.76,0,0,0-.59.35,1.19,1.19,0,0,0-.27.75v.06c0,.09,0,.14.17.14h.22l.85-.05h.16C38.52,18.63,38.67,18.53,38.67,18.35Z" fill="#cac4bd"/><path d="M44.88,17.15c0,.17-.11.27-.32.32s-.31.13-.31.26v.09l0,.11,0,.11a4,4,0,0,1,0,.41,1.1,1.1,0,0,1-.15.54,1.79,1.79,0,0,1-1.61.86,2.24,2.24,0,0,0-.48.06.3.3,0,0,0-.23.3c0,.14.11.23.34.29l.87.08a3.35,3.35,0,0,1,1.1.21.91.91,0,0,1,.59.84,1.37,1.37,0,0,1-.65,1.17,2.88,2.88,0,0,1-1.68.45A2.37,2.37,0,0,1,41.2,23a1.06,1.06,0,0,1-.37-.33.76.76,0,0,1-.13-.42.91.91,0,0,1,.23-.65,4.83,4.83,0,0,0,.37-.44.92.92,0,0,0-.16-.24.66.66,0,0,1-.16-.43.78.78,0,0,1,.21-.48,1.3,1.3,0,0,0,.21-.3,2.78,2.78,0,0,0-.26-.45,1.45,1.45,0,0,1-.26-.79,1.37,1.37,0,0,1,.16-.68,1.79,1.79,0,0,1,1.72-.84h.12l.62,0H44l.47,0C44.73,17,44.88,17,44.88,17.15Zm-2.7,4a.75.75,0,0,0-.53.22.73.73,0,0,0-.21.54v0a.69.69,0,0,0,.29.58,1.32,1.32,0,0,0,.81.22h.11a1.59,1.59,0,0,0,1-.28.81.81,0,0,0,.37-.66v0a.48.48,0,0,0-.21-.4.79.79,0,0,0-.49-.15l-.25,0-.15,0h-.34l-.18,0Zm.39-3.9h-.12a.61.61,0,0,0-.45.27.91.91,0,0,0-.22.62v.33a1.29,1.29,0,0,0,.2.74.69.69,0,0,0,.59.28h0a.69.69,0,0,0,.52-.24.92.92,0,0,0,.21-.63V18.4a1.16,1.16,0,0,1,0-.17,1.22,1.22,0,0,0-.23-.73A.64.64,0,0,0,42.57,17.2Z" fill="#cac4bd"/><path d="M46.07,17.76c0-.22.17-.42.52-.59a2.37,2.37,0,0,1,1.07-.25h0a2.51,2.51,0,0,1,.85.12,1.2,1.2,0,0,1,.73,1.08c0,.06,0,.43,0,1.11a7.94,7.94,0,0,0,0,1.2.47.47,0,0,0,.3.26c.16,0,.25.1.25.15a.28.28,0,0,1-.16.25,1.33,1.33,0,0,1-.62.16.62.62,0,0,1-.46-.14l-.28-.25-.5.22a2,2,0,0,1-.84.23,1.18,1.18,0,0,1-.85-.3,1,1,0,0,1-.31-.73v-.11a1.06,1.06,0,0,1,.4-.8,3.12,3.12,0,0,1,1.42-.54,1.78,1.78,0,0,0,.47-.13.57.57,0,0,0,.2-.51.78.78,0,0,0-.21-.58.73.73,0,0,0-.54-.2.86.86,0,0,0-.65.4q-.31.39-.57.39C46.17,18.2,46.07,18.05,46.07,17.76Zm2.14,1.41h-.08a1.72,1.72,0,0,0-1,.26.75.75,0,0,0-.38.64v.09a.64.64,0,0,0,.13.4.45.45,0,0,0,.36.18h.19a.9.9,0,0,0,.74-.38,1.1,1.1,0,0,0,.13-.66v-.29C48.35,19.26,48.3,19.17,48.21,19.17Z" fill="#cac4bd"/><path d="M55.67,15.51a1.12,1.12,0,0,0-.74.24.81.81,0,0,0-.28.66,1,1,0,0,0,.42.75,5.49,5.49,0,0,0,1,.53,4.2,4.2,0,0,1,1.1.63,1.56,1.56,0,0,1,.59,1.13v.16a1.47,1.47,0,0,1-.58,1.19,2,2,0,0,1-.67.33,2.48,2.48,0,0,1-.8.13h-.16A4.31,4.31,0,0,1,54,21c-.21-.09-.31-.31-.31-.68v-.15c0-.43.08-.65.23-.65s.24.14.41.42a2,2,0,0,0,.61.62,1.5,1.5,0,0,0,.84.22,1.17,1.17,0,0,0,.78-.26.8.8,0,0,0,.3-.64,1.06,1.06,0,0,0-.48-.87,8,8,0,0,0-1-.53,4.09,4.09,0,0,1-1.15-.72,1.58,1.58,0,0,1-.44-1.12,1.43,1.43,0,0,1,.47-1.09,1.8,1.8,0,0,1,.65-.38,2.34,2.34,0,0,1,.79-.13h.16a3.59,3.59,0,0,1,.47.05l.16,0,.29.06H57a1,1,0,0,1,.26.05c.17.07.26.31.26.73s-.08.63-.25.63-.2-.12-.37-.35a1.75,1.75,0,0,0-.43-.48A1.44,1.44,0,0,0,55.67,15.51Z" fill="#cac4bd"/><path d="M63.1,19v.22a2.41,2.41,0,0,1-.14.76,1.93,1.93,0,0,1-1.17,1.21,2,2,0,0,1-.74.15H60.9a1.89,1.89,0,0,1-1.4-.57,1.82,1.82,0,0,1-.41-.67,2.38,2.38,0,0,1-.16-.89V19.1a2.64,2.64,0,0,1,.15-.86,1.83,1.83,0,0,1,1.14-1.18,2,2,0,0,1,.73-.15h.22a1.77,1.77,0,0,1,.77.18,1.86,1.86,0,0,1,1,1.06A2.28,2.28,0,0,1,63.1,19Zm-3.19,0v.16a2.35,2.35,0,0,0,.29,1.24,1.1,1.1,0,0,0,.34.37.8.8,0,0,0,.43.13h.09a.85.85,0,0,0,.69-.39,1.74,1.74,0,0,0,.29-1.1v-.31a2.27,2.27,0,0,0-.29-1.2.85.85,0,0,0-.74-.5h-.14a.81.81,0,0,0-.68.44A2.08,2.08,0,0,0,59.91,19Z" fill="#cac4bd"/><path d="M65.67,21.73a2.23,2.23,0,0,0,.08.75.77.77,0,0,0,.28.29c.13.09.19.17.19.23s-.19.2-.57.2h-.44c-.67,0-1-.07-1-.21s.08-.14.25-.3a1.06,1.06,0,0,0,.22-.54,9.72,9.72,0,0,0,.08-1.52V18.34a1.25,1.25,0,0,0-.12-.63.89.89,0,0,0-.22-.21c-.13-.08-.19-.16-.19-.22a.16.16,0,0,1,.11-.14,2,2,0,0,1,.9-.17.43.43,0,0,1,.3.17,1,1,0,0,0,.17.18A.83.83,0,0,0,66,17.2l.23-.13a1.56,1.56,0,0,1,.65-.18h.23a1.48,1.48,0,0,1,.56.14,1.61,1.61,0,0,1,.86,1,2.4,2.4,0,0,1,.15.81v.25a2.37,2.37,0,0,1-.17.84,1.91,1.91,0,0,1-1.11,1.16,2.13,2.13,0,0,1-.78.13l-.7-.05C65.74,21.14,65.67,21.34,65.67,21.73Zm2-2.48V19a1.91,1.91,0,0,0-.29-1.13.85.85,0,0,0-.73-.42h0a.9.9,0,0,0-.47.13,1,1,0,0,0-.35.34,3.45,3.45,0,0,0-.12,1.22v.74c0,.07,0,.11,0,.14a.75.75,0,0,0,.24.59.93.93,0,0,0,.64.21h0a.89.89,0,0,0,.78-.45A2,2,0,0,0,67.65,19.25Z" fill="#cac4bd"/><path d="M72,21c0,.11-.26.17-.79.17h-.93c-.31,0-.47-.06-.47-.17s.07-.16.21-.25a.63.63,0,0,0,.28-.35,5.56,5.56,0,0,0,.08-1.26,6.9,6.9,0,0,0-.07-1.27.6.6,0,0,0-.21-.32c-.18-.11-.26-.2-.26-.25a.17.17,0,0,1,.09-.14,1.73,1.73,0,0,1,.92-.19H71a.37.37,0,0,1,.36.26c.07.17.13.25.17.25a.49.49,0,0,0,.23-.12,2,2,0,0,1,.39-.25,1,1,0,0,1,.5-.12.61.61,0,0,1,.42.14.5.5,0,0,1,.15.37.45.45,0,0,1-.12.34.32.32,0,0,1-.24.11.82.82,0,0,1-.35-.1.79.79,0,0,0-.36-.11.58.58,0,0,0-.32.12.92.92,0,0,0-.29.43,3.28,3.28,0,0,0-.12,1.06,2.82,2.82,0,0,0,.1,1,1.19,1.19,0,0,0,.33.39C72,20.86,72,21,72,21Z" fill="#cac4bd"/><path d="M74.27,17.76c0-.22.17-.42.51-.59a2.4,2.4,0,0,1,1.07-.25h0a2.41,2.41,0,0,1,.84.12,1.21,1.21,0,0,1,.74,1.08v1.11a6.24,6.24,0,0,0,.06,1.2.47.47,0,0,0,.3.26q.24.07.24.15a.27.27,0,0,1-.16.25,1.3,1.3,0,0,1-.62.16.61.61,0,0,1-.45-.14l-.29-.25-.5.22a2,2,0,0,1-.83.23,1.14,1.14,0,0,1-.85-.3,1,1,0,0,1-.31-.73v-.11a1,1,0,0,1,.4-.8,3.07,3.07,0,0,1,1.42-.54,1.92,1.92,0,0,0,.47-.13.57.57,0,0,0,.19-.51.82.82,0,0,0-.2-.58.73.73,0,0,0-.54-.2.84.84,0,0,0-.65.4c-.21.26-.4.39-.58.39S74.27,18.05,74.27,17.76Zm2.13,1.41h-.07a1.67,1.67,0,0,0-1,.26.76.76,0,0,0-.39.64v.09a.65.65,0,0,0,.14.4.43.43,0,0,0,.36.18h.18a.9.9,0,0,0,.75-.38,1.1,1.1,0,0,0,.13-.66v-.29C76.54,19.26,76.5,19.17,76.4,19.17Z" fill="#cac4bd"/><path d="M80.69,21.31h-.24c-.86,0-1.29-.07-1.29-.2s.07-.16.22-.25a.61.61,0,0,0,.28-.37,6.92,6.92,0,0,0,.07-1.36,6.61,6.61,0,0,0-.06-1.27.61.61,0,0,0-.24-.27c-.11-.08-.17-.15-.17-.21a.79.79,0,0,1,.2-.34,1.39,1.39,0,0,0,.27-.59,2.77,2.77,0,0,1,.56-1.23,1.59,1.59,0,0,1,1.27-.5,1.28,1.28,0,0,1,.63.14.43.43,0,0,1,.12.68.35.35,0,0,1-.24.11,1.12,1.12,0,0,1-.42-.16,1.05,1.05,0,0,0-.45-.16c-.16,0-.28.1-.37.3a1.76,1.76,0,0,0-.13.66.78.78,0,0,0,.15.53,2.72,2.72,0,0,0,.39.23c.23.12.34.22.34.31s-.11.13-.34.2a.79.79,0,0,0-.44.23,3.45,3.45,0,0,0-.14,1.33,5.64,5.64,0,0,0,.09,1.36.89.89,0,0,0,.31.4c.16.11.24.2.24.26S81.1,21.31,80.69,21.31Z" fill="#cac4bd"/><path d="M84.34,21.31H84.1c-.86,0-1.29-.07-1.29-.2s.07-.16.22-.25a.67.67,0,0,0,.29-.37,8.4,8.4,0,0,0,.06-1.36,6.61,6.61,0,0,0-.06-1.27.61.61,0,0,0-.24-.27c-.11-.08-.17-.15-.17-.21a.79.79,0,0,1,.2-.34,1.39,1.39,0,0,0,.27-.59,2.77,2.77,0,0,1,.56-1.23,1.61,1.61,0,0,1,1.27-.5,1.25,1.25,0,0,1,.63.14.43.43,0,0,1,.12.68.34.34,0,0,1-.24.11,1.12,1.12,0,0,1-.42-.16,1,1,0,0,0-.44-.16c-.17,0-.29.1-.38.3a1.76,1.76,0,0,0-.13.66.78.78,0,0,0,.15.53,2.72,2.72,0,0,0,.39.23c.23.12.34.22.34.31s-.11.13-.34.2-.38.14-.43.23a3.17,3.17,0,0,0-.15,1.33,5.64,5.64,0,0,0,.09,1.36.89.89,0,0,0,.31.4c.16.11.24.2.24.26S84.75,21.31,84.34,21.31Z" fill="#cac4bd"/><path d="M86.68,17.53c-.15-.08-.22-.15-.22-.21a.16.16,0,0,1,.09-.15,2,2,0,0,1,1-.2h.13a.24.24,0,0,1,.27.22c0,.08,0,.61,0,1.6a12,12,0,0,0,.06,1.7.55.55,0,0,0,.29.33q.24.12.24.24c0,.11-.37.16-1.09.16h-.67c-.22,0-.32-.06-.32-.16s.06-.17.19-.26a.7.7,0,0,0,.27-.27,2,2,0,0,0,.09-.76V19A5.26,5.26,0,0,0,87,17.81.49.49,0,0,0,86.68,17.53Zm1.4-2a.5.5,0,0,1-.16.36.51.51,0,0,1-.33.16h-.15A.6.6,0,0,1,87,16a.47.47,0,0,1-.17-.37v-.08a.48.48,0,0,1,.18-.38.6.6,0,0,1,.42-.16h0l.15,0a.49.49,0,0,1,.43.44v.14Z" fill="#cac4bd"/><path d="M90.25,21.17c-.42,0-.62-.05-.62-.17a.26.26,0,0,1,.16-.24c.2-.11.31-.21.34-.3a6.87,6.87,0,0,0,.05-1.27,6.25,6.25,0,0,0-.07-1.33.58.58,0,0,0-.24-.32q-.18-.13-.18-.21s0-.1.11-.15a1.81,1.81,0,0,1,.88-.16.34.34,0,0,1,.28.12.62.62,0,0,1,.1.19c0,.1.07.15.09.15a.6.6,0,0,0,.26-.12,2,2,0,0,1,1.1-.41h.15a1.19,1.19,0,0,1,.64.18,1.08,1.08,0,0,1,.44.52,4.8,4.8,0,0,1,.16,1.54,7.32,7.32,0,0,0,0,1.31c0,.1.13.18.28.26s.24.16.24.23-.42.2-1.25.2h-.13c-.27,0-.4-.06-.4-.19a.55.55,0,0,1,.1-.19,1,1,0,0,0,.13-.33,11.43,11.43,0,0,0,0-1.22,4.24,4.24,0,0,0-.13-1.32.61.61,0,0,0-.59-.41,1.26,1.26,0,0,0-.57.14.82.82,0,0,0-.41.39,3.62,3.62,0,0,0-.12,1.21,6.57,6.57,0,0,0,0,1.16,1.06,1.06,0,0,0,.13.32l.16.26c0,.12-.23.17-.69.17h-.54Z" fill="#cac4bd"/><path d="M95.63,17.76c0-.22.17-.42.52-.59a2.37,2.37,0,0,1,1.07-.25h0a2.51,2.51,0,0,1,.85.12,1.2,1.2,0,0,1,.73,1.08c0,.06,0,.43,0,1.11a7.94,7.94,0,0,0,0,1.2.47.47,0,0,0,.3.26c.16,0,.25.1.25.15a.28.28,0,0,1-.16.25,1.33,1.33,0,0,1-.62.16.62.62,0,0,1-.46-.14l-.28-.25-.5.22a2,2,0,0,1-.84.23,1.18,1.18,0,0,1-.85-.3,1,1,0,0,1-.31-.73v-.11a1.06,1.06,0,0,1,.4-.8,3.12,3.12,0,0,1,1.42-.54,1.78,1.78,0,0,0,.47-.13.57.57,0,0,0,.2-.51.82.82,0,0,0-.2-.58.77.77,0,0,0-.55-.2.86.86,0,0,0-.65.4q-.32.39-.57.39C95.73,18.2,95.63,18.05,95.63,17.76Zm2.14,1.41h-.08a1.72,1.72,0,0,0-1,.26.75.75,0,0,0-.38.64v.09a.59.59,0,0,0,.14.4.42.42,0,0,0,.35.18H97a.93.93,0,0,0,.75-.38,1.21,1.21,0,0,0,.12-.66v-.29C97.91,19.26,97.86,19.17,97.77,19.17Z" fill="#cac4bd"/></svg>