<svg xmlns="http://www.w3.org/2000/svg" viewBox="0 0 141.78 61.76"><path d="M0,11H3.48V28h7.8v3.4H0Z" fill="#fff"/><path d="M20.32,11h5.51l3.31,11.43v8.88H25.71v-6H20.43v6H17V22.47Zm5.07,10.88-2-7.48h-.58l-2,7.48Z" fill="#fff"/><path d="M55.13,25v.87A5.47,5.47,0,0,1,53.39,30,6.12,6.12,0,0,1,45,30a5.45,5.45,0,0,1-1.74-4V16.44a5.4,5.4,0,0,1,1.74-4,5.84,5.84,0,0,1,4.18-1.69c4.32,0,5.83,3.43,5.83,5.92H51.5a2.38,2.38,0,0,0-2.32-2.61,2.28,2.28,0,0,0-2.38,2.29V26a2.24,2.24,0,0,0,2.38,2.32,2.41,2.41,0,0,0,2.52-2.44V25Z" fill="#fff"/><path d="M72.93,11V26a5.41,5.41,0,0,1-1.74,4,5.83,5.83,0,0,1-4.26,1.66A5.9,5.9,0,0,1,62.63,30a5.45,5.45,0,0,1-1.74-4V11h3.45V26.1a2.5,2.5,0,0,0,2.59,2.26,2.45,2.45,0,0,0,2.55-2.23V11Z" fill="#fff"/><path d="M90.12,25v.87A5.47,5.47,0,0,1,88.38,30,6.1,6.1,0,0,1,80,30a5.46,5.46,0,0,1-1.75-4V16.44a5.41,5.41,0,0,1,1.75-4,5.8,5.8,0,0,1,4.17-1.69c4.32,0,5.83,3.43,5.83,5.92H86.49a2.38,2.38,0,0,0-2.32-2.61,2.28,2.28,0,0,0-2.38,2.29V26a2.24,2.24,0,0,0,2.38,2.32,2.42,2.42,0,0,0,2.53-2.44V25Z" fill="#fff"/><path d="M95.41,14.29V11h11.4v3.25H102.9V28.1h3.91v3.25H95.41V28.1h4V14.29Z" fill="#fff"/><path d="M120.9,31.35,115,17.92l-.09,0c.2,2.14.32,4.23.32,6.29v7.11H112V11h3.07l6,13.43.09,0a63.23,63.23,0,0,1-.32-6.49V11H124V31.35Z" fill="#fff"/><path d="M133,11h5.51l3.3,11.43v8.88h-3.42v-6h-5.28v6h-3.42V22.47ZM138,21.92l-2-7.48h-.58l-2,7.48Z" fill="#fff"/><path d="M6.5,50.41V61.62H4.69l0-.56a2.45,2.45,0,0,1-1.81.68,2.76,2.76,0,0,1-2-.78A2.58,2.58,0,0,1,0,59V56.21a2.57,2.57,0,0,1,.82-2,2.78,2.78,0,0,1,2-.79,2.94,2.94,0,0,1,1.49.42L4.5,54V50.41ZM2,59A1.16,1.16,0,0,0,3.22,60.1,1.25,1.25,0,0,0,4.5,59V56.27A1.22,1.22,0,0,0,3.22,55.1,1.18,1.18,0,0,0,2,56.22Z" fill="#fff"/><path d="M10.05,55.28V53.61h4.59V60H17v1.67H9.94V60h2.77V55.28Zm2.59-2.82V50.41h2.08v2.05Z" fill="#fff"/><path d="M34.14,53.29l-1.23,3.25H31.33l-1.27-3.25,0,0c.1,1.36.15,3.22.15,5.57v2.74H28.37V50.41h2.11l1.68,4.42,1.62-4.42h2.08V61.62H34.05V58.86c0-1,0-2,0-2.94l.08-2,0-.61Z" fill="#fff"/><path d="M39.2,56A2.5,2.5,0,0,1,40,54.29a2.91,2.91,0,0,1,2.27-.84,2.68,2.68,0,0,1,2.9,2.8v5.37H43.39l0-.63a2,2,0,0,1-.21.21,2.82,2.82,0,0,1-.65.35,2.71,2.71,0,0,1-1.11.21,2.74,2.74,0,0,1-1.89-.7,2.39,2.39,0,0,1-.76-1.81,2.07,2.07,0,0,1,.83-1.73,3.89,3.89,0,0,1,2.13-.75l1.53-.13V56.3a1.09,1.09,0,0,0-1.13-1.2,1,1,0,0,0-1,.9Zm3.57,3.87a1,1,0,0,0,.46-.73v-1l-1.48.14a1.05,1.05,0,0,0-1.08.95,1,1,0,0,0,1.06,1A1.68,1.68,0,0,0,42.77,59.87Z" fill="#fff"/><path d="M52.63,61.62H50.88V55.74a.57.57,0,0,0-.54-.62.88.88,0,0,0-.82.94v5.56H47.78v-8h1.6l0,.69a2.14,2.14,0,0,1,.78-.57,1.5,1.5,0,0,1,1.86.22l.1.14a1.89,1.89,0,0,1,1.48-.59,2.07,2.07,0,0,1,2,2.26v5.86H53.92V55.74a.6.6,0,0,0-.56-.62c-.49,0-.73.38-.73.94Z" fill="#fff"/><path d="M62.9,61.62H61.15V55.74a.57.57,0,0,0-.54-.62.89.89,0,0,0-.82.94v5.56H58.05v-8h1.6l0,.69a2.23,2.23,0,0,1,.79-.57,1.49,1.49,0,0,1,1.85.22l.1.14a1.92,1.92,0,0,1,1.49-.59,2.07,2.07,0,0,1,2,2.26v5.86H64.2V55.74a.6.6,0,0,0-.56-.62c-.5,0-.74.38-.74.94Z" fill="#fff"/><path d="M69.19,56A2.5,2.5,0,0,1,70,54.29a2.91,2.91,0,0,1,2.27-.84,2.68,2.68,0,0,1,2.9,2.8v5.37H73.39l0-.63a1.77,1.77,0,0,1-.2.21,3.23,3.23,0,0,1-.66.35,2.93,2.93,0,0,1-3-.49,2.36,2.36,0,0,1-.77-1.81,2.07,2.07,0,0,1,.83-1.73,3.89,3.89,0,0,1,2.13-.75l1.54-.13V56.3a1.09,1.09,0,0,0-1.14-1.2,1,1,0,0,0-1,.9Zm3.57,3.87a1,1,0,0,0,.47-.73v-1l-1.49.14a1.05,1.05,0,0,0-1.08.95,1,1,0,0,0,1.06,1A1.66,1.66,0,0,0,72.76,59.87Z" fill="#fff"/><path d="M88.14,50.41h5.71v1.87H90v2.57h3.47V56.7H90v3H94v1.88H88.14Z" fill="#fff"/><path d="M97.34,52.08V50.41h4.32V60h2.39v1.67H97V60h2.72V52.08Z" fill="#fff"/><path d="M108.45,53.61v3.08l1.13,3.42h.16l1.16-3.42V53.61h1.95v3.14l-1.76,4.87h-2.83l-1.78-4.87V53.61Z" fill="#fff"/><path d="M115.8,55.28V53.61h4.59V60h2.37v1.67h-7.07V60h2.76V55.28Zm2.59-2.82V50.41h2.08v2.05Z" fill="#fff"/><path d="M132.26,54.33a3.2,3.2,0,0,1,.64,2H131a1.09,1.09,0,0,0-.93-1.2,1.35,1.35,0,0,0-1.32,1.34V60H132v1.67h-6.8V60h1.61V53.61h1.84l.05.66a2.9,2.9,0,0,1,.19-.22,3.23,3.23,0,0,1,.6-.36,2.16,2.16,0,0,1,.94-.22A2.12,2.12,0,0,1,132.26,54.33Z" fill="#fff"/><path d="M135.84,56a2.5,2.5,0,0,1,.77-1.71,2.91,2.91,0,0,1,2.27-.84,2.68,2.68,0,0,1,2.9,2.8v5.37H140l0-.63a2,2,0,0,1-.21.21,2.82,2.82,0,0,1-.65.35,2.95,2.95,0,0,1-3-.49,2.4,2.4,0,0,1-.77-1.81,2.07,2.07,0,0,1,.84-1.73,3.89,3.89,0,0,1,2.13-.75l1.53-.13V56.3a1.09,1.09,0,0,0-1.13-1.2,1,1,0,0,0-1,.9Zm3.57,3.87a1,1,0,0,0,.46-.73v-1l-1.49.14a1,1,0,0,0-1.07.95,1,1,0,0,0,1.06,1A1.71,1.71,0,0,0,139.41,59.87Z" fill="#fff"/><rect width="141.77" height="4" fill="#fff"/><rect y="38.66" width="141.77" height="4" fill="#fff"/></svg>