<svg xmlns="http://www.w3.org/2000/svg" viewBox="0 0 156.74 50.45"><path d="M0,.33H4.2V19.6h7.23v3.86H0Z" fill="#fff"/><path d="M19.2.33h6.61l3.6,13V23.46h-4.1V16.59H19.7v6.87H15.6V13.35ZM25,12.72,22.87,4.2h-.73l-2.08,8.52Z" fill="#fff"/><path d="M57.24,16.26v1.06a6.14,6.14,0,0,1-2,4.57,6.59,6.59,0,0,1-4.79,1.9h-.14a6.73,6.73,0,0,1-4.84-1.91,6.16,6.16,0,0,1-2-4.6V6.48a6.1,6.1,0,0,1,2-4.58A6.76,6.76,0,0,1,50.36,0h.14a6.54,6.54,0,0,1,4.82,1.92,6.65,6.65,0,0,1,1.92,4.92H53.07a3,3,0,0,0-.76-2.15,2.4,2.4,0,0,0-1.85-.82,2.76,2.76,0,0,0-1.9.69,2.2,2.2,0,0,0-.77,1.72v11.2a2.26,2.26,0,0,0,.77,1.74,2.73,2.73,0,0,0,1.9.71,2.64,2.64,0,0,0,1.84-.7,2.22,2.22,0,0,0,.77-1.71V16.26Z" fill="#fff"/><path d="M72.7.33h4.23v17a6,6,0,0,1-2,4.57,6.74,6.74,0,0,1-4.84,1.9h-.53a6.74,6.74,0,0,1-4.84-1.91,6.16,6.16,0,0,1-2-4.6V.33h4.2V17.38a2.34,2.34,0,0,0,.81,1.8,2.74,2.74,0,0,0,1.93.75H70a2.7,2.7,0,0,0,1.92-.75,2.31,2.31,0,0,0,.79-1.76Z" fill="#fff"/><path d="M96.46,16.26v1.06a6.14,6.14,0,0,1-1.95,4.57,6.58,6.58,0,0,1-4.79,1.9h-.13a6.73,6.73,0,0,1-4.84-1.91,6.16,6.16,0,0,1-2-4.6V6.48a6.1,6.1,0,0,1,2-4.58A6.76,6.76,0,0,1,89.59,0h.13a6.55,6.55,0,0,1,4.83,1.92,6.64,6.64,0,0,1,1.91,4.92H92.3a3,3,0,0,0-.76-2.15,2.42,2.42,0,0,0-1.85-.82,2.76,2.76,0,0,0-1.9.69A2.21,2.21,0,0,0,87,6.28v11.2a2.27,2.27,0,0,0,.78,1.74,2.73,2.73,0,0,0,1.9.71,2.62,2.62,0,0,0,1.83-.7,2.19,2.19,0,0,0,.78-1.71V16.26Z" fill="#fff"/><path d="M116,22.67c0,.53-.29.79-.86.79H103.57a.79.79,0,0,1-.79-.79V20.42a.75.75,0,0,1,.23-.56.77.77,0,0,1,.56-.23h3.8V4.16h-3.8a.79.79,0,0,1-.79-.79V1.12A.73.73,0,0,1,103,.56a.77.77,0,0,1,.56-.23h11.57c.57,0,.86.26.86.79V3.37c0,.53-.29.79-.86.79h-3.77V19.63h3.77c.57,0,.86.26.86.79Z" fill="#fff"/><path d="M132.68.33h4.1V23.46h-4.33l-4.29-11.07L127,8.69h-.14l.24,3.84V23.46H123V.33h4.33l4.26,10.94,1.22,3.83h.14l-.24-3.86Z" fill="#fff"/><path d="M146.53.33h6.61l3.6,13V23.46h-4.1V16.59H147v6.87h-4.1V13.35Zm5.75,12.39L150.2,4.2h-.73l-2.08,8.52Z" fill="#fff"/><path d="M95.71,40.05v6.26A3.74,3.74,0,0,1,94.5,49.1a4.14,4.14,0,0,1-2.93,1.15H87.49V36.11h4.08a4.1,4.1,0,0,1,2.93,1.15A3.74,3.74,0,0,1,95.71,40.05Zm-2.63,6.36V40a1.41,1.41,0,0,0-.45-1.06,1.56,1.56,0,0,0-1.12-.44H90v9.42h1.48a1.6,1.6,0,0,0,1.12-.43A1.38,1.38,0,0,0,93.08,46.41Z" fill="#fff"/><path d="M105,47.74v2.31a9.12,9.12,0,0,1-2.85.4,3.84,3.84,0,0,1-2.72-1A3.25,3.25,0,0,1,98.33,47V43.4A3.25,3.25,0,0,1,99.39,41a3.81,3.81,0,0,1,2.72-1h.28a3.38,3.38,0,0,1,2.33.93,2.94,2.94,0,0,1,1,2.21v.51c0,1.21-.75,2.09-2.23,2.66l-2.8,1.07a1.07,1.07,0,0,0,.47.72,1.5,1.5,0,0,0,.9.28,6.36,6.36,0,0,0,1.32-.15c.48-.1.86-.2,1.15-.29Zm-4.26-4.36v1.56l2.14-.8c.38-.14.56-.35.56-.65v-.33a1.17,1.17,0,0,0-1.11-1.09H102a1.24,1.24,0,0,0-.92.4A1.27,1.27,0,0,0,100.7,43.38Z" fill="#fff"/><path d="M120.9,45.85v.64a3.78,3.78,0,0,1-1.19,2.8,4.08,4.08,0,0,1-2.93,1.16h-.08a4.11,4.11,0,0,1-3-1.17,3.75,3.75,0,0,1-1.23-2.81v-6.6a3.69,3.69,0,0,1,1.23-2.8,4.11,4.11,0,0,1,3-1.16h.08a4,4,0,0,1,3,1.17,4.07,4.07,0,0,1,1.17,3h-2.55a1.88,1.88,0,0,0-.46-1.32,1.5,1.5,0,0,0-1.13-.5,1.71,1.71,0,0,0-1.17.42,1.39,1.39,0,0,0-.47,1.05v6.85a1.4,1.4,0,0,0,.47,1.06,1.68,1.68,0,0,0,1.17.44,1.6,1.6,0,0,0,1.12-.43,1.36,1.36,0,0,0,.47-1v-.76Z" fill="#fff"/><path d="M130.88,43.4V47a3.27,3.27,0,0,1-1,2.46,3.79,3.79,0,0,1-2.72,1,3.85,3.85,0,0,1-2.75-1A3.24,3.24,0,0,1,123.32,47V43.4a3.24,3.24,0,0,1,1.05-2.46,3.85,3.85,0,0,1,2.75-1,3.79,3.79,0,0,1,2.72,1A3.27,3.27,0,0,1,130.88,43.4ZM128.49,47V43.38a1.26,1.26,0,0,0-.39-.92,1.36,1.36,0,0,0-1-.39,1.41,1.41,0,0,0-1,.39,1.23,1.23,0,0,0-.43.92V47a1.25,1.25,0,0,0,.43.92,1.44,1.44,0,0,0,1,.39,1.33,1.33,0,0,0,1-.39A1.28,1.28,0,0,0,128.49,47Z" fill="#fff"/><path d="M140.17,43.34h-2.35a1.32,1.32,0,0,0-.33-.93,1.12,1.12,0,0,0-1.55-.09.82.82,0,0,0-.32.64q0,.36.48.63a7,7,0,0,0,1.15.51,11,11,0,0,1,1.35.56,3.08,3.08,0,0,1,1.15,1,2.77,2.77,0,0,1,.48,1.65,2.82,2.82,0,0,1-1.06,2.2,3.63,3.63,0,0,1-2.46.93h-.16a3.45,3.45,0,0,1-2.54-1,3.18,3.18,0,0,1-1-2.34v-.22h2.36V47a1.35,1.35,0,0,0,.34.9,1.17,1.17,0,0,0,.91.39h.1a1.14,1.14,0,0,0,.85-.27.89.89,0,0,0,.26-.66.93.93,0,0,0-.46-.77,5.66,5.66,0,0,0-1.13-.58c-.45-.18-.89-.37-1.34-.59a2.87,2.87,0,0,1-1.15-1,2.49,2.49,0,0,1-.46-1.52,2.75,2.75,0,0,1,1-2.19,3.66,3.66,0,0,1,2.42-.84,3.2,3.2,0,0,1,2.55,1A3.46,3.46,0,0,1,140.17,43.34Z" fill="#fff"/><path d="M141.74,42.27V40.15h1.36V37.52h2.38v2.63h2.24v2.12h-2.24v5.41a.56.56,0,0,0,.15.39.46.46,0,0,0,.36.16h.46v2.12h-.83a2.45,2.45,0,0,1-1.79-.73,2.38,2.38,0,0,1-.73-1.77V42.27Z" fill="#fff"/><path d="M155.86,47.74v2.31a9.12,9.12,0,0,1-2.85.4,3.8,3.8,0,0,1-2.71-1A3.22,3.22,0,0,1,149.24,47V43.4A3.21,3.21,0,0,1,150.3,41,3.77,3.77,0,0,1,153,40h.29a3.38,3.38,0,0,1,2.32.93,2.91,2.91,0,0,1,1,2.21v.51c0,1.21-.74,2.09-2.22,2.66l-2.81,1.07a1,1,0,0,0,.48.72,1.47,1.47,0,0,0,.89.28,6.53,6.53,0,0,0,1.33-.15,11.47,11.47,0,0,0,1.14-.29Zm-4.26-4.36v1.56l2.15-.8c.37-.14.56-.35.56-.65v-.33a1.05,1.05,0,0,0-.35-.75,1,1,0,0,0-.76-.34h-.29a1.21,1.21,0,0,0-.91.4A1.25,1.25,0,0,0,151.6,43.38Z" fill="#fff"/></svg>