<svg xmlns="http://www.w3.org/2000/svg" viewBox="0 0 141.53 33.86"><polygon points="4.67 4.73 4.59 4.73 2.79 0 0 0 0 13.86 2.27 13.86 2.27 5.62 2.14 3.62 2.26 3.58 3.68 7.31 5.57 7.31 7.01 3.58 7.13 3.62 6.99 5.62 6.99 13.86 9.27 13.86 9.27 0 6.48 0 4.67 4.73" fill="#fff"/><path d="M18.29,10.79a1.2,1.2,0,0,1-.58.91,2.09,2.09,0,0,1-1.28.42,1.21,1.21,0,0,1-1.31-1.23,1.29,1.29,0,0,1,1.32-1.17l1.85-.18Zm2.35,3.07V7.23a3.31,3.31,0,0,0-3.58-3.47,3.6,3.6,0,0,0-2.81,1,3.06,3.06,0,0,0-.95,2.12h2.31A1.27,1.27,0,0,1,16.88,5.8a1.35,1.35,0,0,1,1.41,1.49V7.7l-1.9.16a4.86,4.86,0,0,0-2.64.93,2.58,2.58,0,0,0-1,2.14,3,3,0,0,0,.95,2.24A3.39,3.39,0,0,0,16,14a3.45,3.45,0,0,0,1.37-.26,4.06,4.06,0,0,0,.81-.43,3.12,3.12,0,0,0,.26-.26l0,.77Z" fill="#fff"/><path d="M30.31,7c0-.69.3-1.17.91-1.17a.75.75,0,0,1,.7.77v7.27h2.13V6.61a2.56,2.56,0,0,0-2.49-2.79,2.38,2.38,0,0,0-1.84.73l-.12-.17a1.85,1.85,0,0,0-2.3-.28,2.89,2.89,0,0,0-1,.71l0-.85h-2v9.9h2.16V7a1.09,1.09,0,0,1,1-1.17.7.7,0,0,1,.67.77v7.27h2.16Z" fill="#fff"/><path d="M43.2,7c0-.69.3-1.17.92-1.17a.75.75,0,0,1,.69.77v7.27H47V6.61a2.57,2.57,0,0,0-2.5-2.79,2.4,2.4,0,0,0-1.84.73l-.12-.17a1.84,1.84,0,0,0-2.3-.28,2.89,2.89,0,0,0-1,.71l0-.85h-2v9.9h2.15V7a1.09,1.09,0,0,1,1-1.17.71.71,0,0,1,.68.77v7.27H43.2Z" fill="#fff"/><path d="M55.88,10.79a1.19,1.19,0,0,1-.57.91,2.12,2.12,0,0,1-1.29.42,1.22,1.22,0,0,1-1.31-1.23A1.3,1.3,0,0,1,54,9.72l1.84-.18Zm2.36,3.07V7.23a3.31,3.31,0,0,0-3.58-3.47,3.64,3.64,0,0,0-2.82,1,3.1,3.1,0,0,0-1,2.12h2.32A1.27,1.27,0,0,1,54.48,5.8a1.34,1.34,0,0,1,1.4,1.49V7.7L54,7.86a4.86,4.86,0,0,0-2.63.93,2.58,2.58,0,0,0-1,2.14,3,3,0,0,0,1,2.24,3.62,3.62,0,0,0,3.7.61,3.94,3.94,0,0,0,.82-.43c.11-.1.19-.2.25-.26l0,.77Z" fill="#fff"/><polygon points="74.6 13.86 81.81 13.86 81.81 11.55 76.95 11.55 76.95 7.78 81.25 7.78 81.25 5.49 76.95 5.49 76.95 2.31 81.67 2.31 81.67 0 74.6 0 74.6 13.86" fill="#fff"/><polygon points="89.08 2.06 89.08 11.8 85.72 11.8 85.72 13.86 94.45 13.86 94.45 11.8 91.5 11.8 91.5 0 86.15 0 86.15 2.06 89.08 2.06" fill="#fff"/><polygon points="97.36 3.96 97.36 7.84 99.56 13.86 103.07 13.86 105.24 7.84 105.24 3.96 102.83 3.96 102.83 7.76 101.4 12 101.2 12 99.8 7.76 99.8 3.96 97.36 3.96" fill="#fff"/><polygon points="112.4 6.02 112.4 11.8 108.97 11.8 108.97 13.86 117.72 13.86 117.72 11.8 114.79 11.8 114.79 3.96 109.11 3.96 109.11 6.02 112.4 6.02" fill="#fff"/><path d="M127.39,3.78a2.68,2.68,0,0,0-1.17.28,4.6,4.6,0,0,0-.73.43,2.6,2.6,0,0,0-.24.28L125.19,4h-2.27V11.8h-2v2.06h8.41V11.8h-4V7.48A1.68,1.68,0,0,1,127,5.82a1.36,1.36,0,0,1,1.15,1.49h2.33a4,4,0,0,0-.79-2.46,2.64,2.64,0,0,0-2.28-1.07" fill="#fff"/><path d="M139.17,10.79a1.21,1.21,0,0,1-.57.91,2.14,2.14,0,0,1-1.29.42A1.22,1.22,0,0,1,136,10.89a1.29,1.29,0,0,1,1.33-1.17l1.84-.18Zm2.36,3.07V7.23a3.31,3.31,0,0,0-3.59-3.47,3.62,3.62,0,0,0-2.81,1,3.1,3.1,0,0,0-.95,2.12h2.32a1.26,1.26,0,0,1,1.26-1.11,1.35,1.35,0,0,1,1.41,1.49V7.7l-1.9.16a4.92,4.92,0,0,0-2.64.93,2.57,2.57,0,0,0-1,2.14,2.93,2.93,0,0,0,.95,2.24,3.35,3.35,0,0,0,2.33.87,3.41,3.41,0,0,0,1.37-.26,3.77,3.77,0,0,0,.81-.43,3.12,3.12,0,0,0,.26-.26l0,.77Z" fill="#fff"/><path d="M73.88,32.32c-.43,0-.6,0-.6-.28a1.07,1.07,0,0,1,0-.25v0L74,27.13,73.6,27a8.2,8.2,0,0,0-1-.28,7.39,7.39,0,0,0-1.4-.14,3.21,3.21,0,0,0-2.13.69,2.7,2.7,0,0,0-1,1.72l-.32,2.33a3.83,3.83,0,0,0,0,.47,2,2,0,0,0,2.13,2.07,2.76,2.76,0,0,0,1.9-.7,1.65,1.65,0,0,0,1.41.63h.52ZM69.82,29A1.2,1.2,0,0,1,71,28a2.72,2.72,0,0,1,1.11.2l-.46,3.3a1.28,1.28,0,0,1-1.29.91.81.81,0,0,1-.88-.77,2.47,2.47,0,0,1,0-.35ZM64,26.58a3.21,3.21,0,0,0-2.13.72,2.7,2.7,0,0,0-1,1.79l-.31,2.21c0,.17,0,.31,0,.44a1.94,1.94,0,0,0,.7,1.54,2.8,2.8,0,0,0,1.84.58,3.24,3.24,0,0,0,2.15-.71,2.94,2.94,0,0,0,1-2H64.43a1.24,1.24,0,0,1-1.24,1.22.86.86,0,0,1-.93-.9c0-.1,0-.21,0-.32l.31-2.11a1.19,1.19,0,0,1,1.18-1,.88.88,0,0,1,.93.95,1.48,1.48,0,0,1,0,.23h1.75l0-.44A2.23,2.23,0,0,0,64,26.58M58.33,32l-.29.11a5.55,5.55,0,0,1-1.73.32c-.74,0-1-.23-1.1-.68L57.46,31a2.33,2.33,0,0,0,1.95-2.44c0-1.12-1-2-2.54-2a3.22,3.22,0,0,0-2.11.73,2.79,2.79,0,0,0-1,1.85l-.28,2.14c0,.18,0,.34,0,.45,0,1.25,1,2.11,2.63,2.11a6.41,6.41,0,0,0,2-.32ZM55.54,29a1.18,1.18,0,0,1,1.19-1c.61,0,.94.34.94.72a.75.75,0,0,1-.57.78l-1.72.6Zm-9,2a6.7,6.7,0,0,0,0,.78,2.06,2.06,0,0,0,2.33,2,2.78,2.78,0,0,0,3.08-2.38l0-.12H50.22v.1a1.19,1.19,0,0,1-1.21.95.77.77,0,0,1-.88-.86,5.13,5.13,0,0,1,.06-.54l.39-2.83H52l.21-1.46H48.79l.26-1.83H47.38l-.25,1.83H45.91l-.21,1.46h1.22Zm-4.2-4.47a3,3,0,0,0-3.13,2.51l-.31,2.21c0,.17,0,.31,0,.44a2,2,0,0,0,.7,1.54,2.83,2.83,0,0,0,1.85.58,2.93,2.93,0,0,0,3.13-2.5l.31-2.21a3.75,3.75,0,0,0,0-.44,1.88,1.88,0,0,0-.71-1.52,2.67,2.67,0,0,0-1.84-.61m-.77,5.83a.89.89,0,0,1-.95-.9,1.82,1.82,0,0,1,0-.32l.31-2.11a1.2,1.2,0,0,1,1.23-1,.89.89,0,0,1,1,.9,1.91,1.91,0,0,1,0,.32l-.3,2.11a1.22,1.22,0,0,1-1.24,1m-10.2-5.69-1,7h1.71l.66-4.59a1.22,1.22,0,0,1,.46-.74,1.32,1.32,0,0,1,.88-.34.91.91,0,0,1,1,.86,4.65,4.65,0,0,1,0,.47l-.6,4.34H36.1l.61-4.46a4.92,4.92,0,0,0,0-.51,2.06,2.06,0,0,0-2.11-2.17,2.25,2.25,0,0,0-.89.2,3.65,3.65,0,0,0-.62.32,1.8,1.8,0,0,0-.24.2l.07-.58Zm-8.3,7h5.18l.22-1.63H25l.38-2.67h3.09l.23-1.62H25.56l.32-2.24h3.38l.23-1.64H24.42Zm-6.23-4.67-.23,1.63h3.89l.23-1.63Z" fill="#fff"/></svg>