<svg xmlns="http://www.w3.org/2000/svg" viewBox="0 0 150.75 67.29"><rect x="10.68" y="43.92" width="140.07" height="2.8" fill="#fff"/><rect x="10.58" y="64.49" width="140.16" height="2.8" fill="#fff"/><path d="M10.9,52V50.63h4.24V52h-1.5v6.6H12.39V52Z" fill="#fff"/><path d="M21.49,53.4a2.38,2.38,0,0,1,.41,1.4H20.69c0-.45-.26-.84-.6-.84a.92.92,0,0,0-.85.95v2.46h2.08v1.18H17V57.37h1V52.89h1.18l0,.46a1.31,1.31,0,0,1,.12-.15A2,2,0,0,1,19.7,53a1.38,1.38,0,0,1,1.79.45Z" fill="#fff"/><path d="M23.53,54.58a1.84,1.84,0,0,1,.5-1.21,1.77,1.77,0,0,1,1.46-.59,1.8,1.8,0,0,1,1.85,2v3.79H26.23l0-.44-.13.15a2.46,2.46,0,0,1-.42.25,1.78,1.78,0,0,1-1.92-.35,1.77,1.77,0,0,1-.49-1.28,1.54,1.54,0,0,1,.53-1.23,2.44,2.44,0,0,1,1.37-.53l1-.09v-.24c0-.57-.33-.85-.73-.85a.67.67,0,0,0-.65.64Zm2.29,2.74a.7.7,0,0,0,.3-.52v-.72l-.95.11a.69.69,0,0,0-.69.66.67.67,0,0,0,.68.71A1,1,0,0,0,25.82,57.32Z" fill="#fff"/><path d="M29.93,54.07h-.88V52.89h.88V51.41h1.23v1.48h2.51v1.18H31.16v2.56c0,.54.27.86.76.86a.78.78,0,0,0,.77-.85H33.9v.1a1.87,1.87,0,0,1-2,1.93,1.79,1.79,0,0,1-2-1.94Z" fill="#fff"/><path d="M36.1,54.07h-.89V52.89h.89V51.41h1.22v1.48h2.51v1.18H37.32v2.56c0,.54.27.86.76.86a.78.78,0,0,0,.77-.85h1.21v.1a1.87,1.87,0,0,1-2,1.93,1.79,1.79,0,0,1-2-1.94Z" fill="#fff"/><path d="M45.92,56.73a1.82,1.82,0,0,1-.58,1.38,2.05,2.05,0,0,1-1.49.56,2.1,2.1,0,0,1-1.51-.56,1.83,1.83,0,0,1-.59-1.38v-2a1.84,1.84,0,0,1,.59-1.38,2.1,2.1,0,0,1,1.51-.55,2,2,0,0,1,1.49.55,1.84,1.84,0,0,1,.58,1.38Zm-1.29-2a.74.74,0,0,0-.79-.74.78.78,0,0,0-.8.74v2a.78.78,0,0,0,.81.74.74.74,0,0,0,.78-.74Z" fill="#fff"/><path d="M52.3,53.4a2.38,2.38,0,0,1,.41,1.4H51.5c0-.45-.26-.84-.59-.84a.92.92,0,0,0-.86.95v2.46h2.08v1.18H47.76V57.37h1V52.89H50l0,.46a.81.81,0,0,1,.13-.15,1.6,1.6,0,0,1,.37-.25,1.35,1.35,0,0,1,.61-.16A1.32,1.32,0,0,1,52.3,53.4Z" fill="#fff"/><path d="M54.24,54.07V52.89h2.95v4.48h1.52v1.18H54.17V57.37H56v-3.3Zm1.67-2V50.63h1.33v1.45Z" fill="#fff"/><path d="M60.51,54.58A1.83,1.83,0,0,1,61,53.37a1.77,1.77,0,0,1,1.46-.59,1.8,1.8,0,0,1,1.86,2v3.79H63.2l0-.44a.88.88,0,0,1-.14.15,2.46,2.46,0,0,1-.42.25,1.64,1.64,0,0,1-.71.14,1.68,1.68,0,0,1-1.21-.49,1.77,1.77,0,0,1-.49-1.28,1.54,1.54,0,0,1,.53-1.23,2.47,2.47,0,0,1,1.37-.53l1-.09v-.24c0-.57-.33-.85-.73-.85a.68.68,0,0,0-.66.64Zm2.29,2.74a.73.73,0,0,0,.3-.52v-.72l-1,.11a.69.69,0,0,0-.69.66.67.67,0,0,0,.68.71A1,1,0,0,0,62.8,57.32Z" fill="#fff"/><path d="M73.94,56.71a.75.75,0,0,0,.78.78c.48,0,.79-.36.79-1h1.31a2,2,0,0,1-2.1,2.17,2.11,2.11,0,0,1-1.5-.56,1.93,1.93,0,0,1-.57-1.45V54.8a1.94,1.94,0,0,1,.58-1.45,2.08,2.08,0,0,1,1.5-.57,2,2,0,0,1,2,2.13H75.5c0-.59-.31-.95-.79-.95a.77.77,0,0,0-.77.83Z" fill="#fff"/><path d="M82.9,56.73a1.83,1.83,0,0,1-.59,1.38,2.05,2.05,0,0,1-1.49.56,2.12,2.12,0,0,1-1.51-.56,1.82,1.82,0,0,1-.58-1.38v-2a1.84,1.84,0,0,1,.58-1.38,2.11,2.11,0,0,1,1.51-.55,2,2,0,0,1,1.49.55,1.84,1.84,0,0,1,.59,1.38Zm-1.3-2a.74.74,0,0,0-.79-.74.78.78,0,0,0-.8.74v2a.78.78,0,0,0,.81.74.74.74,0,0,0,.78-.74Z" fill="#fff"/><path d="M87.88,58.55V54.91a.84.84,0,0,0-.82-.94.94.94,0,0,0-.89.9v3.68H84.92V52.89h1.17l0,.46a1.38,1.38,0,0,1,.17-.15,1.46,1.46,0,0,1,.42-.26,1.39,1.39,0,0,1,.65-.16,1.59,1.59,0,0,1,1.27.59,2.21,2.21,0,0,1,.51,1.51v3.67Z" fill="#fff"/><path d="M98.32,50.63h2l1.17,4.46v3.46h-1.22V56.2H98.36v2.35H97.15V55.09Zm1.8,4.24L99.4,52h-.2l-.72,2.92Z" fill="#fff"/><path d="M103.46,60.59v-7.7h1.16l0,.4a1.48,1.48,0,0,1,1.16-.49,1.69,1.69,0,0,1,1.3.55,2,2,0,0,1,.53,1.38v2a1.93,1.93,0,0,1-.54,1.4,1.71,1.71,0,0,1-1.27.55,1.67,1.67,0,0,1-.95-.3l-.13-.09v2.31Zm2.88-5.85a.77.77,0,0,0-.78-.77.83.83,0,0,0-.82.8v1.9a.82.82,0,0,0,.82.83.79.79,0,0,0,.78-.79Z" fill="#fff"/><path d="M113.65,56.89a1.59,1.59,0,0,1-.59,1.28,2.12,2.12,0,0,1-1.43.48,2.07,2.07,0,0,1-1.49-.57,1.87,1.87,0,0,1-.59-1.41V54.8a1.89,1.89,0,0,1,.59-1.43,2,2,0,0,1,1.48-.59,2.09,2.09,0,0,1,1.5.56,1.93,1.93,0,0,1,.59,1.44v1.35h-2.87v.57a.77.77,0,0,0,.82.79c.48,0,.73-.25.73-.6Zm-2.81-1.84h1.6v-.3a.8.8,0,0,0-.82-.82.8.8,0,0,0-.78.82Z" fill="#fff"/><path d="M120.09,53.4a2.45,2.45,0,0,1,.41,1.4h-1.21c0-.45-.26-.84-.6-.84a.92.92,0,0,0-.85.95v2.46h2.07v1.18h-4.36V57.37h1V52.89h1.19l0,.46a1.31,1.31,0,0,1,.12-.15,1.74,1.74,0,0,1,.38-.25,1.29,1.29,0,0,1,.61-.16A1.32,1.32,0,0,1,120.09,53.4Z" fill="#fff"/><path d="M122,54.07V52.89h3v4.48h1.52v1.18H122V57.37h1.77v-3.3Zm1.66-2V50.63H125v1.45Z" fill="#fff"/><path d="M128.53,54.07h-.88V52.89h.88V51.41h1.22v1.48h2.52v1.18h-2.52v2.56c0,.54.28.86.76.86a.78.78,0,0,0,.77-.85h1.21v.1a1.87,1.87,0,0,1-2,1.93,1.79,1.79,0,0,1-2-1.94Z" fill="#fff"/><path d="M134.35,54.07V52.89h3v4.48h1.52v1.18h-4.54V57.37h1.78v-3.3Zm1.67-2V50.63h1.33v1.45Z" fill="#fff"/><path d="M141.64,52.89v2.17l.73,2.43h.11l.74-2.43V52.89h1.25v2.22l-1.13,3.44h-1.82l-1.14-3.44V52.89Z" fill="#fff"/><path d="M150.68,56.73a1.82,1.82,0,0,1-.58,1.38,2.07,2.07,0,0,1-1.49.56,2.1,2.1,0,0,1-1.51-.56,1.83,1.83,0,0,1-.59-1.38v-2a1.84,1.84,0,0,1,.59-1.38,2.1,2.1,0,0,1,1.51-.55,2.06,2.06,0,0,1,1.49.55,1.84,1.84,0,0,1,.58,1.38Zm-1.29-2a.74.74,0,0,0-.79-.74.78.78,0,0,0-.8.74v2a.78.78,0,0,0,.81.74.74.74,0,0,0,.78-.74Z" fill="#fff"/><path d="M4.56.11,6.16,1a.94.94,0,0,1,.43,1.18A24.33,24.33,0,0,0,5,10,1,1,0,0,1,4,11H1.26A1.24,1.24,0,0,1,0,9.59,17.23,17.23,0,0,1,.88,5.78,24.48,24.48,0,0,1,2.77,1.32L3.29.46A1,1,0,0,1,4.56.11" fill="#fff"/><path d="M28.09,9.55H22.66a4.37,4.37,0,0,0-1-2.89A3,3,0,0,0,19.3,5.47a3.4,3.4,0,0,0-2.37.9,2.91,2.91,0,0,0-1,2.22,3.27,3.27,0,0,0,1.32,2.5,23.18,23.18,0,0,0,3.09,2.18L24,15.47a9.06,9.06,0,0,1,3.17,3.32,10.74,10.74,0,0,1,1.19,6.72,6.06,6.06,0,0,1-.93,2.67q-2.94,4.59-7.86,4.58h-.69a8.58,8.58,0,0,1-6.31-2.6A8.55,8.55,0,0,1,10,23.89V22.44h5.47v1.45a3.48,3.48,0,0,0,1,2.51A3.36,3.36,0,0,0,19,27.47h1.08a1.63,1.63,0,0,0,.81-.21A3.59,3.59,0,0,0,23,24.21a4.26,4.26,0,0,0-1.29-3.08,14.13,14.13,0,0,0-3.1-2.33l-3.66-2.06a9.06,9.06,0,0,1-3.16-3A8.46,8.46,0,0,1,10.47,9,8.47,8.47,0,0,1,13,2.71,8.58,8.58,0,0,1,19.3.17a8.36,8.36,0,0,1,6.27,2.61,9.31,9.31,0,0,1,2.52,6.77" fill="#fff"/><path d="M53.09,22.46v1.45a8.61,8.61,0,0,1-2.55,6.26,8.31,8.31,0,0,1-6.24,2.6h-.79a7.06,7.06,0,0,1-4.08-1.27,9,9,0,0,1-4.23-7.65V9.05a8.55,8.55,0,0,1,2.61-6.27A8.62,8.62,0,0,1,44.12.18h.17a8.35,8.35,0,0,1,6.3,2.63,9.42,9.42,0,0,1,2.5,6.75H47.66a4.32,4.32,0,0,0-1-2.94,3.11,3.11,0,0,0-2.42-1.13,3.65,3.65,0,0,0-3.32,2.05,1.38,1.38,0,0,0-.17.66v16.5a1.42,1.42,0,0,0,.17.7,3.72,3.72,0,0,0,4.16,2,1.94,1.94,0,0,0,.66-.24,3.3,3.3,0,0,0,1.91-3V22.46Z" fill="#fff"/><path d="M64.94.64h8.62l4.7,17.83V32.33H72.92V22.92H65.59v9.42H60.25V18.48Zm7.5,17L69.72,5.94h-.94L66.07,17.62Z" fill="#fff"/><polygon points="98.94 0.66 104.29 0.66 104.3 32.34 98.65 32.34 93.05 17.18 91.49 12.11 91.32 12.11 91.62 17.36 91.63 32.34 86.28 32.34 86.27 0.65 91.92 0.65 97.48 15.64 99.08 20.89 99.25 20.89 98.95 15.6 98.94 0.66" fill="#fff"/><polygon points="110.15 5.96 110.15 0.66 127.95 0.67 127.95 5.96 121.79 5.96 121.8 32.35 116.28 32.35 116.27 5.96 110.15 5.96" fill="#fff"/><polygon points="133.81 0.67 150.01 0.68 150.02 5.97 139.24 5.97 139.24 13.16 149.07 13.17 149.07 18.47 139.25 18.46 139.25 27.06 150.37 27.07 150.37 32.36 133.82 32.35 133.81 0.67" fill="#fff"/></svg>